<svg class="main-svg" xmlns="http://www.w3.org/2000/svg" xmlns:xlink="http://www.w3.org/1999/xlink" width="2200" height="1000" style="" viewBox="0 0 1100 500"><rect x="0" y="0" width="1100" height="500" style="fill: rgb(255, 255, 255); fill-opacity: 1;"/><defs id="defs-4ae331"><g class="clips"><clipPath id="clip4ae331xyplot" class="plotclip"><rect width="1022" height="385"/></clipPath><clipPath class="axesclip" id="clip4ae331x"><rect x="60" y="0" width="1022" height="500"/></clipPath><clipPath class="axesclip" id="clip4ae331y"><rect x="0" y="50" width="1100" height="385"/></clipPath><clipPath class="axesclip" id="clip4ae331xy"><rect x="60" y="50" width="1022" height="385"/></clipPath></g><g class="gradients"/><g class="patterns"/></defs><g class="bglayer"/><g class="layer-below"><g class="imagelayer"/><g class="shapelayer"/></g><g class="cartesianlayer"><g class="subplot xy"><g class="layer-subplot"><g class="shapelayer"/><g class="imagelayer"/></g><g class="minor-gridlayer"><g class="x"/><g class="y"/></g><g class="gridlayer"><g class="x"><path class="xgrid crisp" transform="translate(254.18,0)" d="M0,50v385" style="stroke: rgb(0, 0, 0); stroke-opacity: 0.05; stroke-width: 1px;"/><path class="xgrid crisp" transform="translate(458.58,0)" d="M0,50v385" style="stroke: rgb(0, 0, 0); stroke-opacity: 0.05; stroke-width: 1px;"/><path class="xgrid crisp" transform="translate(662.98,0)" d="M0,50v385" style="stroke: rgb(0, 0, 0); stroke-opacity: 0.05; stroke-width: 1px;"/><path class="xgrid crisp" transform="translate(867.38,0)" d="M0,50v385" style="stroke: rgb(0, 0, 0); stroke-opacity: 0.05; stroke-width: 1px;"/><path class="xgrid crisp" transform="translate(1071.78,0)" d="M0,50v385" style="stroke: rgb(0, 0, 0); stroke-opacity: 0.05; stroke-width: 1px;"/></g><g class="y"><path class="ygrid crisp" transform="translate(0,364.89)" d="M60,0h1022" style="stroke: rgb(0, 0, 0); stroke-opacity: 0.05; stroke-width: 1px;"/><path class="ygrid crisp" transform="translate(0,294.77)" d="M60,0h1022" style="stroke: rgb(0, 0, 0); stroke-opacity: 0.05; stroke-width: 1px;"/><path class="ygrid crisp" transform="translate(0,224.66)" d="M60,0h1022" style="stroke: rgb(0, 0, 0); stroke-opacity: 0.05; stroke-width: 1px;"/><path class="ygrid crisp" transform="translate(0,154.55)" d="M60,0h1022" style="stroke: rgb(0, 0, 0); stroke-opacity: 0.05; stroke-width: 1px;"/><path class="ygrid crisp" transform="translate(0,84.44)" d="M60,0h1022" style="stroke: rgb(0, 0, 0); stroke-opacity: 0.05; stroke-width: 1px;"/></g></g><g class="zerolinelayer"><path class="yzl zl crisp" transform="translate(0,435)" d="M60,0h1022" style="stroke: rgb(0, 0, 0); stroke-opacity: 0.05; stroke-width: 1px;"/></g><g class="layer-between"><g class="shapelayer"/><g class="imagelayer"/></g><path class="xlines-below"/><path class="ylines-below"/><g class="overlines-below"/><g class="xaxislayer-below"/><g class="yaxislayer-below"/><g class="overaxes-below"/><g class="overplot"><g class="xy" transform="translate(60,50)" clip-path="url(#clip4ae331xyplot)"><g class="scatterlayer mlayer"><g class="trace scatter trace996217" style="stroke-miterlimit: 2; opacity: 1;"><g class="fills"/><g class="errorbars"/><g class="lines"><path class="js-line" d="M0,384.99L81.76,384.64L91.98,383.7L102.2,380.9L112.42,380.7L122.64,366.53L132.86,375.82L143.08,362.88L153.3,340.32L163.52,376.54L173.74,362.63L183.96,366.69L194.18,378.07L204.4,368.43L214.62,370.39L224.84,358.85L235.06,370.29L245.28,370.71L255.5,378.02L265.72,368.73L275.94,379.41L286.16,375.69L296.38,378L316.82,372.4L327.04,379.82L337.26,380.06L347.48,379.1L357.7,380.39L367.92,380.11L388.36,380.97L398.58,380.3L408.8,381.67L419.02,381.03L439.46,381.88L449.68,379.5L470.12,383.04L480.34,382.71L490.56,381.88L500.78,382.4L541.66,383.87L551.88,383.73L582.54,383.73L592.76,382.51L623.42,383.65L633.64,383.04L654.08,384.04L664.3,382.9L684.74,383.06L694.96,382.35L705.18,383.74L715.4,384.11L735.84,382.93L746.06,383.23L776.72,382.96L786.94,383.76L797.16,383.9L807.38,383.04L817.6,382.59L827.82,383.98L858.48,383.5L868.7,383.98L889.14,383.76L899.36,384.04L919.8,383.36L930.02,384.04L950.46,383.6L960.68,383.73L981.12,382.72L991.34,383.17L1001.56,382.66L1011.78,380.17L1022,159.8" style="vector-effect: none; fill: none; stroke: rgb(124, 181, 236); stroke-opacity: 1; stroke-width: 2px; opacity: 1;"/></g><g class="points"/><g class="text"/></g><g class="trace scatter tracef1ea4d" style="stroke-miterlimit: 2; opacity: 1;"><g class="fills"/><g class="errorbars"/><g class="lines"><path class="js-line" d="M0,384.99L81.76,384.29L91.98,382.56L102.2,367.58L112.42,379.66L122.64,306.01L132.86,376.6L143.08,334.81L153.3,233.7L163.52,376.17L173.74,376.41L183.96,373.56L194.18,323.33L204.4,371.55L214.62,284.99L224.84,378.21L235.06,378.67L245.28,360.36L255.5,363.6L265.72,379.79L275.94,362.26L286.16,355.22L296.38,380.59L306.6,368.79L316.82,367.97L327.04,365.16L337.26,374.42L347.48,372.17L357.7,377.03L367.92,372.7L378.14,378.48L388.36,374.02L398.58,374.04L408.8,378.87L419.02,382.2L429.24,380.67L439.46,381.24L449.68,379.52L459.9,380.43L490.56,381.65L500.78,378.98L511,383.58L521.22,382.42L531.44,383.34L541.66,382.45L633.64,383.55L643.86,383.22L664.3,383.79L674.52,383.25L684.74,383.96L694.96,383.47L725.62,382.67L735.84,383.68L797.16,382.91L807.38,383.66L858.48,383.71L868.7,383.98L889.14,383.74L899.36,383.82L909.58,383.26L919.8,384L950.46,382.94L960.68,384L970.9,383.28L981.12,383.9L1001.56,383.8L1011.78,381.4L1022,147.4" style="vector-effect: none; fill: none; stroke: rgb(67, 67, 72); stroke-opacity: 1; stroke-width: 2px; opacity: 1;"/></g><g class="points"/><g class="text"/></g><g class="trace scatter trace99092d" style="stroke-miterlimit: 2; opacity: 1;"><g class="fills"/><g class="errorbars"/><g class="lines"><path class="js-line" d="M0,384.99L81.76,384.64L91.98,383.71L102.2,380.84L112.42,380.13L122.64,368.72L132.86,376.87L143.08,364.95L153.3,342.09L163.52,376.95L173.74,363.11L183.96,368.41L194.18,378.91L204.4,368.43L214.62,369.48L224.84,361.37L235.06,371.41L245.28,371.62L255.5,378.27L265.72,369.06L275.94,379.71L286.16,375.89L296.38,378.24L306.6,376L316.82,375.93L327.04,380.34L337.26,379.43L347.48,379.46L357.7,378.54L367.92,378.98L378.14,381.3L388.36,380.32L398.58,381.3L408.8,382.29L419.02,381.47L429.24,381.19L439.46,382.31L449.68,380.22L459.9,382.24L470.12,383.25L480.34,382.99L490.56,382.22L500.78,382.49L521.22,383.46L531.44,383.44L551.88,383.85L562.1,383.72L582.54,383.65L592.76,382.62L623.42,383.75L633.64,383.36L654.08,384.16L664.3,383.53L674.52,382.97L684.74,383.37L694.96,382.88L705.18,383.71L715.4,384.16L725.62,383.81L756.28,383.51L766.5,383.68L776.72,382.9L786.94,383.88L797.16,383.81L807.38,382.97L817.6,382.97L827.82,383.89L878.92,383.78L889.14,383.95L930.02,383.99L940.24,383.37L960.68,384.17L970.9,383.53L981.12,382.7L991.34,382.99L1001.56,382.77L1011.78,380.68L1022,170.17" style="vector-effect: none; fill: none; stroke: rgb(144, 237, 125); stroke-opacity: 1; stroke-width: 2px; opacity: 1;"/></g><g class="points"/><g class="text"/></g><g class="trace scatter trace15f6dd" style="stroke-miterlimit: 2; opacity: 1;"><g class="fills"/><g class="errorbars"/><g class="lines"><path class="js-line" d="M0,384.99L81.76,384.3L91.98,382.61L102.2,368.23L112.42,379.7L122.64,305.88L132.86,375.06L143.08,337.28L153.3,237.4L163.52,375.48L173.74,375.32L183.96,373.64L194.18,324.87L204.4,370.16L214.62,284.02L224.84,377.4L235.06,378.79L245.28,361.99L255.5,363.22L265.72,378.98L275.94,364.2L286.16,355.4L296.38,380.65L306.6,370.42L316.82,367.07L327.04,369.53L337.26,372.93L347.48,374.33L357.7,371.93L367.92,378.49L378.14,376.75L388.36,375.27L398.58,375.56L408.8,380.18L419.02,380.46L429.24,379.52L439.46,380.29L449.68,379.92L459.9,380.43L490.56,380.86L500.78,379.19L511,383.28L521.22,382.35L531.44,383.54L541.66,382.71L562.1,383.09L572.32,382.64L602.98,383.44L613.2,382.85L633.64,383.7L643.86,383.11L694.96,383.84L705.18,383.68L715.4,383.54L725.62,382.56L735.84,383.6L746.06,383.33L766.5,383.89L776.72,382.36L868.7,383.91L878.92,383.36L889.14,383.85L899.36,383.28L940.24,383.75L950.46,383.23L960.68,383.85L970.9,383.54L991.34,383.78L1001.56,383.57L1011.78,381.07L1022,155.02" style="vector-effect: none; fill: none; stroke: rgb(247, 163, 92); stroke-opacity: 1; stroke-width: 2px; opacity: 1;"/></g><g class="points"/><g class="text"/></g><g class="trace scatter trace34dee2" style="stroke-miterlimit: 2; opacity: 1;"><g class="fills"/><g class="errorbars"/><g class="lines"><path class="js-line" d="M0,384.99L81.76,384.6L91.98,383.5L102.2,380.4L112.42,379.7L122.64,365.54L132.86,374.76L143.08,359.82L153.3,333.49L163.52,375.26L173.74,357.82L183.96,365.2L194.18,377.04L204.4,365.93L214.62,367.74L224.84,356.05L235.06,367.74L245.28,368.81L255.5,377.05L265.72,365.93L275.94,378.87L286.16,375.04L296.38,376.87L306.6,373.21L316.82,373.48L327.04,376.39L337.26,372.09L347.48,378.68L357.7,379.25L367.92,380.51L378.14,379.04L388.36,379.78L398.58,381.42L408.8,380.86L419.02,382.49L429.24,381.23L439.46,381.86L449.68,378.43L459.9,380.81L470.12,383.04L480.34,382.47L490.56,381.9L500.78,382.17L511,382.92L521.22,382.64L562.1,383.48L572.32,383.25L582.54,383.14L592.76,381.65L623.42,383.62L633.64,382.79L654.08,383.81L664.3,382.84L684.74,382.86L694.96,382.26L705.18,383.6L715.4,383.95L756.28,383.45L766.5,383.82L776.72,381.97L786.94,383.9L807.38,383.6L817.6,382.69L827.82,383.7L838.04,383.51L878.92,383.4L889.14,383.97L919.8,383.55L930.02,384.23L950.46,383.4L960.68,383.95L981.12,382.55L991.34,383.22L1001.56,382.86L1011.78,380.3L1022,143.76" style="vector-effect: none; fill: none; stroke: rgb(128, 133, 233); stroke-opacity: 1; stroke-width: 2px; opacity: 1;"/></g><g class="points"/><g class="text"/></g><g class="trace scatter trace893b83" style="stroke-miterlimit: 2; opacity: 1;"><g class="fills"/><g class="errorbars"/><g class="lines"><path class="js-line" d="M0,384.99L71.54,384.96L81.76,384.23L91.98,382.49L102.2,365.74L112.42,378.51L122.64,297.54L132.86,375.33L143.08,327.88L153.3,208.39L163.52,374.02L173.74,374.5L183.96,371.3L194.18,313.34L204.4,368.12L214.62,263.6L224.84,377.37L235.06,376.78L245.28,355.86L255.5,360.98L265.72,377.47L275.94,358.42L286.16,349.1L296.38,379.44L306.6,366.49L327.04,365.77L337.26,371.64L347.48,369.81L357.7,375.43L367.92,368.9L378.14,371.22L388.36,377.61L398.58,376.25L419.02,377.4L429.24,378.07L439.46,379.4L449.68,378.18L459.9,379.48L470.12,379.53L480.34,378.83L490.56,380.53L500.78,376.86L511,383.09L521.22,381.6L531.44,383.29L551.88,382.43L562.1,382.6L582.54,382.65L592.76,382.36L602.98,383.23L613.2,382.17L633.64,383.26L643.86,383.07L694.96,383.65L705.18,383.14L715.4,383.43L725.62,382.01L735.84,383.4L746.06,383.43L766.5,383.65L776.72,382.48L786.94,382.04L797.16,382.44L807.38,383.58L817.6,383.49L838.04,383.07L848.26,383.6L899.36,383.4L909.58,382.96L919.8,383.69L930.02,383.34L981.12,383.82L991.34,383.55L1001.56,383.43L1011.78,381.47L1022,126.28" style="vector-effect: none; fill: none; stroke: rgb(241, 92, 128); stroke-opacity: 1; stroke-width: 2px; opacity: 1;"/></g><g class="points"/><g class="text"/></g><g class="trace scatter trace5ae084" style="stroke-miterlimit: 2; opacity: 1;"><g class="fills"/><g class="errorbars"/><g class="lines"><path class="js-line" d="M0,384.99L81.76,384.61L91.98,383.66L102.2,380.97L112.42,380.01L122.64,367.51L132.86,376.63L143.08,365.17L153.3,338.08L163.52,375.28L173.74,360.4L183.96,368.58L194.18,378.32L204.4,367.18L214.62,369.44L224.84,358.65L235.06,369.03L245.28,371.66L255.5,377.58L265.72,368.37L275.94,378.71L286.16,375.15L296.38,377.81L306.6,374.41L316.82,374.17L327.04,378.11L337.26,380.33L347.48,379.9L357.7,376.64L367.92,379.45L378.14,379.22L388.36,381.49L398.58,379.66L408.8,381.28L419.02,380.91L429.24,379.57L439.46,381.46L449.68,378.98L459.9,381.65L470.12,383.11L480.34,382.39L531.44,382.23L541.66,383.5L551.88,382.92L562.1,383.19L582.54,383.46L592.76,381.88L602.98,382.16L613.2,383.33L633.64,383.29L643.86,383.44L664.3,383.21L674.52,382.88L684.74,383.03L694.96,382.2L705.18,383.73L715.4,383.91L735.84,382.7L746.06,383.36L776.72,382.78L786.94,383.87L817.6,382.94L827.82,383.85L848.26,383.87L858.48,383.83L868.7,384.1L878.92,383.42L889.14,384.12L899.36,383.81L930.02,384.14L940.24,383.38L970.9,384.03L981.12,382.04L991.34,383.25L1001.56,382.59L1011.78,380.5L1022,191.41" style="vector-effect: none; fill: none; stroke: rgb(228, 211, 84); stroke-opacity: 1; stroke-width: 2px; opacity: 1;"/></g><g class="points"/><g class="text"/></g><g class="trace scatter traced76d08" style="stroke-miterlimit: 2; opacity: 1;"><g class="fills"/><g class="errorbars"/><g class="lines"><path class="js-line" d="M0,384.99L81.76,384.27L91.98,382.61L102.2,367.86L112.42,380.09L122.64,306.79L132.86,375.79L143.08,333.14L153.3,225.3L163.52,375.16L173.74,375.67L183.96,373.1L194.18,319.56L204.4,369.89L214.62,275.84L224.84,377.21L235.06,377.42L245.28,358.03L255.5,361.38L265.72,379.14L275.94,361.03L286.16,351.95L296.38,379.82L306.6,367.55L316.82,369.54L327.04,366.05L337.26,364.18L347.48,372.15L357.7,375.98L367.92,367.69L378.14,378.98L398.58,377.01L408.8,378.24L419.02,377.62L429.24,378.83L439.46,380.42L449.68,378.48L459.9,380.19L470.12,379.62L480.34,379.37L490.56,379.94L500.78,378.24L511,382.97L521.22,382.33L531.44,383.5L541.66,382.66L551.88,382.59L582.54,382.7L592.76,381.73L602.98,383.62L613.2,382.76L643.86,383.38L654.08,383.17L664.3,383.89L674.52,383.29L684.74,383.66L694.96,383.13L715.4,383.38L725.62,382.27L756.28,383.33L766.5,383.31L776.72,381.57L786.94,382.12L797.16,382.1L807.38,382.99L848.26,383.27L858.48,383.91L950.46,383.17L960.68,383.85L970.9,383.31L981.12,383.83L1001.56,383.71L1011.78,382.14L1022,180.47" style="vector-effect: none; fill: none; stroke: rgb(43, 144, 143); stroke-opacity: 1; stroke-width: 2px; opacity: 1;"/></g><g class="points"/><g class="text"/></g><g class="trace scatter tracea18223" style="stroke-miterlimit: 2; opacity: 1;"><g class="fills"/><g class="errorbars"/><g class="lines"><path class="js-line" d="M0,384.99L81.76,384.56L91.98,383.33L102.2,379.77L112.42,378.63L122.64,360.17L132.86,372.74L143.08,354.32L153.3,322.09L163.52,372.67L173.74,352.17L183.96,360.26L194.18,375.03L204.4,361.86L214.62,362.48L224.84,347.41L235.06,363.64L245.28,364.95L255.5,375.02L265.72,360.11L275.94,378.48L286.16,370.78L296.38,373.82L306.6,370.78L316.82,370.44L327.04,373.28L337.26,374.95L347.48,380.39L357.7,378.34L367.92,376.33L378.14,378.83L388.36,378.24L398.58,379.85L408.8,381.09L419.02,378.65L429.24,380.44L439.46,380.62L449.68,378.26L459.9,380.6L470.12,382.66L480.34,382.49L490.56,381.52L500.78,381.87L521.22,382.56L531.44,382.08L541.66,383.64L551.88,383.32L582.54,383.46L592.76,381.96L613.2,382.81L623.42,383.5L633.64,382.66L643.86,383.53L654.08,383.77L664.3,382.67L684.74,383.12L694.96,382.14L705.18,383.61L715.4,384L735.84,382.56L746.06,383.29L766.5,383.64L776.72,382.87L786.94,384.03L797.16,383.75L817.6,382.1L827.82,383.5L930.02,384.02L940.24,383.23L970.9,383.53L981.12,382.27L991.34,382.77L1001.56,382.15L1011.78,378.98L1022,48.87" style="vector-effect: none; fill: none; stroke: rgb(244, 91, 91); stroke-opacity: 1; stroke-width: 2px; opacity: 1;"/></g><g class="points"/><g class="text"/></g><g class="trace scatter trace533478" style="stroke-miterlimit: 2; opacity: 1;"><g class="fills"/><g class="errorbars"/><g class="lines"><path class="js-line" d="M0,384.99L71.54,384.96L81.76,384.13L91.98,381.93L102.2,360.81L112.42,377.72L122.64,272.36L132.86,373.46L143.08,314.52L153.3,160.67L163.52,372.04L173.74,373.08L183.96,371.31L194.18,294.43L204.4,364.41L214.62,228.75L224.84,376.04L235.06,375.59L245.28,348.65L255.5,352.72L265.72,377.04L275.94,350.59L286.16,339.99L296.38,379.32L306.6,360.32L316.82,364.58L327.04,363.83L337.26,359.24L347.48,366.08L357.7,374.67L367.92,365.93L378.14,368.22L388.36,369.1L398.58,377.95L408.8,373.63L419.02,377.33L429.24,376.45L439.46,378.83L449.68,377.26L459.9,378.1L470.12,377.78L490.56,379.43L500.78,375.23L511,382.67L521.22,381.58L531.44,383.18L541.66,382.2L592.76,382.07L602.98,383.53L613.2,382.31L623.42,382.83L633.64,383.37L643.86,382.74L664.3,383.35L674.52,382.91L694.96,383.42L705.18,383.08L715.4,383.35L725.62,381.93L735.84,383.25L746.06,383.61L756.28,383.01L766.5,383.57L776.72,382.2L786.94,382.64L797.16,382.34L807.38,383.28L827.82,383.46L838.04,383.51L858.48,383.47L868.7,383.65L909.58,383.19L919.8,383.95L940.24,383.47L950.46,382.98L960.68,383.75L970.9,383.42L1001.56,383.29L1011.78,380.89L1022,22.22" style="vector-effect: none; fill: none; stroke: rgb(145, 232, 225); stroke-opacity: 1; stroke-width: 2px; opacity: 1;"/></g><g class="points"/><g class="text"/></g><g class="trace scatter trace525d17" style="stroke-miterlimit: 2; opacity: 1;"><g class="fills"/><g class="errorbars"/><g class="lines"><path class="js-line" d="M0,384.99L81.76,384.62L91.98,383.63L102.2,380.34L112.42,379.15L122.64,366.77L132.86,375L143.08,361.89L153.3,332.89L163.52,374.67L173.74,359.56L183.96,366.11L194.18,377.27L204.4,366.38L214.62,367.51L224.84,356.58L235.06,367.27L245.28,369.74L255.5,376.21L265.72,367.28L275.94,378.85L286.16,374.24L296.38,376.17L306.6,373.24L316.82,373.67L327.04,377.41L337.26,376.49L357.7,380.58L367.92,377.93L378.14,379.42L388.36,379.22L398.58,379.46L408.8,381.27L419.02,381.62L429.24,380.43L439.46,381.45L449.68,379.22L459.9,381.58L470.12,382.8L480.34,382.84L490.56,381.39L521.22,383.02L531.44,382.9L541.66,383.61L551.88,383.26L582.54,383.41L592.76,382.26L623.42,383.42L633.64,383L654.08,383.96L664.3,382.57L684.74,383.3L694.96,382.47L705.18,383.79L715.4,383.88L725.62,383.91L735.84,382.86L766.5,383.68L776.72,382.68L786.94,383.81L797.16,383.52L817.6,382.65L827.82,383.56L940.24,383.61L950.46,383.37L960.68,383.93L970.9,383.3L981.12,382.05L991.34,383.27L1001.56,382.38L1011.78,379.3L1022,156.46" style="vector-effect: none; fill: none; stroke: rgb(124, 181, 236); stroke-opacity: 1; stroke-width: 2px; opacity: 1;"/></g><g class="points"/><g class="text"/></g><g class="trace scatter trace207686" style="stroke-miterlimit: 2; opacity: 1;"><g class="fills"/><g class="errorbars"/><g class="lines"><path class="js-line" d="M0,384.99L71.54,384.96L81.76,384.24L91.98,382.45L102.2,366.13L112.42,378.85L122.64,296.69L132.86,374.98L143.08,327.78L153.3,209.44L163.52,373.31L173.74,374.23L183.96,371.87L194.18,314.16L204.4,367.98L214.62,263.73L224.84,375.82L235.06,377.42L245.28,356.75L255.5,358.59L265.72,378.66L275.94,357.32L286.16,347.73L296.38,379.49L306.6,366.85L316.82,363.2L327.04,369.8L337.26,373.67L347.48,363.36L357.7,375.16L367.92,373.9L388.36,368.21L398.58,378.49L408.8,377.98L419.02,378.29L429.24,378.24L439.46,379.39L449.68,379L459.9,379.71L480.34,378.96L490.56,379.96L500.78,376.16L511,383.07L521.22,381.52L531.44,383.58L541.66,382.55L551.88,382.98L592.76,382.29L602.98,383.65L613.2,382.52L623.42,382.98L654.08,383.4L664.3,383.67L674.52,382.9L684.74,383.72L725.62,382.47L735.84,383.27L766.5,383.69L776.72,382.52L786.94,381.7L797.16,382.03L807.38,383.4L817.6,383.23L838.04,383.18L848.26,383.17L868.7,383.65L878.92,383.38L899.36,383.72L909.58,383.03L919.8,383.91L930.02,383.45L950.46,383.27L960.68,383.99L1001.56,383.65L1011.78,381.1L1022,142.36" style="vector-effect: none; fill: none; stroke: rgb(67, 67, 72); stroke-opacity: 1; stroke-width: 2px; opacity: 1;"/></g><g class="points"/><g class="text"/></g><g class="trace scatter trace4cf6a2" style="stroke-miterlimit: 2; opacity: 1;"><g class="fills"/><g class="errorbars"/><g class="lines"><path class="js-line" d="M0,384.99L81.76,384.54L91.98,383.37L102.2,380.13L112.42,378.89L122.64,361.93L132.86,372.84L143.08,357.42L153.3,322.72L163.52,373.92L173.74,352.96L183.96,361.74L194.18,374.76L204.4,362.76L214.62,364.57L224.84,348.53L235.06,363.11L245.28,366.12L255.5,374.16L265.72,361.46L275.94,378.31L286.16,371.08L296.38,373.94L306.6,370.11L316.82,367.97L327.04,375.33L337.26,378.87L347.48,376.2L357.7,377.98L367.92,376.15L378.14,377.24L388.36,380.37L398.58,379.6L408.8,378.95L419.02,379.88L439.46,380.15L449.68,377.3L459.9,380.39L470.12,382.51L480.34,382.5L490.56,380.86L511,382.56L521.22,382.28L541.66,383.35L551.88,383.32L582.54,383.77L592.76,382.02L613.2,383.1L623.42,383.71L643.86,383.22L654.08,383.79L674.52,383L684.74,383.13L694.96,382.41L705.18,383.67L715.4,384.22L725.62,383.56L746.06,383.32L756.28,383.65L776.72,382.73L786.94,383.87L807.38,383.3L817.6,382.76L827.82,384.01L838.04,383.61L930.02,384.26L940.24,383.49L970.9,383.52L981.12,382.43L1001.56,383.02L1011.78,379.47L1022,40.03" style="vector-effect: none; fill: none; stroke: rgb(144, 237, 125); stroke-opacity: 1; stroke-width: 2px; opacity: 1;"/></g><g class="points"/><g class="text"/></g><g class="trace scatter trace654c82" style="stroke-miterlimit: 2; opacity: 1;"><g class="fills"/><g class="errorbars"/><g class="lines"><path class="js-line" d="M0,384.99L71.54,384.95L81.76,384.17L91.98,382.15L102.2,363.19L112.42,378.11L122.64,282.92L132.86,373.22L143.08,317.78L153.3,175.76L163.52,372.88L173.74,372.47L183.96,368.62L194.18,298.69L204.4,364.73L214.62,236.94L224.84,374.96L235.06,375.31L245.28,350.67L255.5,351.73L265.72,376.46L275.94,350.57L286.16,340.28L296.38,377.99L306.6,362.39L316.82,365.01L327.04,362.08L337.26,363.01L347.48,371.24L357.7,365.36L367.92,366.18L378.14,370.78L388.36,372.29L398.58,361.86L408.8,375.5L419.02,383.03L429.24,379.07L439.46,380.13L449.68,377.85L459.9,378.63L470.12,377.99L480.34,377.89L490.56,378.93L500.78,374.07L511,382.61L521.22,381.54L531.44,383.45L541.66,381.97L551.88,382.58L592.76,381.88L602.98,383.46L613.2,382.31L623.42,383.26L715.4,383.23L725.62,382.28L746.06,383.8L756.28,383.06L766.5,383.62L776.72,381.61L797.16,381.87L807.38,384.01L817.6,382.97L827.82,383.28L878.92,383.33L889.14,384.22L909.58,383.21L919.8,383.95L950.46,383.11L960.68,383.69L1001.56,383.54L1011.78,380.71L1022,19.25" style="vector-effect: none; fill: none; stroke: rgb(247, 163, 92); stroke-opacity: 1; stroke-width: 2px; opacity: 1;"/></g><g class="points"/><g class="text"/></g><g class="trace scatter trace3fc2cb" style="stroke-miterlimit: 2; opacity: 1;"><g class="fills"/><g class="errorbars"/><g class="lines"><path class="js-line" d="M0,384.99L81.76,384.57L91.98,383.45L102.2,380.59L112.42,379.41L122.64,365.89L132.86,375.31L143.08,364.05L153.3,333.5L163.52,374.51L173.74,357.77L183.96,365.77L194.18,377.72L204.4,365.54L214.62,368.06L224.84,355.81L235.06,367.57L245.28,370.12L255.5,376.6L265.72,366.66L275.94,378.56L286.16,374.55L296.38,376.46L306.6,372.62L316.82,372.54L327.04,378.83L337.26,379.33L347.48,379.39L357.7,377.69L367.92,376.62L378.14,379.07L388.36,379.96L398.58,379.85L408.8,381.88L419.02,380.7L429.24,380.62L439.46,381.4L449.68,378.67L459.9,381.49L470.12,382.79L480.34,383.06L490.56,381.56L500.78,382.15L521.22,382.93L531.44,382.88L541.66,383.58L551.88,383.42L582.54,383.6L592.76,382.08L623.42,383.71L633.64,383.18L654.08,383.95L664.3,382.69L674.52,383.18L684.74,382.79L694.96,382.93L705.18,383.92L766.5,383.92L776.72,383.02L786.94,383.93L797.16,383.6L817.6,383.25L827.82,383.6L858.48,383.45L868.7,384L889.14,383.98L899.36,384L930.02,384.14L940.24,383.25L960.68,383.98L970.9,383.55L981.12,382.47L991.34,383.15L1001.56,383.15L1011.78,380.68L1022,161.13" style="vector-effect: none; fill: none; stroke: rgb(128, 133, 233); stroke-opacity: 1; stroke-width: 2px; opacity: 1;"/></g><g class="points"/><g class="text"/></g><g class="trace scatter trace59d73f" style="stroke-miterlimit: 2; opacity: 1;"><g class="fills"/><g class="errorbars"/><g class="lines"><path class="js-line" d="M0,384.99L71.54,384.96L81.76,384.23L91.98,382.38L102.2,365.79L112.42,378.98L122.64,299.38L132.86,375.36L143.08,329.31L153.3,212.38L163.52,374.85L173.74,375.39L183.96,370.85L194.18,314.12L204.4,367.42L214.62,263.93L224.84,376.3L235.06,375.63L245.28,356.3L255.5,358.42L265.72,378.12L275.94,357.05L286.16,348.61L296.38,379.3L306.6,366.47L316.82,368.33L327.04,365.05L337.26,370.63L347.48,367.66L357.7,373.56L367.92,375.9L378.14,368.35L388.36,373.37L398.58,378.53L408.8,379.39L419.02,378.07L429.24,377.65L439.46,379.52L449.68,378.93L459.9,380.17L470.12,379.68L490.56,379.68L500.78,377.14L511,383.12L521.22,381.92L531.44,383.37L541.66,382.53L582.54,382.5L592.76,382.02L602.98,383.73L613.2,382.77L633.64,383.41L643.86,383.2L694.96,383.61L705.18,383.29L715.4,383.23L725.62,382.15L735.84,383.44L746.06,383.85L756.28,382.66L766.5,383.37L776.72,381.53L786.94,381.14L797.16,381.62L807.38,383.63L827.82,383.18L838.04,383.63L858.48,383.66L868.7,383.85L909.58,383.25L919.8,383.98L950.46,383.2L960.68,383.73L970.9,383.28L981.12,383.63L1001.56,383.37L1011.78,381.56L1022,155.48" style="vector-effect: none; fill: none; stroke: rgb(241, 92, 128); stroke-opacity: 1; stroke-width: 2px; opacity: 1;"/></g><g class="points"/><g class="text"/></g></g></g></g><g class="zerolinelayer-above"/><path class="xlines-above crisp" d="M0,0" style="fill: none;"/><path class="ylines-above crisp" d="M0,0" style="fill: none;"/><g class="overlines-above"/><g class="xaxislayer-above"><g class="xtick"><text text-anchor="middle" x="0" y="451" transform="translate(254.18,0)" style="font-family: 'Lucida Grande', 'Open Sans', verdana, arial, sans-serif; font-size: 10px; fill: rgb(0, 0, 0); fill-opacity: 1; white-space: pre;">20 bp</text></g><g class="xtick"><text text-anchor="middle" x="0" y="451" style="font-family: 'Lucida Grande', 'Open Sans', verdana, arial, sans-serif; font-size: 10px; fill: rgb(0, 0, 0); fill-opacity: 1; white-space: pre;" transform="translate(458.58,0)">40 bp</text></g><g class="xtick"><text text-anchor="middle" x="0" y="451" style="font-family: 'Lucida Grande', 'Open Sans', verdana, arial, sans-serif; font-size: 10px; fill: rgb(0, 0, 0); fill-opacity: 1; white-space: pre;" transform="translate(662.98,0)">60 bp</text></g><g class="xtick"><text text-anchor="middle" x="0" y="451" style="font-family: 'Lucida Grande', 'Open Sans', verdana, arial, sans-serif; font-size: 10px; fill: rgb(0, 0, 0); fill-opacity: 1; white-space: pre;" transform="translate(867.38,0)">80 bp</text></g><g class="xtick"><text text-anchor="middle" x="0" y="451" style="font-family: 'Lucida Grande', 'Open Sans', verdana, arial, sans-serif; font-size: 10px; fill: rgb(0, 0, 0); fill-opacity: 1; white-space: pre;" transform="translate(1071.78,0)">100 bp</text></g></g><g class="yaxislayer-above"><g class="ytick"><text text-anchor="end" x="54" y="3.5" transform="translate(0,435)" style="font-family: 'Lucida Grande', 'Open Sans', verdana, arial, sans-serif; font-size: 10px; fill: rgb(0, 0, 0); fill-opacity: 1; white-space: pre;">0</text></g><g class="ytick"><text text-anchor="end" x="54" y="3.5" style="font-family: 'Lucida Grande', 'Open Sans', verdana, arial, sans-serif; font-size: 10px; fill: rgb(0, 0, 0); fill-opacity: 1; white-space: pre;" transform="translate(0,364.89)">2k</text></g><g class="ytick"><text text-anchor="end" x="54" y="3.5" style="font-family: 'Lucida Grande', 'Open Sans', verdana, arial, sans-serif; font-size: 10px; fill: rgb(0, 0, 0); fill-opacity: 1; white-space: pre;" transform="translate(0,294.77)">4k</text></g><g class="ytick"><text text-anchor="end" x="54" y="3.5" style="font-family: 'Lucida Grande', 'Open Sans', verdana, arial, sans-serif; font-size: 10px; fill: rgb(0, 0, 0); fill-opacity: 1; white-space: pre;" transform="translate(0,224.66)">6k</text></g><g class="ytick"><text text-anchor="end" x="54" y="3.5" style="font-family: 'Lucida Grande', 'Open Sans', verdana, arial, sans-serif; font-size: 10px; fill: rgb(0, 0, 0); fill-opacity: 1; white-space: pre;" transform="translate(0,154.55)">8k</text></g><g class="ytick"><text text-anchor="end" x="54" y="3.5" style="font-family: 'Lucida Grande', 'Open Sans', verdana, arial, sans-serif; font-size: 10px; fill: rgb(0, 0, 0); fill-opacity: 1; white-space: pre;" transform="translate(0,84.44)">10k</text></g></g><g class="overaxes-above"/></g></g><g class="polarlayer"/><g class="smithlayer"/><g class="ternarylayer"/><g class="geolayer"/><g class="funnelarealayer"/><g class="pielayer"/><g class="iciclelayer"/><g class="treemaplayer"/><g class="sunburstlayer"/><g class="glimages"/><defs id="topdefs-4ae331"><g class="clips"/></defs><g class="layer-above"><g class="imagelayer"/><g class="shapelayer"/></g><g class="infolayer"><g class="g-gtitle"><text class="gtitle" x="550" y="25" text-anchor="middle" dy="0em" style="opacity: 1; font-family: 'Lucida Grande', 'Open Sans', verdana, arial, sans-serif; font-size: 20px; fill: rgb(68, 68, 68); fill-opacity: 1; white-space: pre;"><tspan class="line" dy="0em" x="550" y="25">Cutadapt: Lengths of Trimmed Sequences (3' end)</tspan><tspan class="line" dy="1.3em" x="550" y="25">​<tspan style="font-size:70%" dy="-0.6em">Obs/Exp, 16 lines</tspan><tspan dy="0.42em">​</tspan></tspan></text></g><g class="g-xtitle"><text class="xtitle" x="571" y="487" text-anchor="middle" style="opacity: 0.3; font-family: 'Lucida Grande', 'Open Sans', verdana, arial, sans-serif; font-size: 14px; fill: rgb(0, 0, 0); fill-opacity: 1; white-space: pre;">Length Trimmed (bp)</text></g><g class="g-ytitle"><text class="ytitle" transform="rotate(-90,22,242.5)" x="22" y="242.5" text-anchor="middle" style="opacity: 0.3; font-family: 'Lucida Grande', 'Open Sans', verdana, arial, sans-serif; font-size: 14px; fill: rgb(0, 0, 0); fill-opacity: 1; white-space: pre;">Observed / Expected</text></g></g></svg>