<svg class="main-svg" xmlns="http://www.w3.org/2000/svg" xmlns:xlink="http://www.w3.org/1999/xlink" width="2200" height="1000" style="" viewBox="0 0 1100 500"><rect x="0" y="0" width="1100" height="500" style="fill: rgb(255, 255, 255); fill-opacity: 1;"/><defs id="defs-bde2c2"><g class="clips"><clipPath id="clipbde2c2xyplot" class="plotclip"><rect width="1025" height="385"/></clipPath><clipPath class="axesclip" id="clipbde2c2x"><rect x="60" y="0" width="1025" height="500"/></clipPath><clipPath class="axesclip" id="clipbde2c2y"><rect x="0" y="50" width="1100" height="385"/></clipPath><clipPath class="axesclip" id="clipbde2c2xy"><rect x="60" y="50" width="1025" height="385"/></clipPath></g><g class="gradients"/><g class="patterns"/></defs><g class="bglayer"/><g class="layer-below"><g class="imagelayer"/><g class="shapelayer"><g class="shape-group" data-index="0" clip-path="url(#clipbde2c2y)"><path data-index="0" fill-rule="evenodd" d="M60,127.88H1085V-661.85H60Z" style="opacity: 0.13; stroke: rgb(0, 0, 0); stroke-opacity: 0; fill: rgb(0, 149, 0); fill-opacity: 1; stroke-width: 0px;"/></g><g class="shape-group" data-index="1" clip-path="url(#clipbde2c2y)"><path data-index="1" fill-rule="evenodd" d="M60,215.63H1085V127.88H60Z" style="opacity: 0.13; stroke: rgb(0, 0, 0); stroke-opacity: 0; fill: rgb(160, 115, 0); fill-opacity: 1; stroke-width: 0px;"/></g><g class="shape-group" data-index="2" clip-path="url(#clipbde2c2y)"><path data-index="2" fill-rule="evenodd" d="M60,435H1085V215.63H60Z" style="opacity: 0.13; stroke: rgb(0, 0, 0); stroke-opacity: 0; fill: rgb(153, 1, 1); fill-opacity: 1; stroke-width: 0px;"/></g><g class="shape-group" data-index="3" clip-path="url(#clipbde2c2y)"><path data-index="3" fill-rule="evenodd" d="M60,127.88H1085V-661.85H60Z" style="opacity: 0.13; stroke: rgb(0, 0, 0); stroke-opacity: 0; fill: rgb(0, 149, 0); fill-opacity: 1; stroke-width: 0px;"/></g><g class="shape-group" data-index="4" clip-path="url(#clipbde2c2y)"><path data-index="4" fill-rule="evenodd" d="M60,215.63H1085V127.88H60Z" style="opacity: 0.13; stroke: rgb(0, 0, 0); stroke-opacity: 0; fill: rgb(160, 115, 0); fill-opacity: 1; stroke-width: 0px;"/></g><g class="shape-group" data-index="5" clip-path="url(#clipbde2c2y)"><path data-index="5" fill-rule="evenodd" d="M60,435H1085V215.63H60Z" style="opacity: 0.13; stroke: rgb(0, 0, 0); stroke-opacity: 0; fill: rgb(153, 1, 1); fill-opacity: 1; stroke-width: 0px;"/></g></g></g><g class="cartesianlayer"><g class="subplot xy"><g class="layer-subplot"><g class="shapelayer"/><g class="imagelayer"/></g><g class="minor-gridlayer"><g class="x"/><g class="y"/></g><g class="gridlayer"><g class="x"><path class="xgrid crisp" transform="translate(265,0)" d="M0,50v385" style="stroke: rgb(0, 0, 0); stroke-opacity: 0.05; stroke-width: 1px;"/><path class="xgrid crisp" transform="translate(470,0)" d="M0,50v385" style="stroke: rgb(0, 0, 0); stroke-opacity: 0.05; stroke-width: 1px;"/><path class="xgrid crisp" transform="translate(675,0)" d="M0,50v385" style="stroke: rgb(0, 0, 0); stroke-opacity: 0.05; stroke-width: 1px;"/><path class="xgrid crisp" transform="translate(880,0)" d="M0,50v385" style="stroke: rgb(0, 0, 0); stroke-opacity: 0.05; stroke-width: 1px;"/></g><g class="y"><path class="ygrid crisp" transform="translate(0,380.16)" d="M60,0h1025" style="stroke: rgb(0, 0, 0); stroke-opacity: 0.05; stroke-width: 1px;"/><path class="ygrid crisp" transform="translate(0,325.31)" d="M60,0h1025" style="stroke: rgb(0, 0, 0); stroke-opacity: 0.05; stroke-width: 1px;"/><path class="ygrid crisp" transform="translate(0,270.47)" d="M60,0h1025" style="stroke: rgb(0, 0, 0); stroke-opacity: 0.05; stroke-width: 1px;"/><path class="ygrid crisp" transform="translate(0,215.63)" d="M60,0h1025" style="stroke: rgb(0, 0, 0); stroke-opacity: 0.05; stroke-width: 1px;"/><path class="ygrid crisp" transform="translate(0,160.79000000000002)" d="M60,0h1025" style="stroke: rgb(0, 0, 0); stroke-opacity: 0.05; stroke-width: 1px;"/><path class="ygrid crisp" transform="translate(0,105.94)" d="M60,0h1025" style="stroke: rgb(0, 0, 0); stroke-opacity: 0.05; stroke-width: 1px;"/><path class="ygrid crisp" transform="translate(0,51.1)" d="M60,0h1025" style="stroke: rgb(0, 0, 0); stroke-opacity: 0.05; stroke-width: 1px;"/></g></g><g class="zerolinelayer"><path class="xzl zl crisp" transform="translate(60,0)" d="M0,50v385" style="stroke: rgb(0, 0, 0); stroke-opacity: 0.05; stroke-width: 1px;"/><path class="yzl zl crisp" transform="translate(0,435)" d="M60,0h1025" style="stroke: rgb(0, 0, 0); stroke-opacity: 0.05; stroke-width: 1px;"/></g><g class="layer-between"><g class="shapelayer"/><g class="imagelayer"/></g><path class="xlines-below"/><path class="ylines-below"/><g class="overlines-below"/><g class="xaxislayer-below"/><g class="yaxislayer-below"/><g class="overaxes-below"/><g class="overplot"><g class="xy" transform="translate(60,50)" clip-path="url(#clipbde2c2xyplot)"><g class="scatterlayer mlayer"><g class="trace scatter tracebe9606" style="stroke-miterlimit: 2; opacity: 1;"><g class="fills"/><g class="errorbars"/><g class="lines"><path class="js-line" d="M10.25,27.72L20.5,23.32L30.75,25.15L41,20.92L51.25,21.87L82,22.24L92.25,21.68L102.5,22.63L123,23.26L184.5,22.85L205,23.37L287,21.03L307.5,21.08L369,20.53L389.5,20.58L697,21.46L717.5,21.53L943,22.38L963.5,22.43L984,23.5L1004.5,21.98L1025,18.61" style="vector-effect: none; fill: none; stroke: rgb(92, 184, 92); stroke-opacity: 1; stroke-width: 2px; opacity: 1;"/></g><g class="points"/><g class="text"/></g><g class="trace scatter trace343d9c" style="stroke-miterlimit: 2; opacity: 1;"><g class="fills"/><g class="errorbars"/><g class="lines"><path class="js-line" d="M10.25,22.17L20.5,21.52L30.75,24.63L41,22.43L51.25,23.91L61.5,24L71.75,22.19L92.25,21.81L102.5,23.31L123,22.39L143.5,22.59L246,23.77L266.5,22.24L389.5,22.33L410,22.29L451,23.13L471.5,22.54L635.5,22.97L656,22.94L1004.5,23.66L1025,19.94" style="vector-effect: none; fill: none; stroke: rgb(92, 184, 92); stroke-opacity: 1; stroke-width: 2px; opacity: 1;"/></g><g class="points"/><g class="text"/></g><g class="trace scatter traceb42f2d" style="stroke-miterlimit: 2; opacity: 1;"><g class="fills"/><g class="errorbars"/><g class="lines"><path class="js-line" d="M10.25,27.58L20.5,23.24L30.75,24.94L41,20.79L51.25,21.5L82,22.05L92.25,21.54L102.5,22.42L123,23.02L184.5,22.58L205,23.1L266.5,20.95L287,20.83L512.5,20.64L533,20.66L881.5,22.02L902,22.76L943,22.25L963.5,22.27L984,23.32L1004.5,21.81L1025,18.48" style="vector-effect: none; fill: none; stroke: rgb(92, 184, 92); stroke-opacity: 1; stroke-width: 2px; opacity: 1;"/></g><g class="points"/><g class="text"/></g><g class="trace scatter tracef14a87" style="stroke-miterlimit: 2; opacity: 1;"><g class="fills"/><g class="errorbars"/><g class="lines"><path class="js-line" d="M10.25,22.3L20.5,21.76L30.75,25.16L41,22.77L51.25,24.12L61.5,24.25L71.75,22.48L92.25,22.17L102.5,23.6L123,22.74L143.5,22.93L246,24.12L266.5,22.56L389.5,22.68L410,22.63L451,23.49L471.5,22.9L615,23.35L635.5,23.37L779,23.92L799.5,24.05L984,24.58L1004.5,24.13L1025,20.16" style="vector-effect: none; fill: none; stroke: rgb(92, 184, 92); stroke-opacity: 1; stroke-width: 2px; opacity: 1;"/></g><g class="points"/><g class="text"/></g><g class="trace scatter trace0e6f9b" style="stroke-miterlimit: 2; opacity: 1;"><g class="fills"/><g class="errorbars"/><g class="lines"><path class="js-line" d="M10.25,28.03L20.5,23.28L30.75,25.04L41,20.78L51.25,21.73L82,22.02L92.25,21.44L102.5,22.34L123,22.95L164,22.52L184.5,22.53L205,23.06L225.5,22.31L246,22.24L266.5,20.95L451,20.52L471.5,20.58L738,21.46L758.5,21.49L943,22.26L963.5,22.3L984,23.36L1004.5,21.85L1025,18.53" style="vector-effect: none; fill: none; stroke: rgb(92, 184, 92); stroke-opacity: 1; stroke-width: 2px; opacity: 1;"/></g><g class="points"/><g class="text"/></g><g class="trace scatter traced4155e" style="stroke-miterlimit: 2; opacity: 1;"><g class="fills"/><g class="errorbars"/><g class="lines"><path class="js-line" d="M10.25,22.9L20.5,21.65L30.75,25.01L41,22.39L51.25,23.98L61.5,23.88L71.75,22.19L92.25,21.82L102.5,23.27L123,22.35L143.5,22.53L246,23.65L266.5,22.18L451,23.12L471.5,22.54L635.5,22.96L656,22.95L1004.5,23.63L1025,19.91" style="vector-effect: none; fill: none; stroke: rgb(92, 184, 92); stroke-opacity: 1; stroke-width: 2px; opacity: 1;"/></g><g class="points"/><g class="text"/></g><g class="trace scatter trace27a3a0" style="stroke-miterlimit: 2; opacity: 1;"><g class="fills"/><g class="errorbars"/><g class="lines"><path class="js-line" d="M10.25,27.96L20.5,23.14L30.75,24.83L41,20.61L51.25,21.45L82,21.81L92.25,21.25L102.5,22.14L123,22.74L164,22.27L184.5,22.25L205,22.79L225.5,22.05L246,21.95L266.5,20.69L451,20.26L471.5,20.31L697,21.03L717.5,21.09L881.5,21.7L902,22.44L943,21.9L963.5,21.92L984,22.99L1004.5,21.49L1025,18.33" style="vector-effect: none; fill: none; stroke: rgb(92, 184, 92); stroke-opacity: 1; stroke-width: 2px; opacity: 1;"/></g><g class="points"/><g class="text"/></g><g class="trace scatter trace975d40" style="stroke-miterlimit: 2; opacity: 1;"><g class="fills"/><g class="errorbars"/><g class="lines"><path class="js-line" d="M10.25,22.72L20.5,21.67L30.75,25.02L41,22.42L51.25,23.97L61.5,23.95L71.75,22.2L92.25,21.79L102.5,23.29L123,22.38L143.5,22.58L246,23.73L266.5,22.24L389.5,22.33L410,22.31L451,23.1L471.5,22.53L635.5,23L656,22.99L1004.5,23.69L1025,19.95" style="vector-effect: none; fill: none; stroke: rgb(92, 184, 92); stroke-opacity: 1; stroke-width: 2px; opacity: 1;"/></g><g class="points"/><g class="text"/></g><g class="trace scatter trace0fd951" style="stroke-miterlimit: 2; opacity: 1;"><g class="fills"/><g class="errorbars"/><g class="lines"><path class="js-line" d="M10.25,27.66L20.5,23.44L30.75,25.2L41,21.05L51.25,21.92L82,22.49L92.25,21.98L102.5,23L123,23.65L184.5,23.26L205,23.78L287,21.33L307.5,21.4L369,20.81L389.5,20.84L779,21.94L799.5,22.04L881.5,22.46L902,23.17L943,22.63L963.5,22.69L984,23.77L1004.5,22.23L1025,18.78" style="vector-effect: none; fill: none; stroke: rgb(92, 184, 92); stroke-opacity: 1; stroke-width: 2px; opacity: 1;"/></g><g class="points"/><g class="text"/></g><g class="trace scatter trace52c11c" style="stroke-miterlimit: 2; opacity: 1;"><g class="fills"/><g class="errorbars"/><g class="lines"><path class="js-line" d="M10.25,21.65L20.5,20.99L30.75,24.09L41,21.85L51.25,23.31L61.5,23.42L71.75,21.68L92.25,21.34L102.5,22.85L123,21.97L143.5,22.19L246,23.36L266.5,21.86L389.5,21.94L410,21.91L451,22.73L471.5,22.14L615,22.59L635.5,22.59L799.5,23.2L820,23.31L1004.5,23.3L1025,19.8" style="vector-effect: none; fill: none; stroke: rgb(92, 184, 92); stroke-opacity: 1; stroke-width: 2px; opacity: 1;"/></g><g class="points"/><g class="text"/></g><g class="trace scatter tracee05c24" style="stroke-miterlimit: 2; opacity: 1;"><g class="fills"/><g class="errorbars"/><g class="lines"><path class="js-line" d="M10.25,27.89L20.5,23.52L30.75,25.26L41,21.05L51.25,21.85L82,22.33L92.25,21.79L102.5,22.72L123,23.35L184.5,22.9L205,23.42L287,21.07L307.5,21.13L369,20.58L389.5,20.63L697,21.51L717.5,21.59L963.5,22.49L984,23.55L1004.5,22.02L1025,18.61" style="vector-effect: none; fill: none; stroke: rgb(92, 184, 92); stroke-opacity: 1; stroke-width: 2px; opacity: 1;"/></g><g class="points"/><g class="text"/></g><g class="trace scatter tracee14acc" style="stroke-miterlimit: 2; opacity: 1;"><g class="fills"/><g class="errorbars"/><g class="lines"><path class="js-line" d="M10.25,21.87L20.5,21.41L30.75,24.78L41,22.35L51.25,23.88L61.5,23.98L71.75,22.08L92.25,21.79L102.5,23.33L123,22.45L143.5,22.68L246,23.83L266.5,22.27L389.5,22.37L410,22.34L451,23.17L471.5,22.57L615,22.98L635.5,23L779,23.51L799.5,23.6L984,24.1L1004.5,23.69L1025,19.94" style="vector-effect: none; fill: none; stroke: rgb(92, 184, 92); stroke-opacity: 1; stroke-width: 2px; opacity: 1;"/></g><g class="points"/><g class="text"/></g><g class="trace scatter trace6cbb70" style="stroke-miterlimit: 2; opacity: 1;"><g class="fills"/><g class="errorbars"/><g class="lines"><path class="js-line" d="M10.25,27.97L20.5,23.22L30.75,24.94L41,20.7L51.25,21.55L82,21.88L92.25,21.31L102.5,22.19L123,22.8L164,22.34L184.5,22.33L205,22.87L225.5,22.11L246,22.03L266.5,20.76L451,20.37L471.5,20.42L717.5,21.25L738,21.33L881.5,21.9L902,22.65L943,22.11L963.5,22.16L984,23.23L1004.5,21.69L1025,18.41" style="vector-effect: none; fill: none; stroke: rgb(92, 184, 92); stroke-opacity: 1; stroke-width: 2px; opacity: 1;"/></g><g class="points"/><g class="text"/></g><g class="trace scatter trace21851c" style="stroke-miterlimit: 2; opacity: 1;"><g class="fills"/><g class="errorbars"/><g class="lines"><path class="js-line" d="M10.25,22.62L20.5,21.91L30.75,25.07L41,22.8L51.25,24.18L61.5,24.23L71.75,22.51L92.25,22.11L102.5,23.58L123,22.69L143.5,22.9L246,24L266.5,22.48L389.5,22.6L410,22.57L451,23.4L471.5,22.82L615,23.24L635.5,23.26L779,23.78L799.5,23.89L984,24.37L1004.5,23.93L1025,20.07" style="vector-effect: none; fill: none; stroke: rgb(92, 184, 92); stroke-opacity: 1; stroke-width: 2px; opacity: 1;"/></g><g class="points"/><g class="text"/></g><g class="trace scatter traceb347a2" style="stroke-miterlimit: 2; opacity: 1;"><g class="fills"/><g class="errorbars"/><g class="lines"><path class="js-line" d="M10.25,27.97L20.5,23.24L30.75,24.99L41,20.75L51.25,21.59L82,21.96L92.25,21.37L102.5,22.26L123,22.84L164,22.39L184.5,22.4L205,22.91L225.5,22.17L246,22.07L266.5,20.8L471.5,20.43L492,20.46L881.5,21.86L902,22.57L943,22.04L963.5,22.07L984,23.12L1004.5,21.61L1025,18.36" style="vector-effect: none; fill: none; stroke: rgb(92, 184, 92); stroke-opacity: 1; stroke-width: 2px; opacity: 1;"/></g><g class="points"/><g class="text"/></g><g class="trace scatter traceefbec2" style="stroke-miterlimit: 2; opacity: 1;"><g class="fills"/><g class="errorbars"/><g class="lines"><path class="js-line" d="M10.25,22.73L20.5,21.8L30.75,25.1L41,22.72L51.25,24.09L61.5,24.1L71.75,22.36L92.25,22L102.5,23.44L123,22.54L143.5,22.69L246,23.77L266.5,22.28L389.5,22.42L410,22.39L451,23.21L471.5,22.63L635.5,23.05L656,23.02L1004.5,23.72L1025,19.95" style="vector-effect: none; fill: none; stroke: rgb(92, 184, 92); stroke-opacity: 1; stroke-width: 2px; opacity: 1;"/></g><g class="points"/><g class="text"/></g></g></g></g><g class="zerolinelayer-above"/><path class="xlines-above crisp" d="M0,0" style="fill: none;"/><path class="ylines-above crisp" d="M0,0" style="fill: none;"/><g class="overlines-above"/><g class="xaxislayer-above"><g class="xtick"><text text-anchor="middle" x="0" y="451" transform="translate(60,0)" style="font-family: 'Lucida Grande', 'Open Sans', verdana, arial, sans-serif; font-size: 10px; fill: rgb(0, 0, 0); fill-opacity: 1; white-space: pre;">0 bp</text></g><g class="xtick"><text text-anchor="middle" x="0" y="451" style="font-family: 'Lucida Grande', 'Open Sans', verdana, arial, sans-serif; font-size: 10px; fill: rgb(0, 0, 0); fill-opacity: 1; white-space: pre;" transform="translate(265,0)">20 bp</text></g><g class="xtick"><text text-anchor="middle" x="0" y="451" style="font-family: 'Lucida Grande', 'Open Sans', verdana, arial, sans-serif; font-size: 10px; fill: rgb(0, 0, 0); fill-opacity: 1; white-space: pre;" transform="translate(470,0)">40 bp</text></g><g class="xtick"><text text-anchor="middle" x="0" y="451" style="font-family: 'Lucida Grande', 'Open Sans', verdana, arial, sans-serif; font-size: 10px; fill: rgb(0, 0, 0); fill-opacity: 1; white-space: pre;" transform="translate(675,0)">60 bp</text></g><g class="xtick"><text text-anchor="middle" x="0" y="451" style="font-family: 'Lucida Grande', 'Open Sans', verdana, arial, sans-serif; font-size: 10px; fill: rgb(0, 0, 0); fill-opacity: 1; white-space: pre;" transform="translate(880,0)">80 bp</text></g><g class="xtick"/></g><g class="yaxislayer-above"><g class="ytick"><text text-anchor="end" x="54" y="3.5" transform="translate(0,435)" style="font-family: 'Lucida Grande', 'Open Sans', verdana, arial, sans-serif; font-size: 10px; fill: rgb(0, 0, 0); fill-opacity: 1; white-space: pre;">0</text></g><g class="ytick"><text text-anchor="end" x="54" y="3.5" style="font-family: 'Lucida Grande', 'Open Sans', verdana, arial, sans-serif; font-size: 10px; fill: rgb(0, 0, 0); fill-opacity: 1; white-space: pre;" transform="translate(0,380.16)">5</text></g><g class="ytick"><text text-anchor="end" x="54" y="3.5" style="font-family: 'Lucida Grande', 'Open Sans', verdana, arial, sans-serif; font-size: 10px; fill: rgb(0, 0, 0); fill-opacity: 1; white-space: pre;" transform="translate(0,325.31)">10</text></g><g class="ytick"><text text-anchor="end" x="54" y="3.5" style="font-family: 'Lucida Grande', 'Open Sans', verdana, arial, sans-serif; font-size: 10px; fill: rgb(0, 0, 0); fill-opacity: 1; white-space: pre;" transform="translate(0,270.47)">15</text></g><g class="ytick"><text text-anchor="end" x="54" y="3.5" style="font-family: 'Lucida Grande', 'Open Sans', verdana, arial, sans-serif; font-size: 10px; fill: rgb(0, 0, 0); fill-opacity: 1; white-space: pre;" transform="translate(0,215.63)">20</text></g><g class="ytick"><text text-anchor="end" x="54" y="3.5" style="font-family: 'Lucida Grande', 'Open Sans', verdana, arial, sans-serif; font-size: 10px; fill: rgb(0, 0, 0); fill-opacity: 1; white-space: pre;" transform="translate(0,160.79000000000002)">25</text></g><g class="ytick"><text text-anchor="end" x="54" y="3.5" style="font-family: 'Lucida Grande', 'Open Sans', verdana, arial, sans-serif; font-size: 10px; fill: rgb(0, 0, 0); fill-opacity: 1; white-space: pre;" transform="translate(0,105.94)">30</text></g><g class="ytick"><text text-anchor="end" x="54" y="3.5" style="font-family: 'Lucida Grande', 'Open Sans', verdana, arial, sans-serif; font-size: 10px; fill: rgb(0, 0, 0); fill-opacity: 1; white-space: pre;" transform="translate(0,51.1)">35</text></g></g><g class="overaxes-above"/></g></g><g class="polarlayer"/><g class="smithlayer"/><g class="ternarylayer"/><g class="geolayer"/><g class="funnelarealayer"/><g class="pielayer"/><g class="iciclelayer"/><g class="treemaplayer"/><g class="sunburstlayer"/><g class="glimages"/><defs id="topdefs-bde2c2"><g class="clips"/></defs><g class="layer-above"><g class="imagelayer"/><g class="shapelayer"/></g><g class="infolayer"><g class="g-gtitle"><text class="gtitle" x="550" y="25" text-anchor="middle" dy="0em" style="opacity: 1; font-family: 'Lucida Grande', 'Open Sans', verdana, arial, sans-serif; font-size: 20px; fill: rgb(68, 68, 68); fill-opacity: 1; white-space: pre;"><tspan class="line" dy="0em" x="550" y="25">FastQC: Mean Quality Scores</tspan><tspan class="line" dy="1.3em" x="550" y="25">​<tspan style="font-size:70%" dy="-0.6em">16 lines</tspan><tspan dy="0.42em">​</tspan></tspan></text></g><g class="g-xtitle"><text class="xtitle" x="572.5" y="487" text-anchor="middle" style="opacity: 0.3; font-family: 'Lucida Grande', 'Open Sans', verdana, arial, sans-serif; font-size: 14px; fill: rgb(0, 0, 0); fill-opacity: 1; white-space: pre;">Position (bp)</text></g><g class="g-ytitle"><text class="ytitle" transform="rotate(-90,22,242.5)" x="22" y="242.5" text-anchor="middle" style="opacity: 0.3; font-family: 'Lucida Grande', 'Open Sans', verdana, arial, sans-serif; font-size: 14px; fill: rgb(0, 0, 0); fill-opacity: 1; white-space: pre;">Phred Score</text></g></g></svg>