<svg class="main-svg" xmlns="http://www.w3.org/2000/svg" xmlns:xlink="http://www.w3.org/1999/xlink" width="2200" height="1000" style="" viewBox="0 0 1100 500"><rect x="0" y="0" width="1100" height="500" style="fill: rgb(255, 255, 255); fill-opacity: 1;"/><defs id="defs-44ec46"><g class="clips"><clipPath id="clip44ec46xyplot" class="plotclip"><rect width="1015" height="385"/></clipPath><clipPath class="axesclip" id="clip44ec46x"><rect x="60" y="0" width="1015" height="500"/></clipPath><clipPath class="axesclip" id="clip44ec46y"><rect x="0" y="50" width="1100" height="385"/></clipPath><clipPath class="axesclip" id="clip44ec46xy"><rect x="60" y="50" width="1015" height="385"/></clipPath></g><g class="gradients"/><g class="patterns"/></defs><g class="bglayer"/><g class="layer-below"><g class="imagelayer"/><g class="shapelayer"/></g><g class="cartesianlayer"><g class="subplot xy"><g class="layer-subplot"><g class="shapelayer"/><g class="imagelayer"/></g><g class="minor-gridlayer"><g class="x"/><g class="y"/></g><g class="gridlayer"><g class="x"><path class="xgrid crisp" transform="translate(263,0)" d="M0,50v385" style="stroke: rgb(0, 0, 0); stroke-opacity: 0.05; stroke-width: 1px;"/><path class="xgrid crisp" transform="translate(466,0)" d="M0,50v385" style="stroke: rgb(0, 0, 0); stroke-opacity: 0.05; stroke-width: 1px;"/><path class="xgrid crisp" transform="translate(669,0)" d="M0,50v385" style="stroke: rgb(0, 0, 0); stroke-opacity: 0.05; stroke-width: 1px;"/><path class="xgrid crisp" transform="translate(872,0)" d="M0,50v385" style="stroke: rgb(0, 0, 0); stroke-opacity: 0.05; stroke-width: 1px;"/></g><g class="y"><path class="ygrid crisp" transform="translate(0,344.21)" d="M60,0h1015" style="stroke: rgb(0, 0, 0); stroke-opacity: 0.05; stroke-width: 1px;"/><path class="ygrid crisp" transform="translate(0,253.43)" d="M60,0h1015" style="stroke: rgb(0, 0, 0); stroke-opacity: 0.05; stroke-width: 1px;"/><path class="ygrid crisp" transform="translate(0,162.64)" d="M60,0h1015" style="stroke: rgb(0, 0, 0); stroke-opacity: 0.05; stroke-width: 1px;"/><path class="ygrid crisp" transform="translate(0,71.86)" d="M60,0h1015" style="stroke: rgb(0, 0, 0); stroke-opacity: 0.05; stroke-width: 1px;"/></g></g><g class="zerolinelayer"><path class="xzl zl crisp" transform="translate(60,0)" d="M0,50v385" style="stroke: rgb(0, 0, 0); stroke-opacity: 0.05; stroke-width: 1px;"/><path class="yzl zl crisp" transform="translate(0,435)" d="M60,0h1015" style="stroke: rgb(0, 0, 0); stroke-opacity: 0.05; stroke-width: 1px;"/></g><g class="layer-between"><g class="shapelayer"/><g class="imagelayer"/></g><path class="xlines-below"/><path class="ylines-below"/><g class="overlines-below"/><g class="xaxislayer-below"/><g class="yaxislayer-below"/><g class="overaxes-below"/><g class="overplot"><g class="xy" transform="translate(60,50)" clip-path="url(#clip44ec46xyplot)"><g class="scatterlayer mlayer"><g class="trace scatter trace9eda3a" style="stroke-miterlimit: 2; opacity: 1;"><g class="fills"/><g class="errorbars"/><g class="lines"><path class="js-line" d="M0,384.98L233.45,384.49L243.6,384.23L263.9,383.11L274.05,381.98L284.2,380.25L294.35,377.7L304.5,374.02L314.65,368.84L324.8,361.4L334.95,351.55L345.1,339.21L355.25,323.07L365.4,302.34L375.55,278.21L395.85,223.36L406,194.78L416.15,166.99L426.3,141.97L436.45,120.92L446.6,104.53L456.75,95.73L466.9,95.57L477.05,102.21L487.2,113.81L497.35,129.72L507.5,147.54L527.8,182.57L537.95,198.48L548.1,213.77L558.25,227.12L568.4,239.9L578.55,251.42L588.7,260.57L598.85,267.91L609,271.88L619.15,273.75L639.45,275.45L649.6,275.91L669.9,277.24L680.05,279.2L690.2,282.94L700.35,287.76L720.65,300.52L730.8,307.93L751.1,322.89L761.25,331.56L781.55,348.23L791.7,355.3L812,366L822.15,370.32L842.45,376.34L852.6,379.34L862.75,381.84L872.9,383.25L893.2,384.35L903.35,384.59L964.25,384.95L974.4,384.95L1015,384.96" style="vector-effect: none; fill: none; stroke: rgb(217, 83, 79); stroke-opacity: 1; stroke-width: 2px; opacity: 1;"/></g><g class="points"/><g class="text"/></g><g class="trace scatter tracea3d1d3" style="stroke-miterlimit: 2; opacity: 1;"><g class="fills"/><g class="errorbars"/><g class="lines"><path class="js-line" d="M0,384.97L233.45,384.51L243.6,384.27L263.9,383.31L274.05,382.33L294.35,378.57L304.5,375.36L314.65,370.79L324.8,364.34L334.95,355.77L345.1,344.13L355.25,328.89L365.4,310.22L375.55,287.9L385.7,262.41L416.15,176.52L426.3,151.36L436.45,130.05L446.6,114.23L456.75,106.71L466.9,107.37L477.05,113.98L487.2,125.55L527.8,187.09L537.95,201.41L558.25,228.14L568.4,239.71L578.55,249.87L588.7,257.36L598.85,262.24L609,265.53L619.15,266.56L629.3,266.77L649.6,266.31L659.75,265.36L669.9,265.08L680.05,267.26L690.2,270.8L700.35,275.37L710.5,281.75L720.65,289.81L740.95,307.18L751.1,316.68L781.55,343.43L791.7,351.2L812,363.42L822.15,368.56L842.45,375.82L852.6,378.94L862.75,381.34L872.9,382.82L893.2,384.19L903.35,384.47L974.4,384.87L984.55,384.87L1004.85,384.7L1015,382.92" style="vector-effect: none; fill: none; stroke: rgb(217, 83, 79); stroke-opacity: 1; stroke-width: 2px; opacity: 1;"/></g><g class="points"/><g class="text"/></g><g class="trace scatter trace4734c8" style="stroke-miterlimit: 2; opacity: 1;"><g class="fills"/><g class="errorbars"/><g class="lines"><path class="js-line" d="M0,384.98L243.6,384.33L253.75,383.95L274.05,382.16L284.2,380.43L294.35,377.94L304.5,374.3L314.65,368.9L324.8,361.2L334.95,351.32L345.1,338.96L355.25,322.39L365.4,300.27L375.55,274.38L385.7,246.08L426.3,122.77L436.45,97.91L446.6,78.34L456.75,66.17L466.9,63.32L477.05,68.31L487.2,78.21L497.35,93.24L527.8,149.11L537.95,165.35L558.25,197.56L568.4,212.14L578.55,225.28L588.7,236.09L598.85,244.72L609,249.45L619.15,251.62L629.3,252.7L649.6,253.56L659.75,252.77L669.9,252.95L680.05,254.64L690.2,258.06L700.35,263.14L710.5,269.76L720.65,277.78L740.95,295.75L751.1,305.68L781.55,338.32L791.7,347.58L801.85,354.95L812,361.37L822.15,366.82L832.3,371.02L852.6,378.47L862.75,381.19L883.05,383.53L893.2,384.05L933.8,384.86L943.95,384.9L1015,384.95" style="vector-effect: none; fill: none; stroke: rgb(217, 83, 79); stroke-opacity: 1; stroke-width: 2px; opacity: 1;"/></g><g class="points"/><g class="text"/></g><g class="trace scatter traceff100e" style="stroke-miterlimit: 2; opacity: 1;"><g class="fills"/><g class="errorbars"/><g class="lines"><path class="js-line" d="M0,384.97L233.45,384.5L243.6,384.27L263.9,383.29L274.05,382.3L284.2,380.76L294.35,378.41L304.5,375.05L314.65,370.36L324.8,363.66L334.95,354.97L345.1,343.21L355.25,327.23L365.4,307.34L375.55,283.69L385.7,256.48L395.85,226.01L416.15,162.15L426.3,133.55L436.45,109.09L446.6,90.4L456.75,80.33L466.9,79.03L477.05,83.44L487.2,93.57L497.35,108.53L507.5,125.25L527.8,156.15L537.95,171.05L558.25,199.31L568.4,212.62L578.55,225.04L588.7,234.3L598.85,239.94L609,243.43L619.15,244.06L629.3,243.08L649.6,241.45L659.75,239.55L669.9,238.27L680.05,239.15L690.2,242.19L700.35,247.32L710.5,255L720.65,264.64L740.95,286.37L751.1,298.41L781.55,332.67L791.7,343.06L801.85,351.22L812,358.12L822.15,364.41L832.3,369.61L852.6,377.73L862.75,380.54L883.05,383.28L893.2,383.91L933.8,384.7L943.95,384.77L1004.85,384.67L1015,382.76" style="vector-effect: none; fill: none; stroke: rgb(217, 83, 79); stroke-opacity: 1; stroke-width: 2px; opacity: 1;"/></g><g class="points"/><g class="text"/></g><g class="trace scatter tracec87820" style="stroke-miterlimit: 2; opacity: 1;"><g class="fills"/><g class="errorbars"/><g class="lines"><path class="js-line" d="M0,384.97L233.45,384.45L243.6,384.16L263.9,382.79L274.05,381.4L284.2,379.22L294.35,375.95L304.5,371.16L314.65,364.23L324.8,354.42L334.95,341.97L345.1,326.31L355.25,305.72L365.4,279.08L375.55,248.22L395.85,179.81L406,143.86L416.15,108.76L426.3,77.45L436.45,52.31L446.6,33.5L456.75,22.6L466.9,22.31L477.05,31.08L487.2,45.6L497.35,65L507.5,86.25L527.8,128.01L537.95,146.94L558.25,183.14L568.4,200.06L578.55,214.9L588.7,227.42L598.85,238.33L609,244.03L629.3,249.68L639.45,252.07L649.6,253.89L659.75,254.33L680.05,257.6L690.2,260.49L700.35,265.69L710.5,272.57L730.8,288.89L740.95,298.24L761.25,318.97L771.4,329.64L781.55,339.88L791.7,348.82L801.85,356.03L812,362.26L822.15,367.66L832.3,371.96L852.6,378.93L862.75,381.33L883.05,383.52L893.2,384.01L933.8,384.83L943.95,384.87L1015,384.95" style="vector-effect: none; fill: none; stroke: rgb(217, 83, 79); stroke-opacity: 1; stroke-width: 2px; opacity: 1;"/></g><g class="points"/><g class="text"/></g><g class="trace scatter trace21c0c1" style="stroke-miterlimit: 2; opacity: 1;"><g class="fills"/><g class="errorbars"/><g class="lines"><path class="js-line" d="M0,384.96L223.3,384.6L233.45,384.42L263.9,382.94L274.05,381.65L284.2,379.67L294.35,376.71L304.5,372.32L314.65,366.21L324.8,357.68L334.95,346.61L345.1,331.61L355.25,312.02L365.4,287.81L375.55,258.89L385.7,226.61L395.85,191.21L416.15,120.09L426.3,89.15L436.45,63.68L446.6,45.43L456.75,36.56L466.9,37.01L477.05,43.86L487.2,58.02L507.5,97.77L517.65,115.71L548.1,167.78L558.25,183.61L578.55,213.2L588.7,224.81L598.85,232.99L609,238.5L619.15,240.13L629.3,240.38L649.6,242.26L659.75,241.49L669.9,240.62L680.05,241.41L690.2,244.92L700.35,250.4L710.5,257.8L720.65,267.4L740.95,289.59L751.1,301.91L781.55,335.45L791.7,345.34L801.85,352.95L812,359.48L832.3,370.63L842.45,374.91L852.6,378.32L862.75,380.87L883.05,383.39L893.2,383.99L933.8,384.72L943.95,384.76L1004.85,384.6L1015,382.12" style="vector-effect: none; fill: none; stroke: rgb(217, 83, 79); stroke-opacity: 1; stroke-width: 2px; opacity: 1;"/></g><g class="points"/><g class="text"/></g><g class="trace scatter trace69b058" style="stroke-miterlimit: 2; opacity: 1;"><g class="fills"/><g class="errorbars"/><g class="lines"><path class="js-line" d="M0,384.98L233.45,384.6L243.6,384.35L263.9,383.36L274.05,382.36L294.35,378.48L304.5,375.19L314.65,370.6L324.8,364.3L334.95,356.22L345.1,345.9L355.25,332.51L365.4,315.54L375.55,295.54L385.7,273.18L416.15,200.25L426.3,178.22L436.45,160.35L446.6,147.06L456.75,139.96L466.9,140.53L477.05,146.86L487.2,156.4L497.35,169.32L507.5,184.11L527.8,213.79L537.95,226.07L558.25,250.02L568.4,261.05L578.55,271.15L588.7,279.32L598.85,286L609,289.93L629.3,293.07L639.45,294.34L649.6,295.07L659.75,294.75L680.05,295.92L690.2,297.65L700.35,300.71L710.5,304.94L720.65,310.3L730.8,316.53L751.1,329.69L761.25,337.18L781.55,352.34L791.7,358.83L812,368.53L822.15,372.38L842.45,378.16L852.6,380.53L872.9,383.31L883.05,383.9L923.65,384.87L933.8,384.92L1015,384.97" style="vector-effect: none; fill: none; stroke: rgb(217, 83, 79); stroke-opacity: 1; stroke-width: 2px; opacity: 1;"/></g><g class="points"/><g class="text"/></g><g class="trace scatter trace158984" style="stroke-miterlimit: 2; opacity: 1;"><g class="fills"/><g class="errorbars"/><g class="lines"><path class="js-line" d="M0,384.98L243.6,384.3L253.75,383.91L274.05,382.32L284.2,380.75L294.35,378.57L304.5,375.45L314.65,371.27L324.8,365.63L334.95,358.31L345.1,348.6L355.25,335.84L365.4,320.05L375.55,300.99L385.7,279.38L416.15,207.31L426.3,185.76L436.45,168.1L446.6,155.76L456.75,149.84L466.9,150.85L477.05,156.68L487.2,166.56L507.5,193.57L517.65,206.64L537.95,230.07L548.1,240.6L578.55,271.16L588.7,278.13L598.85,282.65L609,285.64L619.15,286.84L629.3,287.05L649.6,286.81L659.75,285.86L669.9,284.98L680.05,285.11L690.2,287.04L700.35,290.61L710.5,295.51L720.65,301.6L730.8,308.48L740.95,316.45L771.4,341.01L781.55,349.08L791.7,356.24L801.85,362.02L822.15,371.18L832.3,374.83L852.6,380.15L862.75,381.89L883.05,383.77L893.2,384.22L943.95,384.83L954.1,384.86L1004.85,384.72L1015,383.01" style="vector-effect: none; fill: none; stroke: rgb(217, 83, 79); stroke-opacity: 1; stroke-width: 2px; opacity: 1;"/></g><g class="points"/><g class="text"/></g><g class="trace scatter traceea7310" style="stroke-miterlimit: 2; opacity: 1;"><g class="fills"/><g class="errorbars"/><g class="lines"><path class="js-line" d="M0,384.96L223.3,384.63L233.45,384.44L263.9,382.67L274.05,381.11L284.2,378.58L294.35,374.92L304.5,369.58L314.65,361.81L324.8,351.05L334.95,337.48L345.1,320.47L355.25,298.77L365.4,272.03L375.55,241.56L395.85,175.64L406,142.08L416.15,110.54L426.3,82.66L436.45,60.25L446.6,44.01L456.75,35.42L466.9,37.12L477.05,47.83L487.2,64.06L527.8,150.76L537.95,170.04L558.25,205.56L568.4,222.13L578.55,235.85L588.7,247.5L598.85,257.89L609,263.82L629.3,270.05L639.45,271.78L680.05,276.1L690.2,279.35L700.35,284.18L710.5,289.89L720.65,296.24L730.8,303.88L761.25,329.46L771.4,338.4L781.55,347.22L791.7,354.61L812,365.74L822.15,370.42L842.45,377L852.6,379.9L862.75,382L872.9,383.21L903.35,384.55L913.5,384.73L994.7,384.96L1004.85,384.96L1015,384.95" style="vector-effect: none; fill: none; stroke: rgb(217, 83, 79); stroke-opacity: 1; stroke-width: 2px; opacity: 1;"/></g><g class="points"/><g class="text"/></g><g class="trace scatter traced145d7" style="stroke-miterlimit: 2; opacity: 1;"><g class="fills"/><g class="errorbars"/><g class="lines"><path class="js-line" d="M0,384.94L213.15,384.7L223.3,384.59L253.75,383.55L263.9,382.66L274.05,381.15L284.2,378.86L294.35,375.41L304.5,370.38L314.65,363.31L324.8,353.43L334.95,340.95L345.1,324.64L355.25,303.82L365.4,279.28L375.55,250.82L385.7,219.66L416.15,120.05L426.3,92.73L436.45,69.87L446.6,53.99L456.75,47.57L466.9,50.06L477.05,60.3L487.2,76.69L507.5,116.82L517.65,135.18L548.1,189.82L558.25,206.48L568.4,221.81L578.55,234.97L588.7,245.44L598.85,253.13L609,258.46L619.15,261.4L639.45,263.34L649.6,263.28L669.9,262.97L680.05,264.23L690.2,267.4L700.35,272.31L710.5,278.53L720.65,285.74L740.95,304.03L751.1,314.12L781.55,342.67L791.7,350.75L812,363.19L822.15,368.44L832.3,372.77L842.45,376.14L862.75,381.44L872.9,382.84L903.35,384.41L913.5,384.59L994.7,384.83L1004.85,384.67L1015,382.53" style="vector-effect: none; fill: none; stroke: rgb(217, 83, 79); stroke-opacity: 1; stroke-width: 2px; opacity: 1;"/></g><g class="points"/><g class="text"/></g><g class="trace scatter trace4089ff" style="stroke-miterlimit: 2; opacity: 1;"><g class="fills"/><g class="errorbars"/><g class="lines"><path class="js-line" d="M0,384.97L223.3,384.58L233.45,384.36L253.75,383.46L263.9,382.47L274.05,380.95L284.2,378.63L294.35,375.28L304.5,370.54L314.65,363.77L324.8,354.35L334.95,342.61L345.1,327.87L355.25,308.64L365.4,284.3L375.55,255.88L385.7,224.53L416.15,121.43L426.3,90.73L436.45,65.66L446.6,46.49L456.75,35.94L466.9,35.65L477.05,43.83L487.2,58.12L507.5,99.8L517.65,121.34L527.8,142.01L537.95,160.69L558.25,195.44L568.4,211.33L578.55,224.77L588.7,235.87L598.85,245.13L609,249.83L629.3,254.26L639.45,255.62L680.05,256.77L690.2,259.78L700.35,264.79L710.5,271.4L720.65,278.66L730.8,287.28L751.1,306.58L761.25,317.45L781.55,338.71L791.7,347.76L812,361.62L822.15,367.21L842.45,375.35L852.6,378.75L862.75,381.29L872.9,382.78L903.35,384.46L913.5,384.69L984.55,384.96L994.7,384.96L1015,384.95" style="vector-effect: none; fill: none; stroke: rgb(217, 83, 79); stroke-opacity: 1; stroke-width: 2px; opacity: 1;"/></g><g class="points"/><g class="text"/></g><g class="trace scatter trace7044ce" style="stroke-miterlimit: 2; opacity: 1;"><g class="fills"/><g class="errorbars"/><g class="lines"><path class="js-line" d="M0,384.96L223.3,384.54L233.45,384.32L253.75,383.38L263.9,382.43L284.2,378.72L294.35,375.54L304.5,371.14L314.65,365.09L324.8,356.83L334.95,346.41L345.1,332.25L355.25,313.88L365.4,291.7L375.55,264.93L385.7,234.55L395.85,201.03L416.15,131.62L426.3,101.47L436.45,76.7L446.6,58.77L456.75,50.13L466.9,50.63L477.05,58.31L487.2,73L517.65,129.79L527.8,147.46L537.95,165.37L548.1,181.68L568.4,211.31L578.55,223.94L588.7,233.57L598.85,239.73L609,243.89L619.15,245.72L639.45,245.62L649.6,244.98L669.9,242.29L680.05,243.01L690.2,245.66L700.35,250.39L710.5,257.52L720.65,266.13L730.8,275.87L740.95,287.16L771.4,322.1L781.55,333.47L791.7,343.41L801.85,351.61L822.15,365.01L832.3,370.21L852.6,377.94L862.75,380.7L883.05,383.3L893.2,383.9L933.8,384.71L943.95,384.77L1004.85,384.63L1015,382.43" style="vector-effect: none; fill: none; stroke: rgb(217, 83, 79); stroke-opacity: 1; stroke-width: 2px; opacity: 1;"/></g><g class="points"/><g class="text"/></g><g class="trace scatter trace44b017" style="stroke-miterlimit: 2; opacity: 1;"><g class="fills"/><g class="errorbars"/><g class="lines"><path class="js-line" d="M0,384.97L233.45,384.45L243.6,384.12L263.9,382.69L274.05,381.16L284.2,378.75L294.35,375.22L304.5,370.2L314.65,363.02L324.8,352.98L334.95,340.48L345.1,324.5L355.25,303.43L365.4,277.24L375.55,247.11L385.7,214.09L395.85,178.13L416.15,106.14L426.3,74.68L436.45,49.16L446.6,29.86L456.75,19.25L466.9,19.52L477.05,28.26L487.2,43L507.5,85.41L517.65,107.51L527.8,129.06L537.95,148.08L558.25,184.25L568.4,201.03L578.55,215.38L588.7,226.88L598.85,236.7L609,241.83L629.3,246.29L639.45,247.57L659.75,247.07L669.9,246.83L680.05,246.68L690.2,248.88L700.35,253.36L710.5,259.68L720.65,267.67L730.8,277.27L751.1,299.17L761.25,311.23L781.55,334.89L791.7,344.64L812,359.85L822.15,365.91L842.45,374.77L852.6,378.33L862.75,380.93L872.9,382.48L903.35,384.37L913.5,384.65L984.55,384.95L994.7,384.95L1015,384.95" style="vector-effect: none; fill: none; stroke: rgb(217, 83, 79); stroke-opacity: 1; stroke-width: 2px; opacity: 1;"/></g><g class="points"/><g class="text"/></g><g class="trace scatter tracefb9b32" style="stroke-miterlimit: 2; opacity: 1;"><g class="fills"/><g class="errorbars"/><g class="lines"><path class="js-line" d="M0,384.96L223.3,384.58L233.45,384.38L253.75,383.5L263.9,382.61L274.05,381.14L284.2,378.84L294.35,375.44L304.5,370.63L314.65,364L324.8,355L334.95,343.65L345.1,328.32L355.25,308.22L365.4,284.15L375.55,255.63L385.7,223.36L416.15,116.19L426.3,84.92L436.45,59.78L446.6,42.46L456.75,34.08L466.9,34.43L477.05,42.09L487.2,57.19L517.65,116.36L527.8,134.75L548.1,169.99L558.25,185.89L568.4,201.11L578.55,214.78L588.7,225.04L598.85,231.66L609,236.07L619.15,237.89L639.45,237.65L649.6,236.48L669.9,233.17L680.05,232.71L690.2,234.75L700.35,239.19L710.5,246.02L720.65,254.95L730.8,265.83L740.95,278.72L761.25,305.19L771.4,317.54L781.55,330.15L791.7,341.01L801.85,349.7L812,357.18L822.15,363.75L832.3,369.39L842.45,373.88L852.6,377.48L862.75,380.32L872.9,382.09L893.2,383.77L903.35,384.19L954.1,384.78L964.25,384.81L1004.85,384.61L1015,382.3" style="vector-effect: none; fill: none; stroke: rgb(217, 83, 79); stroke-opacity: 1; stroke-width: 2px; opacity: 1;"/></g><g class="points"/><g class="text"/></g><g class="trace scatter tracea2c95a" style="stroke-miterlimit: 2; opacity: 1;"><g class="fills"/><g class="errorbars"/><g class="lines"><path class="js-line" d="M0,384.98L233.45,384.51L243.6,384.23L263.9,382.99L274.05,381.73L284.2,379.75L294.35,376.98L304.5,373.02L314.65,367.41L324.8,359.77L334.95,350.29L345.1,338.13L355.25,322.33L365.4,302.83L375.55,280.15L385.7,254.91L395.85,227.19L416.15,171.25L426.3,146.18L436.45,126.07L446.6,110.67L456.75,101.75L466.9,101L477.05,107.53L487.2,118.72L497.35,133.88L507.5,150.6L527.8,183.96L537.95,198.63L558.25,226.46L568.4,239.3L578.55,250.28L588.7,259.25L598.85,266.82L609,270.68L629.3,274.49L639.45,275.41L680.05,276.67L690.2,278.82L700.35,282.7L710.5,287.99L720.65,294.11L730.8,301.31L751.1,318.32L761.25,327.62L781.55,345.98L791.7,353.64L812,365.36L822.15,370.09L842.45,377.08L852.6,379.83L862.75,381.84L872.9,383.08L903.35,384.55L913.5,384.75L1004.85,384.96L1015,384.96" style="vector-effect: none; fill: none; stroke: rgb(217, 83, 79); stroke-opacity: 1; stroke-width: 2px; opacity: 1;"/></g><g class="points"/><g class="text"/></g><g class="trace scatter tracea5bdb0" style="stroke-miterlimit: 2; opacity: 1;"><g class="fills"/><g class="errorbars"/><g class="lines"><path class="js-line" d="M0,384.97L233.45,384.45L243.6,384.15L263.9,382.93L274.05,381.68L284.2,379.81L294.35,377.12L304.5,373.31L314.65,368.21L324.8,361.35L334.95,352.78L345.1,341.39L355.25,326.41L365.4,308.31L375.55,286.73L385.7,261.99L395.85,234.98L416.15,178.96L426.3,154.44L436.45,134.85L446.6,120.42L456.75,112.94L466.9,112.93L477.05,118.75L487.2,130.15L517.65,175.12L527.8,188.83L537.95,202.91L548.1,215.47L568.4,239.27L578.55,249.45L588.7,257.39L598.85,262.83L609,266.4L619.15,267.59L639.45,267.52L649.6,266.77L669.9,264.84L680.05,265.02L690.2,267.4L700.35,271.21L710.5,276.92L720.65,284.07L730.8,292.67L740.95,302.54L761.25,322.79L771.4,332.47L781.55,342.17L791.7,350.67L801.85,357.56L812,363.2L832.3,372.84L842.45,376.37L862.75,381.42L872.9,382.79L893.2,384.11L903.35,384.41L964.25,384.86L974.4,384.86L1004.85,384.7L1015,382.85" style="vector-effect: none; fill: none; stroke: rgb(217, 83, 79); stroke-opacity: 1; stroke-width: 2px; opacity: 1;"/></g><g class="points"/><g class="text"/></g></g></g></g><g class="zerolinelayer-above"/><path class="xlines-above crisp" d="M0,0" style="fill: none;"/><path class="ylines-above crisp" d="M0,0" style="fill: none;"/><g class="overlines-above"/><g class="xaxislayer-above"><g class="xtick"><text text-anchor="middle" x="0" y="451" transform="translate(60,0)" style="font-family: 'Lucida Grande', 'Open Sans', verdana, arial, sans-serif; font-size: 10px; fill: rgb(0, 0, 0); fill-opacity: 1; white-space: pre;">0%</text></g><g class="xtick"><text text-anchor="middle" x="0" y="451" style="font-family: 'Lucida Grande', 'Open Sans', verdana, arial, sans-serif; font-size: 10px; fill: rgb(0, 0, 0); fill-opacity: 1; white-space: pre;" transform="translate(263,0)">20%</text></g><g class="xtick"><text text-anchor="middle" x="0" y="451" style="font-family: 'Lucida Grande', 'Open Sans', verdana, arial, sans-serif; font-size: 10px; fill: rgb(0, 0, 0); fill-opacity: 1; white-space: pre;" transform="translate(466,0)">40%</text></g><g class="xtick"><text text-anchor="middle" x="0" y="451" style="font-family: 'Lucida Grande', 'Open Sans', verdana, arial, sans-serif; font-size: 10px; fill: rgb(0, 0, 0); fill-opacity: 1; white-space: pre;" transform="translate(669,0)">60%</text></g><g class="xtick"><text text-anchor="middle" x="0" y="451" style="font-family: 'Lucida Grande', 'Open Sans', verdana, arial, sans-serif; font-size: 10px; fill: rgb(0, 0, 0); fill-opacity: 1; white-space: pre;" transform="translate(872,0)">80%</text></g><g class="xtick"><text text-anchor="middle" x="0" y="451" style="font-family: 'Lucida Grande', 'Open Sans', verdana, arial, sans-serif; font-size: 10px; fill: rgb(0, 0, 0); fill-opacity: 1; white-space: pre;" transform="translate(1075,0)">100%</text></g></g><g class="yaxislayer-above"><g class="ytick"><text text-anchor="end" x="54" y="3.5" transform="translate(0,435)" style="font-family: 'Lucida Grande', 'Open Sans', verdana, arial, sans-serif; font-size: 10px; fill: rgb(0, 0, 0); fill-opacity: 1; white-space: pre;">0</text></g><g class="ytick"><text text-anchor="end" x="54" y="3.5" style="font-family: 'Lucida Grande', 'Open Sans', verdana, arial, sans-serif; font-size: 10px; fill: rgb(0, 0, 0); fill-opacity: 1; white-space: pre;" transform="translate(0,344.21)">0.5M</text></g><g class="ytick"><text text-anchor="end" x="54" y="3.5" style="font-family: 'Lucida Grande', 'Open Sans', verdana, arial, sans-serif; font-size: 10px; fill: rgb(0, 0, 0); fill-opacity: 1; white-space: pre;" transform="translate(0,253.43)">1M</text></g><g class="ytick"><text text-anchor="end" x="54" y="3.5" style="font-family: 'Lucida Grande', 'Open Sans', verdana, arial, sans-serif; font-size: 10px; fill: rgb(0, 0, 0); fill-opacity: 1; white-space: pre;" transform="translate(0,162.64)">1.5M</text></g><g class="ytick"><text text-anchor="end" x="54" y="3.5" style="font-family: 'Lucida Grande', 'Open Sans', verdana, arial, sans-serif; font-size: 10px; fill: rgb(0, 0, 0); fill-opacity: 1; white-space: pre;" transform="translate(0,71.86)">2M</text></g></g><g class="overaxes-above"/></g></g><g class="polarlayer"/><g class="smithlayer"/><g class="ternarylayer"/><g class="geolayer"/><g class="funnelarealayer"/><g class="pielayer"/><g class="iciclelayer"/><g class="treemaplayer"/><g class="sunburstlayer"/><g class="glimages"/><defs id="topdefs-44ec46"><g class="clips"/></defs><g class="layer-above"><g class="imagelayer"/><g class="shapelayer"/></g><g class="infolayer"><g class="g-gtitle"><text class="gtitle" x="550" y="25" text-anchor="middle" dy="0em" style="opacity: 1; font-family: 'Lucida Grande', 'Open Sans', verdana, arial, sans-serif; font-size: 20px; fill: rgb(68, 68, 68); fill-opacity: 1; white-space: pre;"><tspan class="line" dy="0em" x="550" y="25">FastQC: Per Sequence GC Content</tspan><tspan class="line" dy="1.3em" x="550" y="25">​<tspan style="font-size:70%" dy="-0.6em">Counts, 16 lines</tspan><tspan dy="0.42em">​</tspan></tspan></text></g><g class="g-xtitle"><text class="xtitle" x="567.5" y="487" text-anchor="middle" style="opacity: 0.3; font-family: 'Lucida Grande', 'Open Sans', verdana, arial, sans-serif; font-size: 14px; fill: rgb(0, 0, 0); fill-opacity: 1; white-space: pre;">% GC</text></g><g class="g-ytitle"><text class="ytitle" transform="rotate(-90,22,242.5)" x="22" y="242.5" text-anchor="middle" style="opacity: 0.3; font-family: 'Lucida Grande', 'Open Sans', verdana, arial, sans-serif; font-size: 14px; fill: rgb(0, 0, 0); fill-opacity: 1; white-space: pre;">Count</text></g></g></svg>