<svg class="main-svg" xmlns="http://www.w3.org/2000/svg" xmlns:xlink="http://www.w3.org/1999/xlink" width="2200" height="1000" style="" viewBox="0 0 1100 500"><rect x="0" y="0" width="1100" height="500" style="fill: rgb(255, 255, 255); fill-opacity: 1;"/><defs id="defs-6d64a5"><g class="clips"><clipPath id="clip6d64a5xyplot" class="plotclip"><rect width="1025" height="385"/></clipPath><clipPath class="axesclip" id="clip6d64a5x"><rect x="60" y="0" width="1025" height="500"/></clipPath><clipPath class="axesclip" id="clip6d64a5y"><rect x="0" y="50" width="1100" height="385"/></clipPath><clipPath class="axesclip" id="clip6d64a5xy"><rect x="60" y="50" width="1025" height="385"/></clipPath></g><g class="gradients"/><g class="patterns"/></defs><g class="bglayer"/><g class="layer-below"><g class="imagelayer"/><g class="shapelayer"><g class="shape-group" data-index="0" clip-path="url(#clip6d64a5y)"><path data-index="0" fill-rule="evenodd" d="M60,126.35H1085V-667.31H60Z" style="opacity: 0.13; stroke: rgb(0, 0, 0); stroke-opacity: 0; fill: rgb(0, 149, 0); fill-opacity: 1; stroke-width: 0px;"/></g><g class="shape-group" data-index="1" clip-path="url(#clip6d64a5y)"><path data-index="1" fill-rule="evenodd" d="M60,214.54H1085V126.35H60Z" style="opacity: 0.13; stroke: rgb(0, 0, 0); stroke-opacity: 0; fill: rgb(160, 115, 0); fill-opacity: 1; stroke-width: 0px;"/></g><g class="shape-group" data-index="2" clip-path="url(#clip6d64a5y)"><path data-index="2" fill-rule="evenodd" d="M60,435H1085V214.54H60Z" style="opacity: 0.13; stroke: rgb(0, 0, 0); stroke-opacity: 0; fill: rgb(153, 1, 1); fill-opacity: 1; stroke-width: 0px;"/></g><g class="shape-group" data-index="3" clip-path="url(#clip6d64a5y)"><path data-index="3" fill-rule="evenodd" d="M60,126.35H1085V-667.31H60Z" style="opacity: 0.13; stroke: rgb(0, 0, 0); stroke-opacity: 0; fill: rgb(0, 149, 0); fill-opacity: 1; stroke-width: 0px;"/></g><g class="shape-group" data-index="4" clip-path="url(#clip6d64a5y)"><path data-index="4" fill-rule="evenodd" d="M60,214.54H1085V126.35H60Z" style="opacity: 0.13; stroke: rgb(0, 0, 0); stroke-opacity: 0; fill: rgb(160, 115, 0); fill-opacity: 1; stroke-width: 0px;"/></g><g class="shape-group" data-index="5" clip-path="url(#clip6d64a5y)"><path data-index="5" fill-rule="evenodd" d="M60,435H1085V214.54H60Z" style="opacity: 0.13; stroke: rgb(0, 0, 0); stroke-opacity: 0; fill: rgb(153, 1, 1); fill-opacity: 1; stroke-width: 0px;"/></g></g></g><g class="cartesianlayer"><g class="subplot xy"><g class="layer-subplot"><g class="shapelayer"/><g class="imagelayer"/></g><g class="minor-gridlayer"><g class="x"/><g class="y"/></g><g class="gridlayer"><g class="x"><path class="xgrid crisp" transform="translate(265,0)" d="M0,50v385" style="stroke: rgb(0, 0, 0); stroke-opacity: 0.05; stroke-width: 1px;"/><path class="xgrid crisp" transform="translate(470,0)" d="M0,50v385" style="stroke: rgb(0, 0, 0); stroke-opacity: 0.05; stroke-width: 1px;"/><path class="xgrid crisp" transform="translate(675,0)" d="M0,50v385" style="stroke: rgb(0, 0, 0); stroke-opacity: 0.05; stroke-width: 1px;"/><path class="xgrid crisp" transform="translate(880,0)" d="M0,50v385" style="stroke: rgb(0, 0, 0); stroke-opacity: 0.05; stroke-width: 1px;"/></g><g class="y"><path class="ygrid crisp" transform="translate(0,379.88)" d="M60,0h1025" style="stroke: rgb(0, 0, 0); stroke-opacity: 0.05; stroke-width: 1px;"/><path class="ygrid crisp" transform="translate(0,324.77)" d="M60,0h1025" style="stroke: rgb(0, 0, 0); stroke-opacity: 0.05; stroke-width: 1px;"/><path class="ygrid crisp" transform="translate(0,269.65)" d="M60,0h1025" style="stroke: rgb(0, 0, 0); stroke-opacity: 0.05; stroke-width: 1px;"/><path class="ygrid crisp" transform="translate(0,214.54)" d="M60,0h1025" style="stroke: rgb(0, 0, 0); stroke-opacity: 0.05; stroke-width: 1px;"/><path class="ygrid crisp" transform="translate(0,159.42000000000002)" d="M60,0h1025" style="stroke: rgb(0, 0, 0); stroke-opacity: 0.05; stroke-width: 1px;"/><path class="ygrid crisp" transform="translate(0,104.31)" d="M60,0h1025" style="stroke: rgb(0, 0, 0); stroke-opacity: 0.05; stroke-width: 1px;"/></g></g><g class="zerolinelayer"><path class="xzl zl crisp" transform="translate(60,0)" d="M0,50v385" style="stroke: rgb(0, 0, 0); stroke-opacity: 0.05; stroke-width: 1px;"/><path class="yzl zl crisp" transform="translate(0,435)" d="M60,0h1025" style="stroke: rgb(0, 0, 0); stroke-opacity: 0.05; stroke-width: 1px;"/></g><g class="layer-between"><g class="shapelayer"/><g class="imagelayer"/></g><path class="xlines-below"/><path class="ylines-below"/><g class="overlines-below"/><g class="xaxislayer-below"/><g class="yaxislayer-below"/><g class="overaxes-below"/><g class="overplot"><g class="xy" transform="translate(60,50)" clip-path="url(#clip6d64a5xyplot)"><g class="scatterlayer mlayer"><g class="trace scatter trace06823e" style="stroke-miterlimit: 2; opacity: 1;"><g class="fills"/><g class="errorbars"/><g class="lines"><path class="js-line" d="M10.25,26.31L20.5,21.89L30.75,23.73L41,19.48L51.25,20.44L82,20.8L92.25,20.24L102.5,21.2L123,21.83L164,21.44L184.5,21.42L205,21.94L225.5,21.17L246,21.07L266.5,19.7L451,18.87L471.5,18.96L676.5,19.59L697,19.77L881.5,20.52L902,21.26L943,20.78L963.5,20.9L984,22.11L1004.5,21.16L1025,23.63" style="vector-effect: none; fill: none; stroke: rgb(92, 184, 92); stroke-opacity: 1; stroke-width: 2px; opacity: 1;"/></g><g class="points"/><g class="text"/></g><g class="trace scatter tracec424ed" style="stroke-miterlimit: 2; opacity: 1;"><g class="fills"/><g class="errorbars"/><g class="lines"><path class="js-line" d="M10.25,20.72L20.5,20.07L30.75,23.18L41,20.98L51.25,22.47L61.5,22.56L71.75,20.74L92.25,20.36L102.5,21.87L123,20.94L143.5,21.14L246,22.33L266.5,20.8L369,20.99L389.5,20.54L430.5,21.14L451,21.34L471.5,20.74L492,20.9L984,22.69L1004.5,22.86L1025,26.18" style="vector-effect: none; fill: none; stroke: rgb(92, 184, 92); stroke-opacity: 1; stroke-width: 2px; opacity: 1;"/></g><g class="points"/><g class="text"/></g><g class="trace scatter tracee2d42a" style="stroke-miterlimit: 2; opacity: 1;"><g class="fills"/><g class="errorbars"/><g class="lines"><path class="js-line" d="M10.25,26.21L20.5,21.85L30.75,23.56L41,19.4L51.25,20.11L82,20.66L92.25,20.14L102.5,21.03L123,21.63L184.5,21.19L205,21.72L266.5,19.55L287,19.44L348.5,18.96L369,18.57L861,20.2L881.5,20.34L902,21.1L922.5,20.52L963.5,20.71L984,21.91L1004.5,20.96L1025,23.37" style="vector-effect: none; fill: none; stroke: rgb(92, 184, 92); stroke-opacity: 1; stroke-width: 2px; opacity: 1;"/></g><g class="points"/><g class="text"/></g><g class="trace scatter tracedcaaec" style="stroke-miterlimit: 2; opacity: 1;"><g class="fills"/><g class="errorbars"/><g class="lines"><path class="js-line" d="M10.25,20.9L20.5,20.35L30.75,23.76L41,21.36L51.25,22.73L61.5,22.85L71.75,21.08L92.25,20.76L102.5,22.2L123,21.33L143.5,21.53L246,22.72L266.5,21.16L369,21.35L389.5,20.9L430.5,21.5L451,21.71L471.5,21.11L492,21.29L861,22.72L881.5,22.85L984,23.24L1004.5,23.43L1025,26.7" style="vector-effect: none; fill: none; stroke: rgb(92, 184, 92); stroke-opacity: 1; stroke-width: 2px; opacity: 1;"/></g><g class="points"/><g class="text"/></g><g class="trace scatter tracecc69d8" style="stroke-miterlimit: 2; opacity: 1;"><g class="fills"/><g class="errorbars"/><g class="lines"><path class="js-line" d="M10.25,26.69L20.5,21.92L30.75,23.69L41,19.41L51.25,20.36L82,20.65L92.25,20.07L102.5,20.99L123,21.59L164,21.18L184.5,21.17L205,21.7L225.5,20.95L246,20.88L266.5,19.58L451,18.72L471.5,18.85L635.5,19.34L656,19.44L881.5,20.38L902,21.15L943,20.67L963.5,20.77L984,21.98L1004.5,21.05L1025,23.47" style="vector-effect: none; fill: none; stroke: rgb(92, 184, 92); stroke-opacity: 1; stroke-width: 2px; opacity: 1;"/></g><g class="points"/><g class="text"/></g><g class="trace scatter trace47f01e" style="stroke-miterlimit: 2; opacity: 1;"><g class="fills"/><g class="errorbars"/><g class="lines"><path class="js-line" d="M10.25,21.52L20.5,20.27L30.75,23.64L41,21.01L51.25,22.61L61.5,22.5L71.75,20.81L92.25,20.44L102.5,21.9L123,20.97L143.5,21.15L246,22.27L266.5,20.8L369,20.98L389.5,20.55L430.5,21.15L451,21.33L492,20.9L512.5,20.96L861,22.21L881.5,22.33L1004.5,22.84L1025,26.09" style="vector-effect: none; fill: none; stroke: rgb(92, 184, 92); stroke-opacity: 1; stroke-width: 2px; opacity: 1;"/></g><g class="points"/><g class="text"/></g><g class="trace scatter trace346c1b" style="stroke-miterlimit: 2; opacity: 1;"><g class="fills"/><g class="errorbars"/><g class="lines"><path class="js-line" d="M10.25,26.47L20.5,21.63L30.75,23.33L41,19.09L51.25,19.94L82,20.3L92.25,19.73L102.5,20.63L123,21.23L164,20.77L184.5,20.74L205,21.29L225.5,20.54L246,20.44L266.5,19.17L471.5,18.56L492,18.54L881.5,20L902,20.77L943,20.27L963.5,20.35L984,21.55L1004.5,20.59L1025,22.97" style="vector-effect: none; fill: none; stroke: rgb(92, 184, 92); stroke-opacity: 1; stroke-width: 2px; opacity: 1;"/></g><g class="points"/><g class="text"/></g><g class="trace scatter traced7f4fd" style="stroke-miterlimit: 2; opacity: 1;"><g class="fills"/><g class="errorbars"/><g class="lines"><path class="js-line" d="M10.25,21.2L20.5,20.14L30.75,23.5L41,20.9L51.25,22.45L61.5,22.43L71.75,20.67L92.25,20.26L102.5,21.77L123,20.86L143.5,21.06L246,22.21L266.5,20.72L369,20.99L389.5,20.53L430.5,21.11L451,21.31L492,20.9L512.5,20.96L840.5,22.11L861,22.28L1004.5,22.92L1025,26.2" style="vector-effect: none; fill: none; stroke: rgb(92, 184, 92); stroke-opacity: 1; stroke-width: 2px; opacity: 1;"/></g><g class="points"/><g class="text"/></g><g class="trace scatter trace12ab14" style="stroke-miterlimit: 2; opacity: 1;"><g class="fills"/><g class="errorbars"/><g class="lines"><path class="js-line" d="M10.25,26.5L20.5,22.27L30.75,24.03L41,19.88L51.25,20.75L82,21.32L92.25,20.81L102.5,21.84L123,22.48L184.5,22.09L205,22.61L287,20.15L307.5,20.23L389.5,19.04L410,19.06L861,20.65L881.5,20.8L902,21.54L922.5,20.94L963.5,21.18L984,22.41L1004.5,21.44L1025,24.01" style="vector-effect: none; fill: none; stroke: rgb(92, 184, 92); stroke-opacity: 1; stroke-width: 2px; opacity: 1;"/></g><g class="points"/><g class="text"/></g><g class="trace scatter trace8b7c96" style="stroke-miterlimit: 2; opacity: 1;"><g class="fills"/><g class="errorbars"/><g class="lines"><path class="js-line" d="M10.25,20.44L20.5,19.78L30.75,22.89L41,20.64L51.25,22.11L61.5,22.22L71.75,20.47L92.25,20.13L102.5,21.66L123,20.77L143.5,20.99L246,22.17L266.5,20.66L369,20.61L389.5,20.15L430.5,20.75L451,20.94L471.5,20.35L492,20.53L963.5,22.17L984,22.3L1004.5,22.47L1025,25.76" style="vector-effect: none; fill: none; stroke: rgb(92, 184, 92); stroke-opacity: 1; stroke-width: 2px; opacity: 1;"/></g><g class="points"/><g class="text"/></g><g class="trace scatter tracef2cae7" style="stroke-miterlimit: 2; opacity: 1;"><g class="fills"/><g class="errorbars"/><g class="lines"><path class="js-line" d="M10.25,26.49L20.5,22.1L30.75,23.84L41,19.62L51.25,20.43L82,20.91L92.25,20.36L102.5,21.3L123,21.93L184.5,21.48L205,22L287,19.64L307.5,19.7L389.5,18.82L410,18.83L861,20.42L881.5,20.57L902,21.3L922.5,20.71L963.5,20.94L984,22.14L1004.5,21.18L1025,23.64" style="vector-effect: none; fill: none; stroke: rgb(92, 184, 92); stroke-opacity: 1; stroke-width: 2px; opacity: 1;"/></g><g class="points"/><g class="text"/></g><g class="trace scatter trace28d525" style="stroke-miterlimit: 2; opacity: 1;"><g class="fills"/><g class="errorbars"/><g class="lines"><path class="js-line" d="M10.25,20.42L20.5,19.97L30.75,23.35L41,20.91L51.25,22.45L61.5,22.54L71.75,20.64L92.25,20.35L102.5,21.9L123,21.01L143.5,21.24L246,22.4L266.5,20.83L369,21.02L389.5,20.58L430.5,21.19L451,21.39L471.5,20.78L492,20.94L984,22.74L1004.5,22.92L1025,26.2" style="vector-effect: none; fill: none; stroke: rgb(92, 184, 92); stroke-opacity: 1; stroke-width: 2px; opacity: 1;"/></g><g class="points"/><g class="text"/></g><g class="trace scatter trace45eb62" style="stroke-miterlimit: 2; opacity: 1;"><g class="fills"/><g class="errorbars"/><g class="lines"><path class="js-line" d="M10.25,26.88L20.5,22.13L30.75,23.85L41,19.59L51.25,20.44L82,20.78L92.25,20.2L102.5,21.1L123,21.7L164,21.26L184.5,21.23L205,21.77L225.5,21.01L246,20.93L266.5,19.66L348.5,19.12L369,18.43L861,20.09L881.5,20.24L902,21.01L922.5,20.41L963.5,20.64L984,21.87L1004.5,20.9L1025,23.28" style="vector-effect: none; fill: none; stroke: rgb(92, 184, 92); stroke-opacity: 1; stroke-width: 2px; opacity: 1;"/></g><g class="points"/><g class="text"/></g><g class="trace scatter trace9324ca" style="stroke-miterlimit: 2; opacity: 1;"><g class="fills"/><g class="errorbars"/><g class="lines"><path class="js-line" d="M10.25,21.49L20.5,20.78L30.75,23.95L41,21.68L51.25,23.06L61.5,23.11L71.75,21.39L92.25,20.98L102.5,22.46L123,21.56L143.5,21.78L246,22.88L266.5,21.36L348.5,21.37L369,21.26L410,20.78L430.5,21.43L451,21.62L471.5,21.03L615,21.48L635.5,21.51L758.5,21.97L779,22.18L1004.5,23.24L1025,26.52" style="vector-effect: none; fill: none; stroke: rgb(92, 184, 92); stroke-opacity: 1; stroke-width: 2px; opacity: 1;"/></g><g class="points"/><g class="text"/></g><g class="trace scatter trace5039bf" style="stroke-miterlimit: 2; opacity: 1;"><g class="fills"/><g class="errorbars"/><g class="lines"><path class="js-line" d="M10.25,26.45L20.5,21.7L30.75,23.46L41,19.2L51.25,20.04L82,20.41L92.25,19.82L102.5,20.71L123,21.3L164,20.85L184.5,20.86L205,21.37L225.5,20.62L246,20.53L266.5,19.25L471.5,18.7L492,18.7L963.5,20.53L984,21.72L1004.5,20.76L1025,23.12" style="vector-effect: none; fill: none; stroke: rgb(92, 184, 92); stroke-opacity: 1; stroke-width: 2px; opacity: 1;"/></g><g class="points"/><g class="text"/></g><g class="trace scatter traceabc842" style="stroke-miterlimit: 2; opacity: 1;"><g class="fills"/><g class="errorbars"/><g class="lines"><path class="js-line" d="M10.25,21.18L20.5,20.24L30.75,23.56L41,21.17L51.25,22.55L61.5,22.55L71.75,20.81L92.25,20.45L102.5,21.89L123,20.99L143.5,21.14L246,22.23L266.5,20.73L369,21.06L389.5,20.64L430.5,21.23L451,21.43L492,20.99L512.5,21.04L840.5,22.14L861,22.31L1004.5,22.98L1025,26.27" style="vector-effect: none; fill: none; stroke: rgb(92, 184, 92); stroke-opacity: 1; stroke-width: 2px; opacity: 1;"/></g><g class="points"/><g class="text"/></g></g></g></g><g class="zerolinelayer-above"/><path class="xlines-above crisp" d="M0,0" style="fill: none;"/><path class="ylines-above crisp" d="M0,0" style="fill: none;"/><g class="overlines-above"/><g class="xaxislayer-above"><g class="xtick"><text text-anchor="middle" x="0" y="451" transform="translate(60,0)" style="font-family: 'Lucida Grande', 'Open Sans', verdana, arial, sans-serif; font-size: 10px; fill: rgb(0, 0, 0); fill-opacity: 1; white-space: pre;">0 bp</text></g><g class="xtick"><text text-anchor="middle" x="0" y="451" style="font-family: 'Lucida Grande', 'Open Sans', verdana, arial, sans-serif; font-size: 10px; fill: rgb(0, 0, 0); fill-opacity: 1; white-space: pre;" transform="translate(265,0)">20 bp</text></g><g class="xtick"><text text-anchor="middle" x="0" y="451" style="font-family: 'Lucida Grande', 'Open Sans', verdana, arial, sans-serif; font-size: 10px; fill: rgb(0, 0, 0); fill-opacity: 1; white-space: pre;" transform="translate(470,0)">40 bp</text></g><g class="xtick"><text text-anchor="middle" x="0" y="451" style="font-family: 'Lucida Grande', 'Open Sans', verdana, arial, sans-serif; font-size: 10px; fill: rgb(0, 0, 0); fill-opacity: 1; white-space: pre;" transform="translate(675,0)">60 bp</text></g><g class="xtick"><text text-anchor="middle" x="0" y="451" style="font-family: 'Lucida Grande', 'Open Sans', verdana, arial, sans-serif; font-size: 10px; fill: rgb(0, 0, 0); fill-opacity: 1; white-space: pre;" transform="translate(880,0)">80 bp</text></g><g class="xtick"/></g><g class="yaxislayer-above"><g class="ytick"><text text-anchor="end" x="54" y="3.5" transform="translate(0,435)" style="font-family: 'Lucida Grande', 'Open Sans', verdana, arial, sans-serif; font-size: 10px; fill: rgb(0, 0, 0); fill-opacity: 1; white-space: pre;">0</text></g><g class="ytick"><text text-anchor="end" x="54" y="3.5" style="font-family: 'Lucida Grande', 'Open Sans', verdana, arial, sans-serif; font-size: 10px; fill: rgb(0, 0, 0); fill-opacity: 1; white-space: pre;" transform="translate(0,379.88)">5</text></g><g class="ytick"><text text-anchor="end" x="54" y="3.5" style="font-family: 'Lucida Grande', 'Open Sans', verdana, arial, sans-serif; font-size: 10px; fill: rgb(0, 0, 0); fill-opacity: 1; white-space: pre;" transform="translate(0,324.77)">10</text></g><g class="ytick"><text text-anchor="end" x="54" y="3.5" style="font-family: 'Lucida Grande', 'Open Sans', verdana, arial, sans-serif; font-size: 10px; fill: rgb(0, 0, 0); fill-opacity: 1; white-space: pre;" transform="translate(0,269.65)">15</text></g><g class="ytick"><text text-anchor="end" x="54" y="3.5" style="font-family: 'Lucida Grande', 'Open Sans', verdana, arial, sans-serif; font-size: 10px; fill: rgb(0, 0, 0); fill-opacity: 1; white-space: pre;" transform="translate(0,214.54)">20</text></g><g class="ytick"><text text-anchor="end" x="54" y="3.5" style="font-family: 'Lucida Grande', 'Open Sans', verdana, arial, sans-serif; font-size: 10px; fill: rgb(0, 0, 0); fill-opacity: 1; white-space: pre;" transform="translate(0,159.42000000000002)">25</text></g><g class="ytick"><text text-anchor="end" x="54" y="3.5" style="font-family: 'Lucida Grande', 'Open Sans', verdana, arial, sans-serif; font-size: 10px; fill: rgb(0, 0, 0); fill-opacity: 1; white-space: pre;" transform="translate(0,104.31)">30</text></g></g><g class="overaxes-above"/></g></g><g class="polarlayer"/><g class="smithlayer"/><g class="ternarylayer"/><g class="geolayer"/><g class="funnelarealayer"/><g class="pielayer"/><g class="iciclelayer"/><g class="treemaplayer"/><g class="sunburstlayer"/><g class="glimages"/><defs id="topdefs-6d64a5"><g class="clips"/></defs><g class="layer-above"><g class="imagelayer"/><g class="shapelayer"/></g><g class="infolayer"><g class="g-gtitle"><text class="gtitle" x="550" y="25" text-anchor="middle" dy="0em" style="opacity: 1; font-family: 'Lucida Grande', 'Open Sans', verdana, arial, sans-serif; font-size: 20px; fill: rgb(68, 68, 68); fill-opacity: 1; white-space: pre;"><tspan class="line" dy="0em" x="550" y="25">FastQC: Mean Quality Scores</tspan><tspan class="line" dy="1.3em" x="550" y="25">​<tspan style="font-size:70%" dy="-0.6em">16 lines</tspan><tspan dy="0.42em">​</tspan></tspan></text></g><g class="g-xtitle"><text class="xtitle" x="572.5" y="487" text-anchor="middle" style="opacity: 0.3; font-family: 'Lucida Grande', 'Open Sans', verdana, arial, sans-serif; font-size: 14px; fill: rgb(0, 0, 0); fill-opacity: 1; white-space: pre;">Position (bp)</text></g><g class="g-ytitle"><text class="ytitle" transform="rotate(-90,22,242.5)" x="22" y="242.5" text-anchor="middle" style="opacity: 0.3; font-family: 'Lucida Grande', 'Open Sans', verdana, arial, sans-serif; font-size: 14px; fill: rgb(0, 0, 0); fill-opacity: 1; white-space: pre;">Phred Score</text></g></g></svg>