<svg class="main-svg" xmlns="http://www.w3.org/2000/svg" xmlns:xlink="http://www.w3.org/1999/xlink" width="2200" height="1000" style="" viewBox="0 0 1100 500"><rect x="0" y="0" width="1100" height="500" style="fill: rgb(255, 255, 255); fill-opacity: 1;"/><defs id="defs-81875d"><g class="clips"><clipPath id="clip81875dxyplot" class="plotclip"><rect width="1015" height="385"/></clipPath><clipPath class="axesclip" id="clip81875dx"><rect x="60" y="0" width="1015" height="500"/></clipPath><clipPath class="axesclip" id="clip81875dy"><rect x="0" y="50" width="1100" height="385"/></clipPath><clipPath class="axesclip" id="clip81875dxy"><rect x="60" y="50" width="1015" height="385"/></clipPath></g><g class="gradients"/><g class="patterns"/></defs><g class="bglayer"/><g class="layer-below"><g class="imagelayer"/><g class="shapelayer"/></g><g class="cartesianlayer"><g class="subplot xy"><g class="layer-subplot"><g class="shapelayer"/><g class="imagelayer"/></g><g class="minor-gridlayer"><g class="x"/><g class="y"/></g><g class="gridlayer"><g class="x"><path class="xgrid crisp" transform="translate(263,0)" d="M0,50v385" style="stroke: rgb(0, 0, 0); stroke-opacity: 0.05; stroke-width: 1px;"/><path class="xgrid crisp" transform="translate(466,0)" d="M0,50v385" style="stroke: rgb(0, 0, 0); stroke-opacity: 0.05; stroke-width: 1px;"/><path class="xgrid crisp" transform="translate(669,0)" d="M0,50v385" style="stroke: rgb(0, 0, 0); stroke-opacity: 0.05; stroke-width: 1px;"/><path class="xgrid crisp" transform="translate(872,0)" d="M0,50v385" style="stroke: rgb(0, 0, 0); stroke-opacity: 0.05; stroke-width: 1px;"/></g><g class="y"><path class="ygrid crisp" transform="translate(0,343.99)" d="M60,0h1015" style="stroke: rgb(0, 0, 0); stroke-opacity: 0.05; stroke-width: 1px;"/><path class="ygrid crisp" transform="translate(0,252.99)" d="M60,0h1015" style="stroke: rgb(0, 0, 0); stroke-opacity: 0.05; stroke-width: 1px;"/><path class="ygrid crisp" transform="translate(0,161.98000000000002)" d="M60,0h1015" style="stroke: rgb(0, 0, 0); stroke-opacity: 0.05; stroke-width: 1px;"/><path class="ygrid crisp" transform="translate(0,70.97)" d="M60,0h1015" style="stroke: rgb(0, 0, 0); stroke-opacity: 0.05; stroke-width: 1px;"/></g></g><g class="zerolinelayer"><path class="xzl zl crisp" transform="translate(60,0)" d="M0,50v385" style="stroke: rgb(0, 0, 0); stroke-opacity: 0.05; stroke-width: 1px;"/><path class="yzl zl crisp" transform="translate(0,435)" d="M60,0h1015" style="stroke: rgb(0, 0, 0); stroke-opacity: 0.05; stroke-width: 1px;"/></g><g class="layer-between"><g class="shapelayer"/><g class="imagelayer"/></g><path class="xlines-below"/><path class="ylines-below"/><g class="overlines-below"/><g class="xaxislayer-below"/><g class="yaxislayer-below"/><g class="overaxes-below"/><g class="overplot"><g class="xy" transform="translate(60,50)" clip-path="url(#clip81875dxyplot)"><g class="scatterlayer mlayer"><g class="trace scatter trace63d51e" style="stroke-miterlimit: 2; opacity: 1;"><g class="fills"/><g class="errorbars"/><g class="lines"><path class="js-line" d="M0,377.87L20.3,384.99L30.45,384.99L233.45,384.51L243.6,384.26L263.9,383.18L274.05,382.1L284.2,380.44L294.35,377.96L304.5,374.39L314.65,369.34L324.8,362.2L334.95,352.55L345.1,340.25L355.25,324.49L365.4,304.24L375.55,280.48L385.7,254.24L395.85,225.87L416.15,169.62L426.3,144.25L436.45,122.39L446.6,105.66L456.75,96.31L466.9,95.46L477.05,101.68L487.2,112.25L497.35,127.41L507.5,145.69L517.65,164.56L527.8,181.26L548.1,212.88L558.25,225.72L578.55,250.54L588.7,259.66L598.85,267.39L609,271.5L619.15,273.48L629.3,274.69L669.9,276.73L680.05,278.83L690.2,282.44L700.35,287.01L720.65,299.95L730.8,307.14L751.1,322.05L761.25,330.67L781.55,347.61L791.7,354.8L812,365.63L822.15,369.98L842.45,376.11L852.6,379.04L862.75,381.62L872.9,383.18L893.2,384.32L903.35,384.57L964.25,384.95L974.4,384.96L1015,384.96" style="vector-effect: none; fill: none; stroke: rgb(217, 83, 79); stroke-opacity: 1; stroke-width: 2px; opacity: 1;"/></g><g class="points"/><g class="text"/></g><g class="trace scatter trace001054" style="stroke-miterlimit: 2; opacity: 1;"><g class="fills"/><g class="errorbars"/><g class="lines"><path class="js-line" d="M0,378.18L20.3,384.98L30.45,384.98L243.6,384.3L253.75,383.93L274.05,382.42L284.2,380.94L294.35,378.78L304.5,375.67L314.65,371.22L324.8,364.88L334.95,356.45L345.1,345.04L355.25,329.99L365.4,311.47L375.55,289.41L385.7,264.24L416.15,178.35L426.3,153.13L436.45,131.45L446.6,115.01L456.75,106.69L466.9,107.01L477.05,113.56L487.2,124.58L497.35,139.27L507.5,156.07L517.65,172.2L527.8,186.64L548.1,214.35L558.25,227.23L568.4,239.12L578.55,249.33L588.7,256.93L598.85,262.05L609,264.99L619.15,265.67L639.45,266.85L649.6,266.59L669.9,265.21L680.05,267.25L700.35,274.89L710.5,281.24L730.8,297.62L740.95,306.4L781.55,342.43L791.7,350.39L801.85,357.05L812,362.79L822.15,368.04L832.3,372.05L852.6,378.65L862.75,381.14L883.05,383.62L893.2,384.15L933.8,384.77L943.95,384.82L1004.85,384.78L1015,383.02" style="vector-effect: none; fill: none; stroke: rgb(217, 83, 79); stroke-opacity: 1; stroke-width: 2px; opacity: 1;"/></g><g class="points"/><g class="text"/></g><g class="trace scatter traceb43862" style="stroke-miterlimit: 2; opacity: 1;"><g class="fills"/><g class="errorbars"/><g class="lines"><path class="js-line" d="M0,375.82L20.3,384.99L30.45,384.99L233.45,384.58L243.6,384.37L263.9,383.35L274.05,382.29L294.35,378.19L304.5,374.68L314.65,369.45L324.8,361.97L334.95,352.28L345.1,340.06L355.25,323.93L365.4,302.31L375.55,276.79L385.7,248.7L426.3,125.34L436.45,99.74L446.6,79.63L456.75,66.95L466.9,63.65L477.05,67.78L487.2,76.71L497.35,91.11L507.5,109.44L517.65,129.73L527.8,147.6L537.95,163.85L548.1,180.9L558.25,196L568.4,210.79L578.55,224.19L588.7,235.01L598.85,244.01L609,248.78L619.15,251.1L629.3,252.41L639.45,252.95L649.6,253.36L659.75,252.43L669.9,252.43L680.05,254.46L690.2,257.63L700.35,262.48L710.5,269.09L720.65,277.07L740.95,294.97L751.1,304.73L781.55,337.47L791.7,346.89L812,360.85L822.15,366.34L842.45,374.48L852.6,378.13L862.75,380.97L872.9,382.6L893.2,384.02L903.35,384.38L954.1,384.93L964.25,384.94L1015,384.95" style="vector-effect: none; fill: none; stroke: rgb(217, 83, 79); stroke-opacity: 1; stroke-width: 2px; opacity: 1;"/></g><g class="points"/><g class="text"/></g><g class="trace scatter trace605e1a" style="stroke-miterlimit: 2; opacity: 1;"><g class="fills"/><g class="errorbars"/><g class="lines"><path class="js-line" d="M0,376.22L20.3,384.98L30.45,384.98L243.6,384.31L253.75,383.96L274.05,382.39L284.2,380.9L294.35,378.64L304.5,375.38L314.65,370.79L324.8,364.25L334.95,355.7L345.1,344.13L355.25,328.44L365.4,308.73L375.55,285.29L385.7,258.43L406,195.91L416.15,164.17L426.3,135.43L436.45,110.78L446.6,91.49L456.75,80.49L466.9,78.79L477.05,83.28L487.2,92.94L497.35,106.86L517.65,140.63L527.8,155.67L548.1,184.5L558.25,198.31L578.55,224.44L588.7,233.78L598.85,239.86L609,243.74L619.15,243.8L629.3,242.15L649.6,241.8L659.75,240.03L669.9,238.55L680.05,239.3L690.2,242.1L700.35,246.84L710.5,254.32L720.65,263.64L740.95,285.32L751.1,296.97L781.55,331.33L791.7,342.01L801.85,350.41L812,357.35L822.15,363.74L832.3,369.04L852.6,377.39L862.75,380.31L883.05,383.2L893.2,383.86L933.8,384.7L943.95,384.77L1004.85,384.76L1015,382.87" style="vector-effect: none; fill: none; stroke: rgb(217, 83, 79); stroke-opacity: 1; stroke-width: 2px; opacity: 1;"/></g><g class="points"/><g class="text"/></g><g class="trace scatter trace47f9bc" style="stroke-miterlimit: 2; opacity: 1;"><g class="fills"/><g class="errorbars"/><g class="lines"><path class="js-line" d="M0,374.35L20.3,384.99L30.45,384.99L233.45,384.48L243.6,384.2L263.9,382.89L274.05,381.55L284.2,379.45L294.35,376.29L304.5,371.64L314.65,364.93L324.8,355.46L334.95,343.14L345.1,327.64L355.25,307.6L365.4,281.46L375.55,251.07L385.7,218.31L395.85,182.87L416.15,112.13L426.3,80.16L436.45,54.03L446.6,34.68L456.75,23.28L466.9,22.43L477.05,30.09L487.2,43.68L497.35,62.64L507.5,83.96L517.65,106.43L527.8,126.43L548.1,164.61L558.25,181.43L568.4,198.41L578.55,213.64L598.85,237.51L609,243.64L619.15,246.86L629.3,249.27L649.6,252.89L659.75,253.51L680.05,257.35L690.2,260.09L700.35,265.01L710.5,271.66L730.8,288.33L740.95,297.61L761.25,317.93L771.4,328.67L781.55,339.07L791.7,348.21L812,361.83L822.15,367.26L842.45,375.36L852.6,378.69L862.75,381.16L872.9,382.67L893.2,384L903.35,384.36L954.1,384.9L964.25,384.91L1015,384.95" style="vector-effect: none; fill: none; stroke: rgb(217, 83, 79); stroke-opacity: 1; stroke-width: 2px; opacity: 1;"/></g><g class="points"/><g class="text"/></g><g class="trace scatter trace7a0c7a" style="stroke-miterlimit: 2; opacity: 1;"><g class="fills"/><g class="errorbars"/><g class="lines"><path class="js-line" d="M0,374.83L20.3,384.97L30.45,384.97L233.45,384.45L243.6,384.19L263.9,383.04L274.05,381.77L284.2,379.85L294.35,376.99L304.5,372.78L314.65,366.79L324.8,358.43L334.95,347.51L345.1,332.8L355.25,313.52L365.4,289.43L375.55,260.85L385.7,228.95L395.85,193.87L416.15,122.13L426.3,91.06L436.45,65.33L446.6,46.34L456.75,36.6L466.9,36.63L477.05,43.47L487.2,57.02L507.5,95.94L517.65,115.22L548.1,166.84L558.25,182.38L568.4,197.97L578.55,212.14L588.7,223.5L598.85,231.88L609,237.98L619.15,239.87L629.3,240.26L639.45,242.02L649.6,242.63L659.75,241.84L669.9,241.07L680.05,241.64L690.2,244.76L700.35,249.98L710.5,257.21L720.65,266.37L740.95,288.62L751.1,300.56L771.4,323.05L781.55,334.14L791.7,344.36L801.85,352.21L822.15,364.82L832.3,370.02L842.45,374.44L852.6,377.98L862.75,380.64L872.9,382.31L893.2,383.93L903.35,384.3L954.1,384.8L964.25,384.83L1004.85,384.7L1015,382.25" style="vector-effect: none; fill: none; stroke: rgb(217, 83, 79); stroke-opacity: 1; stroke-width: 2px; opacity: 1;"/></g><g class="points"/><g class="text"/></g><g class="trace scatter trace67819e" style="stroke-miterlimit: 2; opacity: 1;"><g class="fills"/><g class="errorbars"/><g class="lines"><path class="js-line" d="M0,380.17L20.3,384.99L30.45,384.99L233.45,384.62L243.6,384.38L263.9,383.44L274.05,382.46L294.35,378.69L304.5,375.5L314.65,371.04L324.8,364.93L334.95,357L345.1,346.8L355.25,333.7L365.4,317.08L375.55,297.4L385.7,275.26L426.3,180.24L436.45,161.64L446.6,147.94L456.75,140.36L466.9,140.22L477.05,146.09L487.2,155.27L497.35,167.7L527.8,212.6L537.95,224.97L548.1,237.6L558.25,248.86L578.55,270.34L588.7,278.59L598.85,285.42L609,289.45L619.15,291.49L629.3,292.63L649.6,294.71L659.75,294.37L680.05,295.9L690.2,297.36L700.35,300.28L710.5,304.55L720.65,309.85L730.8,316.08L751.1,329.04L761.25,336.49L781.55,351.88L791.7,358.4L812,368.16L822.15,372.04L842.45,377.97L852.6,380.36L872.9,383.25L883.05,383.88L923.65,384.87L933.8,384.92L1015,384.97" style="vector-effect: none; fill: none; stroke: rgb(217, 83, 79); stroke-opacity: 1; stroke-width: 2px; opacity: 1;"/></g><g class="points"/><g class="text"/></g><g class="trace scatter trace55d636" style="stroke-miterlimit: 2; opacity: 1;"><g class="fills"/><g class="errorbars"/><g class="lines"><path class="js-line" d="M0,380.41L20.3,384.99L30.45,384.98L243.6,384.34L253.75,383.96L274.05,382.42L284.2,380.9L294.35,378.77L304.5,375.77L314.65,371.65L324.8,366.12L334.95,358.93L345.1,349.33L355.25,336.8L365.4,321.18L375.55,302.3L385.7,280.9L406,232.75L416.15,208.83L426.3,187.12L436.45,169.21L446.6,156.36L456.75,149.84L466.9,150.59L477.05,156.35L487.2,165.82L497.35,178.16L517.65,206.09L527.8,218.11L548.1,239.98L558.25,250.06L568.4,260.83L578.55,270.44L588.7,277.1L598.85,281.85L609,285.52L619.15,286.98L649.6,287.26L659.75,286.09L669.9,285.28L680.05,285.36L690.2,286.95L700.35,290.25L710.5,295.1L720.65,300.94L730.8,307.79L740.95,315.71L781.55,348.13L791.7,355.53L801.85,361.44L812,366.34L832.3,374.45L842.45,377.47L862.75,381.73L872.9,382.93L893.2,384.16L903.35,384.45L964.25,384.87L974.4,384.89L1004.85,384.79L1015,383.1" style="vector-effect: none; fill: none; stroke: rgb(217, 83, 79); stroke-opacity: 1; stroke-width: 2px; opacity: 1;"/></g><g class="points"/><g class="text"/></g><g class="trace scatter tracefd27df" style="stroke-miterlimit: 2; opacity: 1;"><g class="fills"/><g class="errorbars"/><g class="lines"><path class="js-line" d="M0,370.88L20.3,384.99L30.45,384.99L233.45,384.47L243.6,384.15L263.9,382.77L274.05,381.26L284.2,378.84L294.35,375.29L304.5,370.09L314.65,362.5L324.8,352.07L334.95,338.69L345.1,321.76L355.25,300.52L365.4,274.26L375.55,244.25L395.85,178.42L406,144.83L416.15,113.18L426.3,85.07L436.45,61.75L446.6,44.92L456.75,35.82L466.9,36.81L477.05,46.85L487.2,62.35L507.5,105.52L517.65,128.53L527.8,149.37L537.95,168.38L548.1,187.16L558.25,203.94L568.4,220.78L578.55,234.71L598.85,257.24L609,263.44L619.15,266.77L629.3,268.9L680.05,275.79L690.2,278.96L700.35,283.8L710.5,289.57L720.65,295.72L730.8,303.17L771.4,337.68L781.55,346.65L791.7,354.2L801.85,360.03L822.15,370.06L832.3,373.67L852.6,379.66L862.75,381.86L883.05,383.82L893.2,384.24L933.8,384.89L943.95,384.92L1015,384.96" style="vector-effect: none; fill: none; stroke: rgb(217, 83, 79); stroke-opacity: 1; stroke-width: 2px; opacity: 1;"/></g><g class="points"/><g class="text"/></g><g class="trace scatter trace6a77eb" style="stroke-miterlimit: 2; opacity: 1;"><g class="fills"/><g class="errorbars"/><g class="lines"><path class="js-line" d="M0,371.58L20.3,384.98L30.45,384.98L233.45,384.44L243.6,384.13L263.9,382.76L274.05,381.29L284.2,379.08L294.35,375.73L304.5,370.86L314.65,363.9L324.8,354.27L334.95,341.92L345.1,325.78L355.25,305.24L365.4,280.81L375.55,252.7L385.7,221.85L395.85,188.6L416.15,121.92L426.3,94.32L436.45,71.22L446.6,54.79L456.75,47.45L466.9,49.52L477.05,59.68L487.2,75.52L537.95,171.57L548.1,188.79L568.4,220.9L578.55,234.16L588.7,244.55L598.85,252.18L609,257.72L619.15,260.46L639.45,263.16L649.6,263.48L669.9,263.27L680.05,264.33L690.2,267.39L700.35,271.88L720.65,285.15L730.8,293.74L781.55,341.72L791.7,349.98L801.85,356.8L812,362.65L822.15,367.91L832.3,372.31L852.6,378.79L862.75,381.26L883.05,383.55L893.2,384.07L933.8,384.74L943.95,384.79L1004.85,384.75L1015,382.64" style="vector-effect: none; fill: none; stroke: rgb(217, 83, 79); stroke-opacity: 1; stroke-width: 2px; opacity: 1;"/></g><g class="points"/><g class="text"/></g><g class="trace scatter trace235b10" style="stroke-miterlimit: 2; opacity: 1;"><g class="fills"/><g class="errorbars"/><g class="lines"><path class="js-line" d="M0,376.13L20.3,384.99L30.45,384.99L233.45,384.39L243.6,384.07L263.9,382.58L274.05,381.1L284.2,378.85L294.35,375.58L304.5,370.98L314.65,364.39L324.8,355.29L334.95,343.72L345.1,329.14L355.25,310.36L365.4,286.46L375.55,258.49L385.7,227.4L395.85,193.15L416.15,124.67L426.3,93.64L436.45,67.43L446.6,47.75L456.75,36.51L466.9,35.44L477.05,42.98L487.2,56.31L497.35,75.74L507.5,97.54L517.65,119.93L527.8,140.44L548.1,177.65L558.25,193.89L568.4,209.88L578.55,223.7L588.7,234.8L598.85,244.38L609,249.46L619.15,252.09L639.45,255.03L649.6,255.44L669.9,255.73L680.05,256.53L690.2,259.23L700.35,264.17L720.65,277.99L730.8,286.38L751.1,305.61L761.25,316.26L781.55,337.91L791.7,347.07L812,361.14L822.15,366.72L842.45,375.07L852.6,378.48L862.75,381.11L872.9,382.71L903.35,384.42L913.5,384.66L974.4,384.96L984.55,384.96L1015,384.96" style="vector-effect: none; fill: none; stroke: rgb(217, 83, 79); stroke-opacity: 1; stroke-width: 2px; opacity: 1;"/></g><g class="points"/><g class="text"/></g><g class="trace scatter tracefa448c" style="stroke-miterlimit: 2; opacity: 1;"><g class="fills"/><g class="errorbars"/><g class="lines"><path class="js-line" d="M0,376.58L20.3,384.98L30.45,384.98L233.45,384.35L243.6,384L263.9,382.53L274.05,381.07L284.2,378.92L294.35,375.83L304.5,371.55L314.65,365.62L324.8,357.55L334.95,347.26L345.1,333.31L355.25,315.23L365.4,293.17L375.55,266.72L385.7,236.82L395.85,203.44L416.15,133.84L426.3,103.37L436.45,78.22L446.6,59.72L456.75,50.14L466.9,50.16L477.05,57.77L487.2,71.99L507.5,110.08L517.65,128.99L537.95,164.76L548.1,180.66L568.4,210.56L578.55,223.21L588.7,232.79L598.85,239.47L609,243.6L619.15,244.81L639.45,245.96L649.6,245.45L669.9,242.59L680.05,243.17L690.2,245.62L700.35,250.04L710.5,257.07L720.65,265.31L730.8,275.04L740.95,286.13L781.55,332.22L791.7,342.38L801.85,350.84L812,358.03L822.15,364.34L832.3,369.64L852.6,377.59L862.75,380.46L872.9,382.23L883.05,383.23L913.5,384.49L923.65,384.64L1004.85,384.73L1015,382.54" style="vector-effect: none; fill: none; stroke: rgb(217, 83, 79); stroke-opacity: 1; stroke-width: 2px; opacity: 1;"/></g><g class="points"/><g class="text"/></g><g class="trace scatter trace8d3b85" style="stroke-miterlimit: 2; opacity: 1;"><g class="fills"/><g class="errorbars"/><g class="lines"><path class="js-line" d="M0,367.71L20.3,384.99L30.45,384.99L233.45,384.48L243.6,384.17L263.9,382.78L274.05,381.3L284.2,378.98L294.35,375.56L304.5,370.68L314.65,363.63L324.8,353.9L334.95,341.6L345.1,325.78L355.25,305.18L365.4,279.5L375.55,249.84L385.7,217.02L395.85,181.12L416.15,109.37L426.3,77.34L436.45,50.97L446.6,31.12L456.75,19.76L466.9,19.25L477.05,27.16L487.2,41.26L497.35,61.28L507.5,83.11L527.8,127.47L537.95,146.48L548.1,165.66L558.25,182.66L568.4,199.54L578.55,214.29L588.7,225.77L598.85,235.84L609,241.25L619.15,243.72L639.45,246.85L649.6,247.01L669.9,246.52L680.05,246.47L690.2,248.36L700.35,252.77L710.5,259.05L720.65,266.89L730.8,276.37L740.95,287.04L761.25,310.05L771.4,322.12L781.55,334.1L791.7,344.06L812,359.33L822.15,365.4L842.45,374.52L852.6,378.07L862.75,380.76L872.9,382.41L903.35,384.33L913.5,384.62L974.4,384.95L984.55,384.95L1015,384.95" style="vector-effect: none; fill: none; stroke: rgb(217, 83, 79); stroke-opacity: 1; stroke-width: 2px; opacity: 1;"/></g><g class="points"/><g class="text"/></g><g class="trace scatter trace9023cf" style="stroke-miterlimit: 2; opacity: 1;"><g class="fills"/><g class="errorbars"/><g class="lines"><path class="js-line" d="M0,368.35L20.3,384.98L30.45,384.98L233.45,384.41L243.6,384.09L263.9,382.71L274.05,381.29L284.2,379.04L294.35,375.73L304.5,371.08L314.65,364.61L324.8,355.81L334.95,344.57L345.1,329.42L355.25,309.68L365.4,285.77L375.55,257.6L385.7,225.67L395.85,190.59L416.15,118.32L426.3,86.87L436.45,61.3L446.6,43.24L456.75,34.09L466.9,34.05L477.05,41.54L487.2,56.06L507.5,95.82L517.65,115.61L537.95,152.36L548.1,168.99L568.4,200.25L578.55,213.61L588.7,223.37L598.85,229.96L609,234.9L619.15,237.55L639.45,238.33L649.6,237.09L669.9,233.72L680.05,233.05L690.2,234.78L700.35,238.99L710.5,245.59L720.65,254.06L730.8,264.85L740.95,277.6L761.25,303.99L771.4,316.37L781.55,328.82L791.7,339.92L801.85,348.94L812,356.51L832.3,368.81L842.45,373.45L862.75,380.1L872.9,381.94L893.2,383.71L903.35,384.14L943.95,384.73L954.1,384.78L1004.85,384.71L1015,382.44" style="vector-effect: none; fill: none; stroke: rgb(217, 83, 79); stroke-opacity: 1; stroke-width: 2px; opacity: 1;"/></g><g class="points"/><g class="text"/></g><g class="trace scatter trace29fc2d" style="stroke-miterlimit: 2; opacity: 1;"><g class="fills"/><g class="errorbars"/><g class="lines"><path class="js-line" d="M0,379.97L20.3,384.99L30.45,384.99L243.6,384.27L253.75,383.83L274.05,381.85L284.2,379.94L294.35,377.25L304.5,373.37L314.65,367.89L324.8,360.51L334.95,351.13L345.1,339.13L355.25,323.77L365.4,304.57L375.55,282.23L385.7,257.18L426.3,148.26L436.45,127.49L446.6,111.75L456.75,102.21L466.9,100.93L477.05,106.72L487.2,117.38L497.35,132.04L527.8,182.72L537.95,197.34L548.1,212.23L558.25,225.2L568.4,238.03L578.55,249.38L588.7,258.42L598.85,266.17L609,270.43L619.15,272.67L629.3,274.3L639.45,275.15L669.9,275.78L680.05,276.5L690.2,278.44L700.35,282.16L720.65,293.41L730.8,300.6L751.1,317.43L761.25,326.6L781.55,345.34L791.7,353.19L812,364.93L822.15,369.67L842.45,376.85L852.6,379.63L862.75,381.72L872.9,383.02L903.35,384.52L913.5,384.73L994.7,384.96L1004.85,384.96L1015,384.96" style="vector-effect: none; fill: none; stroke: rgb(217, 83, 79); stroke-opacity: 1; stroke-width: 2px; opacity: 1;"/></g><g class="points"/><g class="text"/></g><g class="trace scatter trace32bbf4" style="stroke-miterlimit: 2; opacity: 1;"><g class="fills"/><g class="errorbars"/><g class="lines"><path class="js-line" d="M0,380.2L20.3,384.98L30.45,384.98L233.45,384.49L243.6,384.19L263.9,383.02L274.05,381.8L284.2,379.97L294.35,377.35L304.5,373.66L314.65,368.67L324.8,361.95L334.95,353.5L345.1,342.25L355.25,327.51L365.4,309.55L375.55,288.21L385.7,263.82L395.85,236.96L416.15,180.67L426.3,155.94L436.45,136.16L446.6,121.16L456.75,112.92L466.9,112.69L477.05,118.41L487.2,129.39L507.5,159.47L517.65,174.62L537.95,202.28L548.1,214.68L568.4,238.65L578.55,248.58L588.7,256.12L598.85,261.74L609,266.1L619.15,267.79L639.45,268.11L649.6,267.24L669.9,265.16L680.05,265.21L690.2,267.34L700.35,270.9L710.5,276.56L720.65,283.39L730.8,291.77L740.95,301.65L771.4,331.45L781.55,341.13L791.7,349.79L801.85,356.93L822.15,367.73L832.3,372.35L852.6,378.94L862.75,381.23L883.05,383.52L893.2,384.07L933.8,384.74L943.95,384.8L1004.85,384.78L1015,382.95" style="vector-effect: none; fill: none; stroke: rgb(217, 83, 79); stroke-opacity: 1; stroke-width: 2px; opacity: 1;"/></g><g class="points"/><g class="text"/></g></g></g></g><g class="zerolinelayer-above"/><path class="xlines-above crisp" d="M0,0" style="fill: none;"/><path class="ylines-above crisp" d="M0,0" style="fill: none;"/><g class="overlines-above"/><g class="xaxislayer-above"><g class="xtick"><text text-anchor="middle" x="0" y="451" transform="translate(60,0)" style="font-family: 'Lucida Grande', 'Open Sans', verdana, arial, sans-serif; font-size: 10px; fill: rgb(0, 0, 0); fill-opacity: 1; white-space: pre;">0%</text></g><g class="xtick"><text text-anchor="middle" x="0" y="451" style="font-family: 'Lucida Grande', 'Open Sans', verdana, arial, sans-serif; font-size: 10px; fill: rgb(0, 0, 0); fill-opacity: 1; white-space: pre;" transform="translate(263,0)">20%</text></g><g class="xtick"><text text-anchor="middle" x="0" y="451" style="font-family: 'Lucida Grande', 'Open Sans', verdana, arial, sans-serif; font-size: 10px; fill: rgb(0, 0, 0); fill-opacity: 1; white-space: pre;" transform="translate(466,0)">40%</text></g><g class="xtick"><text text-anchor="middle" x="0" y="451" style="font-family: 'Lucida Grande', 'Open Sans', verdana, arial, sans-serif; font-size: 10px; fill: rgb(0, 0, 0); fill-opacity: 1; white-space: pre;" transform="translate(669,0)">60%</text></g><g class="xtick"><text text-anchor="middle" x="0" y="451" style="font-family: 'Lucida Grande', 'Open Sans', verdana, arial, sans-serif; font-size: 10px; fill: rgb(0, 0, 0); fill-opacity: 1; white-space: pre;" transform="translate(872,0)">80%</text></g><g class="xtick"><text text-anchor="middle" x="0" y="451" style="font-family: 'Lucida Grande', 'Open Sans', verdana, arial, sans-serif; font-size: 10px; fill: rgb(0, 0, 0); fill-opacity: 1; white-space: pre;" transform="translate(1075,0)">100%</text></g></g><g class="yaxislayer-above"><g class="ytick"><text text-anchor="end" x="54" y="3.5" transform="translate(0,435)" style="font-family: 'Lucida Grande', 'Open Sans', verdana, arial, sans-serif; font-size: 10px; fill: rgb(0, 0, 0); fill-opacity: 1; white-space: pre;">0</text></g><g class="ytick"><text text-anchor="end" x="54" y="3.5" style="font-family: 'Lucida Grande', 'Open Sans', verdana, arial, sans-serif; font-size: 10px; fill: rgb(0, 0, 0); fill-opacity: 1; white-space: pre;" transform="translate(0,343.99)">0.5M</text></g><g class="ytick"><text text-anchor="end" x="54" y="3.5" style="font-family: 'Lucida Grande', 'Open Sans', verdana, arial, sans-serif; font-size: 10px; fill: rgb(0, 0, 0); fill-opacity: 1; white-space: pre;" transform="translate(0,252.99)">1M</text></g><g class="ytick"><text text-anchor="end" x="54" y="3.5" style="font-family: 'Lucida Grande', 'Open Sans', verdana, arial, sans-serif; font-size: 10px; fill: rgb(0, 0, 0); fill-opacity: 1; white-space: pre;" transform="translate(0,161.98000000000002)">1.5M</text></g><g class="ytick"><text text-anchor="end" x="54" y="3.5" style="font-family: 'Lucida Grande', 'Open Sans', verdana, arial, sans-serif; font-size: 10px; fill: rgb(0, 0, 0); fill-opacity: 1; white-space: pre;" transform="translate(0,70.97)">2M</text></g></g><g class="overaxes-above"/></g></g><g class="polarlayer"/><g class="smithlayer"/><g class="ternarylayer"/><g class="geolayer"/><g class="funnelarealayer"/><g class="pielayer"/><g class="iciclelayer"/><g class="treemaplayer"/><g class="sunburstlayer"/><g class="glimages"/><defs id="topdefs-81875d"><g class="clips"/></defs><g class="layer-above"><g class="imagelayer"/><g class="shapelayer"/></g><g class="infolayer"><g class="g-gtitle"><text class="gtitle" x="550" y="25" text-anchor="middle" dy="0em" style="opacity: 1; font-family: 'Lucida Grande', 'Open Sans', verdana, arial, sans-serif; font-size: 20px; fill: rgb(68, 68, 68); fill-opacity: 1; white-space: pre;"><tspan class="line" dy="0em" x="550" y="25">FastQC: Per Sequence GC Content</tspan><tspan class="line" dy="1.3em" x="550" y="25">​<tspan style="font-size:70%" dy="-0.6em">Counts, 16 lines</tspan><tspan dy="0.42em">​</tspan></tspan></text></g><g class="g-xtitle"><text class="xtitle" x="567.5" y="487" text-anchor="middle" style="opacity: 0.3; font-family: 'Lucida Grande', 'Open Sans', verdana, arial, sans-serif; font-size: 14px; fill: rgb(0, 0, 0); fill-opacity: 1; white-space: pre;">% GC</text></g><g class="g-ytitle"><text class="ytitle" transform="rotate(-90,22,242.5)" x="22" y="242.5" text-anchor="middle" style="opacity: 0.3; font-family: 'Lucida Grande', 'Open Sans', verdana, arial, sans-serif; font-size: 14px; fill: rgb(0, 0, 0); fill-opacity: 1; white-space: pre;">Count</text></g></g></svg>