<svg class="main-svg" xmlns="http://www.w3.org/2000/svg" xmlns:xlink="http://www.w3.org/1999/xlink" width="2200" height="1000" style="" viewBox="0 0 1100 500"><rect x="0" y="0" width="1100" height="500" style="fill: rgb(255, 255, 255); fill-opacity: 1;"/><defs id="defs-d723bb"><g class="clips"><clipPath id="clipd723bbxyplot" class="plotclip"><rect width="1015" height="385"/></clipPath><clipPath class="axesclip" id="clipd723bbx"><rect x="60" y="0" width="1015" height="500"/></clipPath><clipPath class="axesclip" id="clipd723bby"><rect x="0" y="50" width="1100" height="385"/></clipPath><clipPath class="axesclip" id="clipd723bbxy"><rect x="60" y="50" width="1015" height="385"/></clipPath></g><g class="gradients"/><g class="patterns"/></defs><g class="bglayer"/><g class="layer-below"><g class="imagelayer"/><g class="shapelayer"/></g><g class="cartesianlayer"><g class="subplot xy"><g class="layer-subplot"><g class="shapelayer"/><g class="imagelayer"/></g><g class="minor-gridlayer"><g class="x"/><g class="y"/></g><g class="gridlayer"><g class="x"><path class="xgrid crisp" transform="translate(263,0)" d="M0,50v385" style="stroke: rgb(0, 0, 0); stroke-opacity: 0.05; stroke-width: 1px;"/><path class="xgrid crisp" transform="translate(466,0)" d="M0,50v385" style="stroke: rgb(0, 0, 0); stroke-opacity: 0.05; stroke-width: 1px;"/><path class="xgrid crisp" transform="translate(669,0)" d="M0,50v385" style="stroke: rgb(0, 0, 0); stroke-opacity: 0.05; stroke-width: 1px;"/><path class="xgrid crisp" transform="translate(872,0)" d="M0,50v385" style="stroke: rgb(0, 0, 0); stroke-opacity: 0.05; stroke-width: 1px;"/></g><g class="y"><path class="ygrid crisp" transform="translate(0,394.23)" d="M60,0h1015" style="stroke: rgb(0, 0, 0); stroke-opacity: 0.05; stroke-width: 1px;"/><path class="ygrid crisp" transform="translate(0,353.46)" d="M60,0h1015" style="stroke: rgb(0, 0, 0); stroke-opacity: 0.05; stroke-width: 1px;"/><path class="ygrid crisp" transform="translate(0,312.69)" d="M60,0h1015" style="stroke: rgb(0, 0, 0); stroke-opacity: 0.05; stroke-width: 1px;"/><path class="ygrid crisp" transform="translate(0,271.91999999999996)" d="M60,0h1015" style="stroke: rgb(0, 0, 0); stroke-opacity: 0.05; stroke-width: 1px;"/><path class="ygrid crisp" transform="translate(0,231.15)" d="M60,0h1015" style="stroke: rgb(0, 0, 0); stroke-opacity: 0.05; stroke-width: 1px;"/><path class="ygrid crisp" transform="translate(0,190.39)" d="M60,0h1015" style="stroke: rgb(0, 0, 0); stroke-opacity: 0.05; stroke-width: 1px;"/><path class="ygrid crisp" transform="translate(0,149.62)" d="M60,0h1015" style="stroke: rgb(0, 0, 0); stroke-opacity: 0.05; stroke-width: 1px;"/><path class="ygrid crisp" transform="translate(0,108.85)" d="M60,0h1015" style="stroke: rgb(0, 0, 0); stroke-opacity: 0.05; stroke-width: 1px;"/><path class="ygrid crisp" transform="translate(0,68.08)" d="M60,0h1015" style="stroke: rgb(0, 0, 0); stroke-opacity: 0.05; stroke-width: 1px;"/></g></g><g class="zerolinelayer"><path class="xzl zl crisp" transform="translate(60,0)" d="M0,50v385" style="stroke: rgb(0, 0, 0); stroke-opacity: 0.05; stroke-width: 1px;"/><path class="yzl zl crisp" transform="translate(0,435)" d="M60,0h1015" style="stroke: rgb(0, 0, 0); stroke-opacity: 0.05; stroke-width: 1px;"/></g><g class="layer-between"><g class="shapelayer"/><g class="imagelayer"/></g><path class="xlines-below"/><path class="ylines-below"/><g class="overlines-below"/><g class="xaxislayer-below"/><g class="yaxislayer-below"/><g class="overaxes-below"/><g class="overplot"><g class="xy" transform="translate(60,50)" clip-path="url(#clipd723bbxyplot)"><g class="scatterlayer mlayer"><g class="trace scatter trace010557" style="stroke-miterlimit: 2; opacity: 1;"><g class="fills"/><g class="errorbars"/><g class="lines"><path class="js-line" d="M0,384.97L223.3,384.59L233.45,384.37L263.9,382.7L274.05,381.32L284.2,379.21L294.35,376.11L304.5,371.63L314.65,365.3L324.8,356.24L334.95,344.23L345.1,329.2L355.25,309.53L365.4,284.27L375.55,254.87L395.85,188.03L406,153.2L416.15,119.33L426.3,88.85L436.45,63.19L446.6,43.23L456.75,32.5L466.9,32.31L477.05,40.4L487.2,54.53L497.35,73.91L507.5,95.63L527.8,138.33L537.95,157.71L548.1,176.35L558.25,192.6L568.4,208.18L578.55,222.23L588.7,233.37L598.85,242.31L609,247.15L619.15,249.43L639.45,251.5L649.6,252.07L669.9,253.69L680.05,256.08L690.2,260.63L700.35,266.51L720.65,282.06L730.8,291.08L751.1,309.32L761.25,319.88L781.55,340.2L791.7,348.81L812,361.84L822.15,367.11L842.45,374.45L852.6,378.1L862.75,381.15L872.9,382.87L893.2,384.2L903.35,384.5L954.1,384.92L964.25,384.93L1015,384.95" style="vector-effect: none; fill: none; stroke: rgb(217, 83, 79); stroke-opacity: 1; stroke-width: 2px; opacity: 1;"/></g><g class="points"/><g class="text"/></g><g class="trace scatter trace2a88c3" style="stroke-miterlimit: 2; opacity: 1;"><g class="fills"/><g class="errorbars"/><g class="lines"><path class="js-line" d="M0,384.96L223.3,384.57L233.45,384.4L263.9,382.94L274.05,381.74L284.2,379.87L294.35,377.17L304.5,373.25L314.65,367.68L324.8,359.81L334.95,349.37L345.1,335.17L355.25,316.6L365.4,293.84L375.55,266.62L385.7,235.55L395.85,201.18L416.15,130.85L426.3,100.17L436.45,74.19L446.6,54.91L456.75,45.73L466.9,46.54L477.05,54.6L487.2,68.7L497.35,87.4L507.5,107.74L527.8,143.72L537.95,161.19L558.25,193.77L568.4,207.88L578.55,220.26L588.7,229.39L598.85,235.34L609,239.35L619.15,240.61L629.3,240.87L649.6,240.3L659.75,239.15L669.9,238.8L680.05,241.46L690.2,245.78L700.35,251.35L710.5,259.12L720.65,268.95L740.95,290.13L751.1,301.71L781.55,334.32L791.7,343.79L801.85,351.72L812,358.69L822.15,364.96L832.3,369.75L852.6,377.61L862.75,380.54L883.05,383.38L893.2,384.02L933.8,384.73L943.95,384.78L1004.85,384.63L1015,382.46" style="vector-effect: none; fill: none; stroke: rgb(217, 83, 79); stroke-opacity: 1; stroke-width: 2px; opacity: 1;"/></g><g class="points"/><g class="text"/></g><g class="trace scatter trace03b764" style="stroke-miterlimit: 2; opacity: 1;"><g class="fills"/><g class="errorbars"/><g class="lines"><path class="js-line" d="M0,384.98L243.6,384.29L253.75,383.89L274.05,381.98L284.2,380.15L294.35,377.51L304.5,373.64L314.65,367.9L324.8,359.72L334.95,349.23L345.1,336.11L355.25,318.51L365.4,295.02L375.55,267.53L385.7,237.47L426.3,106.52L436.45,80.12L446.6,59.34L456.75,46.42L466.9,43.39L477.05,48.7L487.2,59.21L497.35,75.16L527.8,134.49L537.95,151.74L558.25,185.95L568.4,201.43L578.55,215.38L588.7,226.87L598.85,236.02L609,241.06L619.15,243.36L629.3,244.5L649.6,245.41L659.75,244.58L669.9,244.77L680.05,246.56L690.2,250.2L700.35,255.59L710.5,262.62L720.65,271.13L740.95,290.23L751.1,300.77L781.55,335.43L791.7,345.26L801.85,353.09L812,359.91L822.15,365.69L832.3,370.15L852.6,378.07L862.75,380.95L883.05,383.44L893.2,383.99L933.8,384.85L943.95,384.9L1015,384.95" style="vector-effect: none; fill: none; stroke: rgb(217, 83, 79); stroke-opacity: 1; stroke-width: 2px; opacity: 1;"/></g><g class="points"/><g class="text"/></g><g class="trace scatter tracee7fc3c" style="stroke-miterlimit: 2; opacity: 1;"><g class="fills"/><g class="errorbars"/><g class="lines"><path class="js-line" d="M0,384.97L243.6,384.23L253.75,383.83L274.05,382.13L284.2,380.5L294.35,378L304.5,374.43L314.65,369.45L324.8,362.34L334.95,353.1L345.1,340.6L355.25,323.63L365.4,302.5L375.55,277.37L385.7,248.47L406,181.81L416.15,148.27L426.3,117.88L436.45,91.9L446.6,72.04L456.75,61.34L466.9,59.96L477.05,64.64L487.2,75.41L497.35,91.3L517.65,126.03L527.8,141.89L548.1,172.95L558.25,187.74L578.55,215.07L588.7,224.91L598.85,230.91L609,234.61L619.15,235.27L629.3,234.24L649.6,232.5L659.75,230.48L669.9,229.13L680.05,230.07L690.2,233.29L700.35,238.75L710.5,246.9L720.65,257.14L740.95,280.23L751.1,293.01L781.55,329.41L791.7,340.44L801.85,349.11L812,356.44L822.15,363.12L832.3,368.65L852.6,377.28L862.75,380.27L883.05,383.17L893.2,383.85L933.8,384.68L943.95,384.75L1004.85,384.65L1015,382.62" style="vector-effect: none; fill: none; stroke: rgb(217, 83, 79); stroke-opacity: 1; stroke-width: 2px; opacity: 1;"/></g><g class="points"/><g class="text"/></g><g class="trace scatter trace66e2c1" style="stroke-miterlimit: 2; opacity: 1;"><g class="fills"/><g class="errorbars"/><g class="lines"><path class="js-line" d="M0,384.97L233.45,384.46L243.6,384.19L263.9,382.85L274.05,381.5L284.2,379.38L294.35,376.2L304.5,371.54L314.65,364.8L324.8,355.26L334.95,343.15L345.1,327.93L355.25,307.9L365.4,282L375.55,251.98L395.85,185.45L406,150.49L416.15,116.35L426.3,85.9L436.45,61.46L446.6,43.17L456.75,32.56L466.9,32.28L477.05,40.82L487.2,54.94L497.35,73.8L507.5,94.46L527.8,135.08L537.95,153.48L558.25,188.69L568.4,205.14L578.55,219.58L588.7,231.75L598.85,242.36L609,247.91L629.3,253.4L639.45,255.72L649.6,257.49L659.75,257.93L680.05,261.1L690.2,263.91L700.35,268.97L710.5,275.66L730.8,291.53L740.95,300.62L761.25,320.78L771.4,331.16L781.55,341.12L791.7,349.82L801.85,356.83L812,362.88L822.15,368.14L832.3,372.32L852.6,379.09L862.75,381.43L883.05,383.56L893.2,384.04L933.8,384.83L943.95,384.87L1015,384.95" style="vector-effect: none; fill: none; stroke: rgb(217, 83, 79); stroke-opacity: 1; stroke-width: 2px; opacity: 1;"/></g><g class="points"/><g class="text"/></g><g class="trace scatter traced4c8c6" style="stroke-miterlimit: 2; opacity: 1;"><g class="fills"/><g class="errorbars"/><g class="lines"><path class="js-line" d="M0,384.96L233.45,384.44L243.6,384.18L263.9,383L274.05,381.74L284.2,379.82L294.35,376.94L304.5,372.67L314.65,366.72L324.8,358.42L334.95,347.65L345.1,333.05L355.25,314L365.4,290.45L375.55,262.31L385.7,230.9L395.85,196.46L416.15,127.27L426.3,97.17L436.45,72.39L446.6,54.63L456.75,46.01L466.9,46.45L477.05,53.11L487.2,66.88L507.5,105.55L517.65,123.01L548.1,173.67L558.25,189.07L578.55,217.85L588.7,229.15L598.85,237.11L609,242.47L619.15,244.06L629.3,244.3L649.6,246.13L659.75,245.38L669.9,244.53L680.05,245.3L690.2,248.72L700.35,254.05L710.5,261.25L720.65,270.59L740.95,292.18L751.1,304.16L781.55,336.79L791.7,346.42L801.85,353.82L812,360.18L832.3,371.02L842.45,375.18L852.6,378.5L862.75,380.98L883.05,383.43L893.2,384.01L933.8,384.72L943.95,384.77L1004.85,384.61L1015,382.2" style="vector-effect: none; fill: none; stroke: rgb(217, 83, 79); stroke-opacity: 1; stroke-width: 2px; opacity: 1;"/></g><g class="points"/><g class="text"/></g><g class="trace scatter tracef36882" style="stroke-miterlimit: 2; opacity: 1;"><g class="fills"/><g class="errorbars"/><g class="lines"><path class="js-line" d="M0,384.98L233.45,384.42L243.6,384.07L263.9,382.65L274.05,381.22L284.2,378.92L294.35,375.64L304.5,370.93L314.65,364.35L324.8,355.32L334.95,343.73L345.1,328.92L355.25,309.72L365.4,285.38L375.55,256.69L385.7,224.63L395.85,189.79L416.15,120.01L426.3,88.43L436.45,62.79L446.6,43.73L456.75,33.54L466.9,34.36L477.05,43.44L487.2,57.13L497.35,75.67L507.5,96.88L527.8,139.44L537.95,157.05L558.25,191.4L568.4,207.22L578.55,221.7L588.7,233.43L598.85,243.01L609,248.64L619.15,251.4L629.3,253.15L649.6,256.01L659.75,255.56L669.9,256.01L680.05,257.24L690.2,259.72L700.35,264.1L710.5,270.17L720.65,277.86L751.1,305.66L761.25,316.41L781.55,338.15L791.7,347.46L812,361.38L822.15,366.89L842.45,375.18L852.6,378.58L862.75,381.08L872.9,382.58L903.35,384.44L913.5,384.69L994.7,384.96L1004.85,384.96L1015,384.95" style="vector-effect: none; fill: none; stroke: rgb(217, 83, 79); stroke-opacity: 1; stroke-width: 2px; opacity: 1;"/></g><g class="points"/><g class="text"/></g><g class="trace scatter trace9dba52" style="stroke-miterlimit: 2; opacity: 1;"><g class="fills"/><g class="errorbars"/><g class="lines"><path class="js-line" d="M0,384.97L233.45,384.35L243.6,384L263.9,382.6L274.05,381.16L284.2,378.91L294.35,375.77L304.5,371.3L314.65,365.31L324.8,357.21L334.95,346.7L345.1,332.78L355.25,314.47L365.4,291.81L375.55,264.47L385.7,233.46L395.85,199.6L416.15,130.06L426.3,99.14L436.45,73.8L446.6,56.09L456.75,47.59L466.9,49.05L477.05,57.41L487.2,71.59L497.35,90.11L507.5,110.34L517.65,129.09L527.8,145.95L537.95,162.71L548.1,177.82L578.55,221.67L588.7,231.67L598.85,238.14L609,242.45L619.15,244.16L629.3,244.47L649.6,244.12L659.75,242.76L669.9,241.49L680.05,241.68L690.2,244.45L700.35,249.57L710.5,256.6L720.65,265.35L730.8,275.21L740.95,286.65L761.25,310.29L771.4,321.88L781.55,333.46L791.7,343.74L801.85,352.03L812,358.98L822.15,365.17L832.3,370.41L842.45,374.65L852.6,378.04L862.75,380.53L872.9,382.17L893.2,383.87L903.35,384.25L954.1,384.8L964.25,384.82L1004.85,384.6L1015,382.15" style="vector-effect: none; fill: none; stroke: rgb(217, 83, 79); stroke-opacity: 1; stroke-width: 2px; opacity: 1;"/></g><g class="points"/><g class="text"/></g><g class="trace scatter tracedf754f" style="stroke-miterlimit: 2; opacity: 1;"><g class="fills"/><g class="errorbars"/><g class="lines"><path class="js-line" d="M0,384.96L223.3,384.61L233.45,384.41L253.75,383.5L263.9,382.56L274.05,380.93L284.2,378.29L294.35,374.46L304.5,368.87L314.65,360.74L324.8,349.48L334.95,335.29L345.1,317.49L355.25,294.78L365.4,266.8L385.7,201.41L395.85,165.96L416.15,97.85L426.3,68.68L436.45,45.22L446.6,28.24L456.75,19.25L466.9,21.02L477.05,32.23L487.2,49.21L527.8,139.92L537.95,160.1L558.25,197.26L568.4,214.59L578.55,228.95L588.7,241.14L598.85,252.01L609,258.22L629.3,264.73L639.45,266.54L659.75,268.57L669.9,269.54L680.05,271.07L690.2,274.46L700.35,279.51L710.5,285.49L720.65,292.13L730.8,300.13L761.25,326.89L771.4,336.25L781.55,345.47L791.7,353.2L812,364.85L822.15,369.74L842.45,376.64L852.6,379.66L862.75,381.86L872.9,383.13L903.35,384.53L913.5,384.72L1004.85,384.96L1015,384.95" style="vector-effect: none; fill: none; stroke: rgb(217, 83, 79); stroke-opacity: 1; stroke-width: 2px; opacity: 1;"/></g><g class="points"/><g class="text"/></g><g class="trace scatter trace4fbab8" style="stroke-miterlimit: 2; opacity: 1;"><g class="fills"/><g class="errorbars"/><g class="lines"><path class="js-line" d="M0,384.94L213.15,384.69L223.3,384.57L253.75,383.48L263.9,382.55L274.05,380.97L284.2,378.58L294.35,374.96L304.5,369.7L314.65,362.3L324.8,351.95L334.95,338.89L345.1,321.82L355.25,300.03L365.4,274.34L375.55,244.55L385.7,211.93L416.15,107.67L426.3,79.06L436.45,55.13L446.6,38.51L456.75,31.79L466.9,34.4L477.05,45.12L487.2,62.28L507.5,104.28L517.65,123.5L548.1,180.7L558.25,198.13L568.4,214.18L578.55,227.95L588.7,238.91L598.85,246.96L609,252.54L619.15,255.62L639.45,257.65L649.6,257.59L669.9,257.26L680.05,258.58L690.2,261.9L700.35,267.04L710.5,273.56L720.65,281.1L730.8,290.16L740.95,300.25L771.4,330.89L781.55,340.69L791.7,349.15L801.85,356.1L822.15,367.66L832.3,372.19L852.6,378.8L862.75,381.28L883.05,383.54L893.2,384.07L933.8,384.73L943.95,384.79L1004.85,384.65L1015,382.42" style="vector-effect: none; fill: none; stroke: rgb(217, 83, 79); stroke-opacity: 1; stroke-width: 2px; opacity: 1;"/></g><g class="points"/><g class="text"/></g><g class="trace scatter tracecb7763" style="stroke-miterlimit: 2; opacity: 1;"><g class="fills"/><g class="errorbars"/><g class="lines"><path class="js-line" d="M0,384.97L223.3,384.58L233.45,384.35L253.75,383.45L263.9,382.46L274.05,380.93L284.2,378.59L294.35,375.21L304.5,370.44L314.65,363.63L324.8,354.14L334.95,342.32L345.1,327.49L355.25,308.12L365.4,283.62L375.55,255.01L385.7,223.45L416.15,119.66L426.3,88.75L436.45,63.51L446.6,44.21L456.75,33.58L466.9,33.29L477.05,41.53L487.2,55.92L507.5,97.88L517.65,119.56L527.8,140.38L537.95,159.18L558.25,194.16L568.4,210.16L578.55,223.69L588.7,234.86L598.85,244.19L609,248.92L629.3,253.38L639.45,254.75L680.05,255.91L690.2,258.93L700.35,263.98L710.5,270.63L720.65,277.95L730.8,286.62L751.1,306.05L761.25,316.99L781.55,338.4L791.7,347.51L812,361.46L822.15,367.09L842.45,375.28L852.6,378.71L862.75,381.27L872.9,382.76L903.35,384.45L913.5,384.69L984.55,384.96L994.7,384.96L1015,384.95" style="vector-effect: none; fill: none; stroke: rgb(217, 83, 79); stroke-opacity: 1; stroke-width: 2px; opacity: 1;"/></g><g class="points"/><g class="text"/></g><g class="trace scatter traceef8b5b" style="stroke-miterlimit: 2; opacity: 1;"><g class="fills"/><g class="errorbars"/><g class="lines"><path class="js-line" d="M0,384.96L223.3,384.53L233.45,384.31L253.75,383.37L263.9,382.41L284.2,378.68L294.35,375.47L304.5,371.04L314.65,364.95L324.8,356.63L334.95,346.14L345.1,331.88L355.25,313.37L365.4,291.03L375.55,264.07L385.7,233.48L395.85,199.72L416.15,129.82L426.3,99.46L436.45,74.5L446.6,56.45L456.75,47.74L466.9,48.25L477.05,55.98L487.2,70.78L517.65,127.97L527.8,145.77L537.95,163.81L548.1,180.23L568.4,210.08L578.55,222.79L588.7,232.49L598.85,238.69L609,242.88L619.15,244.73L639.45,244.62L649.6,243.98L669.9,241.27L680.05,242L690.2,244.67L700.35,249.43L710.5,256.61L720.65,265.29L730.8,275.09L740.95,286.46L761.25,310.21L771.4,321.65L781.55,333.1L791.7,343.11L801.85,351.37L812,358.52L822.15,364.87L832.3,370.1L852.6,377.89L862.75,380.67L883.05,383.29L893.2,383.89L933.8,384.71L943.95,384.77L1004.85,384.63L1015,382.41" style="vector-effect: none; fill: none; stroke: rgb(217, 83, 79); stroke-opacity: 1; stroke-width: 2px; opacity: 1;"/></g><g class="points"/><g class="text"/></g><g class="trace scatter trace76a415" style="stroke-miterlimit: 2; opacity: 1;"><g class="fills"/><g class="errorbars"/><g class="lines"><path class="js-line" d="M0,384.97L233.45,384.47L243.6,384.17L263.9,382.8L274.05,381.35L284.2,379.07L294.35,375.72L304.5,370.95L314.65,364.12L324.8,354.59L334.95,342.73L345.1,327.56L355.25,307.54L365.4,282.68L375.55,254.06L385.7,222.72L395.85,188.57L416.15,120.21L426.3,90.33L436.45,66.1L446.6,47.78L456.75,37.7L466.9,37.95L477.05,46.26L487.2,60.25L507.5,100.52L517.65,121.5L527.8,141.97L537.95,160.03L558.25,194.38L568.4,210.31L578.55,223.93L588.7,234.86L598.85,244.18L609,249.05L629.3,253.28L639.45,254.5L669.9,253.8L680.05,253.65L690.2,255.75L700.35,260L710.5,266L720.65,273.59L740.95,292.79L751.1,303.5L781.55,337.42L791.7,346.68L812,361.12L822.15,366.87L842.45,375.29L852.6,378.66L862.75,381.14L872.9,382.61L903.35,384.41L913.5,384.66L984.55,384.96L994.7,384.95L1015,384.96" style="vector-effect: none; fill: none; stroke: rgb(217, 83, 79); stroke-opacity: 1; stroke-width: 2px; opacity: 1;"/></g><g class="points"/><g class="text"/></g><g class="trace scatter trace5e540f" style="stroke-miterlimit: 2; opacity: 1;"><g class="fills"/><g class="errorbars"/><g class="lines"><path class="js-line" d="M0,384.97L233.45,384.41L243.6,384.1L263.9,382.73L274.05,381.34L284.2,379.14L294.35,375.92L304.5,371.35L314.65,365.05L324.8,356.51L334.95,345.72L345.1,331.16L355.25,312.07L365.4,289.21L375.55,262.11L385.7,231.47L395.85,198.02L416.15,129.67L426.3,99.97L436.45,76.09L446.6,59.63L456.75,51.68L466.9,52.01L477.05,59.28L487.2,73.63L517.65,129.83L527.8,147.3L548.1,180.77L558.25,195.87L568.4,210.33L578.55,223.32L588.7,233.06L598.85,239.35L609,243.53L619.15,245.26L639.45,245.03L649.6,243.93L669.9,240.78L680.05,240.35L690.2,242.28L700.35,246.5L710.5,252.99L720.65,261.47L730.8,271.81L740.95,284.05L761.25,309.19L771.4,320.92L781.55,332.9L791.7,343.21L801.85,351.47L812,358.58L822.15,364.82L832.3,370.17L842.45,374.44L852.6,377.86L862.75,380.55L872.9,382.24L893.2,383.83L903.35,384.23L954.1,384.79L964.25,384.82L1004.85,384.63L1015,382.44" style="vector-effect: none; fill: none; stroke: rgb(217, 83, 79); stroke-opacity: 1; stroke-width: 2px; opacity: 1;"/></g><g class="points"/><g class="text"/></g><g class="trace scatter tracef84177" style="stroke-miterlimit: 2; opacity: 1;"><g class="fills"/><g class="errorbars"/><g class="lines"><path class="js-line" d="M0,384.97L223.3,384.6L233.45,384.4L253.75,383.5L263.9,382.55L274.05,381.02L284.2,378.61L294.35,375.23L304.5,370.42L314.65,363.59L324.8,354.29L334.95,342.74L345.1,327.94L355.25,308.7L365.4,284.96L375.55,257.35L385.7,226.61L416.15,124.77L426.3,94.24L436.45,69.76L446.6,51.01L456.75,40.15L466.9,39.24L477.05,47.18L487.2,60.81L497.35,79.26L507.5,99.63L527.8,140.24L537.95,158.09L558.25,191.98L568.4,207.61L578.55,220.98L588.7,231.91L598.85,241.12L609,245.82L629.3,250.45L639.45,251.58L680.05,253.12L690.2,255.73L700.35,260.45L710.5,266.89L720.65,274.35L730.8,283.11L751.1,303.82L761.25,315.14L781.55,337.49L791.7,346.81L812,361.09L822.15,366.85L842.45,375.36L852.6,378.71L862.75,381.15L872.9,382.66L903.35,384.45L913.5,384.7L994.7,384.95L1004.85,384.95L1015,384.95" style="vector-effect: none; fill: none; stroke: rgb(217, 83, 79); stroke-opacity: 1; stroke-width: 2px; opacity: 1;"/></g><g class="points"/><g class="text"/></g><g class="trace scatter trace0f9985" style="stroke-miterlimit: 2; opacity: 1;"><g class="fills"/><g class="errorbars"/><g class="lines"><path class="js-line" d="M0,384.97L233.45,384.34L243.6,383.97L263.9,382.48L274.05,380.96L284.2,378.68L294.35,375.4L304.5,370.77L314.65,364.55L324.8,356.19L334.95,345.77L345.1,331.89L355.25,313.65L365.4,291.6L375.55,265.32L385.7,235.19L395.85,202.3L416.15,134.07L426.3,104.21L436.45,80.35L446.6,62.78L456.75,53.66L466.9,53.65L477.05,60.74L487.2,74.63L517.65,129.39L527.8,146.09L537.95,163.24L548.1,178.54L568.4,207.52L578.55,219.92L588.7,229.59L598.85,236.22L609,240.56L619.15,242.01L639.45,241.93L649.6,241.01L669.9,238.66L680.05,238.88L690.2,241.77L700.35,246.42L710.5,253.38L720.65,262.09L730.8,272.55L740.95,284.58L761.25,309.24L771.4,321.02L781.55,332.84L791.7,343.2L801.85,351.59L812,358.45L832.3,370.2L842.45,374.49L862.75,380.64L872.9,382.3L893.2,383.92L903.35,384.28L954.1,384.8L964.25,384.82L1004.85,384.64L1015,382.38" style="vector-effect: none; fill: none; stroke: rgb(217, 83, 79); stroke-opacity: 1; stroke-width: 2px; opacity: 1;"/></g><g class="points"/><g class="text"/></g></g></g></g><g class="zerolinelayer-above"/><path class="xlines-above crisp" d="M0,0" style="fill: none;"/><path class="ylines-above crisp" d="M0,0" style="fill: none;"/><g class="overlines-above"/><g class="xaxislayer-above"><g class="xtick"><text text-anchor="middle" x="0" y="451" transform="translate(60,0)" style="font-family: 'Lucida Grande', 'Open Sans', verdana, arial, sans-serif; font-size: 10px; fill: rgb(0, 0, 0); fill-opacity: 1; white-space: pre;">0%</text></g><g class="xtick"><text text-anchor="middle" x="0" y="451" style="font-family: 'Lucida Grande', 'Open Sans', verdana, arial, sans-serif; font-size: 10px; fill: rgb(0, 0, 0); fill-opacity: 1; white-space: pre;" transform="translate(263,0)">20%</text></g><g class="xtick"><text text-anchor="middle" x="0" y="451" style="font-family: 'Lucida Grande', 'Open Sans', verdana, arial, sans-serif; font-size: 10px; fill: rgb(0, 0, 0); fill-opacity: 1; white-space: pre;" transform="translate(466,0)">40%</text></g><g class="xtick"><text text-anchor="middle" x="0" y="451" style="font-family: 'Lucida Grande', 'Open Sans', verdana, arial, sans-serif; font-size: 10px; fill: rgb(0, 0, 0); fill-opacity: 1; white-space: pre;" transform="translate(669,0)">60%</text></g><g class="xtick"><text text-anchor="middle" x="0" y="451" style="font-family: 'Lucida Grande', 'Open Sans', verdana, arial, sans-serif; font-size: 10px; fill: rgb(0, 0, 0); fill-opacity: 1; white-space: pre;" transform="translate(872,0)">80%</text></g><g class="xtick"><text text-anchor="middle" x="0" y="451" style="font-family: 'Lucida Grande', 'Open Sans', verdana, arial, sans-serif; font-size: 10px; fill: rgb(0, 0, 0); fill-opacity: 1; white-space: pre;" transform="translate(1075,0)">100%</text></g></g><g class="yaxislayer-above"><g class="ytick"><text text-anchor="end" x="54" y="3.5" transform="translate(0,435)" style="font-family: 'Lucida Grande', 'Open Sans', verdana, arial, sans-serif; font-size: 10px; fill: rgb(0, 0, 0); fill-opacity: 1; white-space: pre;">0%</text></g><g class="ytick"><text text-anchor="end" x="54" y="3.5" style="font-family: 'Lucida Grande', 'Open Sans', verdana, arial, sans-serif; font-size: 10px; fill: rgb(0, 0, 0); fill-opacity: 1; white-space: pre;" transform="translate(0,394.23)">0.5%</text></g><g class="ytick"><text text-anchor="end" x="54" y="3.5" style="font-family: 'Lucida Grande', 'Open Sans', verdana, arial, sans-serif; font-size: 10px; fill: rgb(0, 0, 0); fill-opacity: 1; white-space: pre;" transform="translate(0,353.46)">1%</text></g><g class="ytick"><text text-anchor="end" x="54" y="3.5" style="font-family: 'Lucida Grande', 'Open Sans', verdana, arial, sans-serif; font-size: 10px; fill: rgb(0, 0, 0); fill-opacity: 1; white-space: pre;" transform="translate(0,312.69)">1.5%</text></g><g class="ytick"><text text-anchor="end" x="54" y="3.5" style="font-family: 'Lucida Grande', 'Open Sans', verdana, arial, sans-serif; font-size: 10px; fill: rgb(0, 0, 0); fill-opacity: 1; white-space: pre;" transform="translate(0,271.91999999999996)">2%</text></g><g class="ytick"><text text-anchor="end" x="54" y="3.5" style="font-family: 'Lucida Grande', 'Open Sans', verdana, arial, sans-serif; font-size: 10px; fill: rgb(0, 0, 0); fill-opacity: 1; white-space: pre;" transform="translate(0,231.15)">2.5%</text></g><g class="ytick"><text text-anchor="end" x="54" y="3.5" style="font-family: 'Lucida Grande', 'Open Sans', verdana, arial, sans-serif; font-size: 10px; fill: rgb(0, 0, 0); fill-opacity: 1; white-space: pre;" transform="translate(0,190.39)">3%</text></g><g class="ytick"><text text-anchor="end" x="54" y="3.5" style="font-family: 'Lucida Grande', 'Open Sans', verdana, arial, sans-serif; font-size: 10px; fill: rgb(0, 0, 0); fill-opacity: 1; white-space: pre;" transform="translate(0,149.62)">3.5%</text></g><g class="ytick"><text text-anchor="end" x="54" y="3.5" style="font-family: 'Lucida Grande', 'Open Sans', verdana, arial, sans-serif; font-size: 10px; fill: rgb(0, 0, 0); fill-opacity: 1; white-space: pre;" transform="translate(0,108.85)">4%</text></g><g class="ytick"><text text-anchor="end" x="54" y="3.5" style="font-family: 'Lucida Grande', 'Open Sans', verdana, arial, sans-serif; font-size: 10px; fill: rgb(0, 0, 0); fill-opacity: 1; white-space: pre;" transform="translate(0,68.08)">4.5%</text></g></g><g class="overaxes-above"/></g></g><g class="polarlayer"/><g class="smithlayer"/><g class="ternarylayer"/><g class="geolayer"/><g class="funnelarealayer"/><g class="pielayer"/><g class="iciclelayer"/><g class="treemaplayer"/><g class="sunburstlayer"/><g class="glimages"/><defs id="topdefs-d723bb"><g class="clips"/></defs><g class="layer-above"><g class="imagelayer"/><g class="shapelayer"/></g><g class="infolayer"><g class="g-gtitle"><text class="gtitle" x="550" y="25" text-anchor="middle" dy="0em" style="opacity: 1; font-family: 'Lucida Grande', 'Open Sans', verdana, arial, sans-serif; font-size: 20px; fill: rgb(68, 68, 68); fill-opacity: 1; white-space: pre;"><tspan class="line" dy="0em" x="550" y="25">FastQC: Per Sequence GC Content</tspan><tspan class="line" dy="1.3em" x="550" y="25">​<tspan style="font-size:70%" dy="-0.6em">Percentages, 16 lines</tspan><tspan dy="0.42em">​</tspan></tspan></text></g><g class="g-xtitle"><text class="xtitle" x="567.5" y="487" text-anchor="middle" style="opacity: 0.3; font-family: 'Lucida Grande', 'Open Sans', verdana, arial, sans-serif; font-size: 14px; fill: rgb(0, 0, 0); fill-opacity: 1; white-space: pre;">% GC</text></g><g class="g-ytitle"><text class="ytitle" transform="rotate(-90,22,242.5)" x="22" y="242.5" text-anchor="middle" style="opacity: 0.3; font-family: 'Lucida Grande', 'Open Sans', verdana, arial, sans-serif; font-size: 14px; fill: rgb(0, 0, 0); fill-opacity: 1; white-space: pre;">Percentage</text></g></g></svg>