<svg class="main-svg" xmlns="http://www.w3.org/2000/svg" xmlns:xlink="http://www.w3.org/1999/xlink" width="2200" height="1000" style="" viewBox="0 0 1100 500"><rect x="0" y="0" width="1100" height="500" style="fill: rgb(255, 255, 255); fill-opacity: 1;"/><defs id="defs-e79145"><g class="clips"><clipPath id="clipe79145xyplot" class="plotclip"><rect width="1015" height="385"/></clipPath><clipPath class="axesclip" id="clipe79145x"><rect x="60" y="0" width="1015" height="500"/></clipPath><clipPath class="axesclip" id="clipe79145y"><rect x="0" y="50" width="1100" height="385"/></clipPath><clipPath class="axesclip" id="clipe79145xy"><rect x="60" y="50" width="1015" height="385"/></clipPath></g><g class="gradients"/><g class="patterns"/></defs><g class="bglayer"/><g class="layer-below"><g class="imagelayer"/><g class="shapelayer"/></g><g class="cartesianlayer"><g class="subplot xy"><g class="layer-subplot"><g class="shapelayer"/><g class="imagelayer"/></g><g class="minor-gridlayer"><g class="x"/><g class="y"/></g><g class="gridlayer"><g class="x"><path class="xgrid crisp" transform="translate(263,0)" d="M0,50v385" style="stroke: rgb(0, 0, 0); stroke-opacity: 0.05; stroke-width: 1px;"/><path class="xgrid crisp" transform="translate(466,0)" d="M0,50v385" style="stroke: rgb(0, 0, 0); stroke-opacity: 0.05; stroke-width: 1px;"/><path class="xgrid crisp" transform="translate(669,0)" d="M0,50v385" style="stroke: rgb(0, 0, 0); stroke-opacity: 0.05; stroke-width: 1px;"/><path class="xgrid crisp" transform="translate(872,0)" d="M0,50v385" style="stroke: rgb(0, 0, 0); stroke-opacity: 0.05; stroke-width: 1px;"/></g><g class="y"><path class="ygrid crisp" transform="translate(0,394.05)" d="M60,0h1015" style="stroke: rgb(0, 0, 0); stroke-opacity: 0.05; stroke-width: 1px;"/><path class="ygrid crisp" transform="translate(0,353.1)" d="M60,0h1015" style="stroke: rgb(0, 0, 0); stroke-opacity: 0.05; stroke-width: 1px;"/><path class="ygrid crisp" transform="translate(0,312.15)" d="M60,0h1015" style="stroke: rgb(0, 0, 0); stroke-opacity: 0.05; stroke-width: 1px;"/><path class="ygrid crisp" transform="translate(0,271.2)" d="M60,0h1015" style="stroke: rgb(0, 0, 0); stroke-opacity: 0.05; stroke-width: 1px;"/><path class="ygrid crisp" transform="translate(0,230.25)" d="M60,0h1015" style="stroke: rgb(0, 0, 0); stroke-opacity: 0.05; stroke-width: 1px;"/><path class="ygrid crisp" transform="translate(0,189.31)" d="M60,0h1015" style="stroke: rgb(0, 0, 0); stroke-opacity: 0.05; stroke-width: 1px;"/><path class="ygrid crisp" transform="translate(0,148.36)" d="M60,0h1015" style="stroke: rgb(0, 0, 0); stroke-opacity: 0.05; stroke-width: 1px;"/><path class="ygrid crisp" transform="translate(0,107.41)" d="M60,0h1015" style="stroke: rgb(0, 0, 0); stroke-opacity: 0.05; stroke-width: 1px;"/><path class="ygrid crisp" transform="translate(0,66.46000000000001)" d="M60,0h1015" style="stroke: rgb(0, 0, 0); stroke-opacity: 0.05; stroke-width: 1px;"/></g></g><g class="zerolinelayer"><path class="xzl zl crisp" transform="translate(60,0)" d="M0,50v385" style="stroke: rgb(0, 0, 0); stroke-opacity: 0.05; stroke-width: 1px;"/><path class="yzl zl crisp" transform="translate(0,435)" d="M60,0h1015" style="stroke: rgb(0, 0, 0); stroke-opacity: 0.05; stroke-width: 1px;"/></g><g class="layer-between"><g class="shapelayer"/><g class="imagelayer"/></g><path class="xlines-below"/><path class="ylines-below"/><g class="overlines-below"/><g class="xaxislayer-below"/><g class="yaxislayer-below"/><g class="overaxes-below"/><g class="overplot"><g class="xy" transform="translate(60,50)" clip-path="url(#clipe79145xyplot)"><g class="scatterlayer mlayer"><g class="trace scatter trace47975c" style="stroke-miterlimit: 2; opacity: 1;"><g class="fills"/><g class="errorbars"/><g class="lines"><path class="js-line" d="M0,376.29L20.3,384.99L30.45,384.99L233.45,384.4L243.6,384.1L263.9,382.77L274.05,381.45L284.2,379.43L294.35,376.4L304.5,372.05L314.65,365.88L324.8,357.15L334.95,345.36L345.1,330.33L355.25,311.09L365.4,286.35L375.55,257.32L385.7,225.28L395.85,190.62L416.15,121.91L426.3,90.93L436.45,64.21L446.6,43.78L456.75,32.36L466.9,31.33L477.05,38.92L487.2,51.83L497.35,70.35L507.5,92.68L517.65,115.73L527.8,136.13L548.1,174.75L558.25,190.43L578.55,220.76L588.7,231.89L598.85,241.34L609,246.36L619.15,248.78L629.3,250.26L669.9,252.75L680.05,255.31L690.2,259.72L700.35,265.31L720.65,281.1L730.8,289.89L751.1,308.1L761.25,318.64L781.55,339.33L791.7,348.11L801.85,355.19L812,361.34L822.15,366.65L832.3,370.76L862.75,380.87L872.9,382.77L893.2,384.17L903.35,384.48L964.25,384.94L974.4,384.95L1015,384.95" style="vector-effect: none; fill: none; stroke: rgb(217, 83, 79); stroke-opacity: 1; stroke-width: 2px; opacity: 1;"/></g><g class="points"/><g class="text"/></g><g class="trace scatter trace5c9eb2" style="stroke-miterlimit: 2; opacity: 1;"><g class="fills"/><g class="errorbars"/><g class="lines"><path class="js-line" d="M0,376.66L20.3,384.98L30.45,384.98L233.45,384.42L243.6,384.15L263.9,383.01L274.05,381.85L284.2,380.04L294.35,377.4L304.5,373.6L314.65,368.16L324.8,360.42L334.95,350.12L345.1,336.17L355.25,317.78L365.4,295.14L375.55,268.19L385.7,237.43L395.85,203.3L416.15,132.46L426.3,101.64L436.45,75.15L446.6,55.06L456.75,44.88L466.9,45.28L477.05,53.28L487.2,66.75L497.35,84.7L507.5,105.24L517.65,124.94L527.8,142.6L548.1,176.45L558.25,192.2L568.4,206.72L578.55,219.21L588.7,228.49L598.85,234.75L609,238.34L619.15,239.17L639.45,240.62L649.6,240.29L669.9,238.61L680.05,241.1L700.35,250.44L710.5,258.2L730.8,278.22L740.95,288.94L781.55,332.98L791.7,342.7L801.85,350.85L812,357.85L822.15,364.28L832.3,369.18L852.6,377.24L862.75,380.29L872.9,382.21L883.05,383.31L913.5,384.54L923.65,384.66L1004.85,384.73L1015,382.58" style="vector-effect: none; fill: none; stroke: rgb(217, 83, 79); stroke-opacity: 1; stroke-width: 2px; opacity: 1;"/></g><g class="points"/><g class="text"/></g><g class="trace scatter trace99e35b" style="stroke-miterlimit: 2; opacity: 1;"><g class="fills"/><g class="errorbars"/><g class="lines"><path class="js-line" d="M0,375.23L20.3,384.99L30.45,384.99L243.6,384.32L253.75,383.94L274.05,382.11L284.2,380.34L294.35,377.76L304.5,374.01L314.65,368.45L324.8,360.48L334.95,350.17L345.1,337.17L355.25,320L365.4,296.99L375.55,269.83L385.7,239.93L426.3,108.64L436.45,81.4L446.6,59.99L456.75,46.5L466.9,42.99L477.05,47.38L487.2,56.89L497.35,72.21L507.5,91.72L517.65,113.32L527.8,132.34L537.95,149.63L548.1,167.77L558.25,183.85L568.4,199.59L578.55,213.85L588.7,225.36L598.85,234.95L609,240.03L619.15,242.49L629.3,243.88L639.45,244.46L649.6,244.9L659.75,243.91L669.9,243.9L680.05,246.06L690.2,249.44L700.35,254.6L710.5,261.63L720.65,270.13L740.95,289.18L751.1,299.57L781.55,334.42L791.7,344.44L801.85,352.35L812,359.3L822.15,365.14L832.3,369.81L852.6,377.69L862.75,380.71L872.9,382.45L883.05,383.38L913.5,384.61L923.65,384.79L1015,384.95" style="vector-effect: none; fill: none; stroke: rgb(217, 83, 79); stroke-opacity: 1; stroke-width: 2px; opacity: 1;"/></g><g class="points"/><g class="text"/></g><g class="trace scatter traced7a6b7" style="stroke-miterlimit: 2; opacity: 1;"><g class="fills"/><g class="errorbars"/><g class="lines"><path class="js-line" d="M0,375.65L20.3,384.98L30.45,384.98L243.6,384.26L253.75,383.89L274.05,382.22L284.2,380.64L294.35,378.22L304.5,374.76L314.65,369.87L324.8,362.9L334.95,353.8L345.1,341.49L355.25,324.78L365.4,303.79L375.55,278.83L385.7,250.23L406,183.67L416.15,149.86L426.3,119.26L436.45,93.02L446.6,72.48L456.75,60.77L466.9,58.95L477.05,63.74L487.2,74.02L497.35,88.85L517.65,124.8L527.8,140.81L548.1,171.51L558.25,186.22L578.55,214.04L588.7,223.98L598.85,230.46L609,234.59L619.15,234.66L629.3,232.9L649.6,232.53L659.75,230.64L669.9,229.07L680.05,229.87L690.2,232.84L700.35,237.89L710.5,245.86L720.65,255.78L740.95,278.87L751.1,291.27L781.55,327.86L791.7,339.23L801.85,348.17L812,355.56L822.15,362.36L832.3,368.01L852.6,376.9L862.75,380L883.05,383.09L893.2,383.79L933.8,384.68L943.95,384.75L1004.85,384.75L1015,382.73" style="vector-effect: none; fill: none; stroke: rgb(217, 83, 79); stroke-opacity: 1; stroke-width: 2px; opacity: 1;"/></g><g class="points"/><g class="text"/></g><g class="trace scatter tracef2d2d2" style="stroke-miterlimit: 2; opacity: 1;"><g class="fills"/><g class="errorbars"/><g class="lines"><path class="js-line" d="M0,374.62L20.3,384.99L30.45,384.99L233.45,384.49L243.6,384.22L263.9,382.94L274.05,381.63L284.2,379.59L294.35,376.51L304.5,371.98L314.65,365.44L324.8,356.21L334.95,344.21L345.1,329.1L355.25,309.57L365.4,284.1L375.55,254.48L385.7,222.55L395.85,188.01L416.15,119.07L426.3,87.92L436.45,62.45L446.6,43.59L456.75,32.48L466.9,31.66L477.05,39.12L487.2,52.36L497.35,70.84L507.5,91.61L517.65,113.52L527.8,133L548.1,170.21L558.25,186.61L568.4,203.16L578.55,217.99L598.85,241.26L609,247.24L619.15,250.38L629.3,252.72L649.6,256.25L659.75,256.86L680.05,260.59L690.2,263.27L700.35,268.06L710.5,274.54L730.8,290.79L740.95,299.83L761.25,319.64L771.4,330.1L781.55,340.24L791.7,349.15L812,362.42L822.15,367.72L842.45,375.61L852.6,378.85L862.75,381.26L872.9,382.73L893.2,384.03L903.35,384.37L954.1,384.9L964.25,384.91L1015,384.96" style="vector-effect: none; fill: none; stroke: rgb(217, 83, 79); stroke-opacity: 1; stroke-width: 2px; opacity: 1;"/></g><g class="points"/><g class="text"/></g><g class="trace scatter tracef6b981" style="stroke-miterlimit: 2; opacity: 1;"><g class="fills"/><g class="errorbars"/><g class="lines"><path class="js-line" d="M0,375.08L20.3,384.97L30.45,384.98L243.6,384.21L253.75,383.81L274.05,381.85L284.2,379.98L294.35,377.19L304.5,373.08L314.65,367.24L324.8,359.09L334.95,348.44L345.1,334.1L355.25,315.3L365.4,291.81L375.55,263.95L385.7,232.85L416.15,128.68L426.3,98.39L436.45,73.31L446.6,54.79L456.75,45.29L466.9,45.32L477.05,51.99L487.2,65.2L507.5,103.15L517.65,121.95L548.1,172.28L558.25,187.44L568.4,202.64L578.55,216.46L588.7,227.53L598.85,235.7L609,241.65L619.15,243.49L629.3,243.87L639.45,245.58L649.6,246.19L659.75,245.41L669.9,244.66L680.05,245.22L690.2,248.26L700.35,253.34L710.5,260.4L720.65,269.33L740.95,291.02L751.1,302.67L771.4,324.59L781.55,335.41L791.7,345.37L801.85,353.03L822.15,365.32L832.3,370.39L842.45,374.7L852.6,378.15L862.75,380.75L872.9,382.38L893.2,383.96L903.35,384.32L954.1,384.8L964.25,384.83L1004.85,384.71L1015,382.32" style="vector-effect: none; fill: none; stroke: rgb(217, 83, 79); stroke-opacity: 1; stroke-width: 2px; opacity: 1;"/></g><g class="points"/><g class="text"/></g><g class="trace scatter trace2b3b05" style="stroke-miterlimit: 2; opacity: 1;"><g class="fills"/><g class="errorbars"/><g class="lines"><path class="js-line" d="M0,378.05L20.3,384.99L30.45,384.99L233.45,384.45L243.6,384.12L263.9,382.75L274.05,381.34L284.2,379.13L294.35,375.93L304.5,371.34L314.65,364.92L324.8,356.14L334.95,344.73L345.1,330.06L355.25,311.23L365.4,287.32L375.55,259.02L385.7,227.16L395.85,192.42L416.15,122.57L426.3,90.52L436.45,63.76L446.6,44.05L456.75,33.15L466.9,32.96L477.05,41.4L487.2,54.6L497.35,72.48L507.5,93.78L517.65,116.76L527.8,137.05L548.1,173L558.25,189.21L578.55,220.09L588.7,231.96L598.85,241.78L609,247.59L619.15,250.51L629.3,252.16L649.6,255.14L659.75,254.65L669.9,255.23L680.05,256.86L690.2,258.95L700.35,263.15L710.5,269.29L720.65,276.93L751.1,304.52L761.25,315.23L781.55,337.37L791.7,346.75L812,360.78L822.15,366.36L842.45,374.89L852.6,378.32L862.75,380.88L872.9,382.49L893.2,383.94L903.35,384.39L943.95,384.92L954.1,384.94L1015,384.96" style="vector-effect: none; fill: none; stroke: rgb(217, 83, 79); stroke-opacity: 1; stroke-width: 2px; opacity: 1;"/></g><g class="points"/><g class="text"/></g><g class="trace scatter tracece22ac" style="stroke-miterlimit: 2; opacity: 1;"><g class="fills"/><g class="errorbars"/><g class="lines"><path class="js-line" d="M0,378.39L20.3,384.98L30.45,384.98L233.45,384.37L243.6,384.04L263.9,382.68L274.05,381.28L284.2,379.1L294.35,376.03L304.5,371.72L314.65,365.79L324.8,357.83L334.95,347.48L345.1,333.67L355.25,315.65L365.4,293.17L375.55,266L385.7,235.21L395.85,201.55L416.15,131.51L426.3,100.28L436.45,74.5L446.6,56.01L456.75,46.63L466.9,47.7L477.05,55.99L487.2,69.62L497.35,87.39L507.5,107.64L517.65,127.57L527.8,144.87L537.95,161.34L548.1,176.33L578.55,220.16L588.7,229.74L598.85,236.58L609,241.86L619.15,243.96L629.3,244.26L639.45,244.77L649.6,244.36L669.9,241.51L680.05,241.63L690.2,243.92L700.35,248.66L710.5,255.65L720.65,264.05L730.8,273.9L740.95,285.3L781.55,331.95L791.7,342.6L801.85,351.1L812,358.15L832.3,369.82L842.45,374.17L852.6,377.7L862.75,380.3L883.05,383.14L893.2,383.8L923.65,384.61L933.8,384.68L1004.85,384.7L1015,382.27" style="vector-effect: none; fill: none; stroke: rgb(217, 83, 79); stroke-opacity: 1; stroke-width: 2px; opacity: 1;"/></g><g class="points"/><g class="text"/></g><g class="trace scatter trace54ad11" style="stroke-miterlimit: 2; opacity: 1;"><g class="fills"/><g class="errorbars"/><g class="lines"><path class="js-line" d="M0,370.21L20.3,384.99L30.45,384.99L233.45,384.45L243.6,384.11L263.9,382.66L274.05,381.08L284.2,378.54L294.35,374.83L304.5,369.38L314.65,361.43L324.8,350.51L334.95,336.49L345.1,318.76L355.25,296.51L365.4,269L375.55,237.57L395.85,168.62L406,133.44L416.15,100.28L426.3,70.84L436.45,46.42L446.6,28.79L456.75,19.25L466.9,20.3L477.05,30.8L487.2,47.04L497.35,68.76L507.5,92.26L517.65,116.37L527.8,138.19L548.1,177.77L558.25,195.34L568.4,212.99L578.55,227.58L598.85,251.18L609,257.67L619.15,261.16L629.3,263.4L680.05,270.61L690.2,273.93L700.35,279L710.5,285.04L720.65,291.48L730.8,299.29L771.4,335.44L781.55,344.83L791.7,352.73L801.85,358.85L822.15,369.35L832.3,373.13L852.6,379.41L862.75,381.71L883.05,383.77L893.2,384.2L933.8,384.89L943.95,384.91L1015,384.95" style="vector-effect: none; fill: none; stroke: rgb(217, 83, 79); stroke-opacity: 1; stroke-width: 2px; opacity: 1;"/></g><g class="points"/><g class="text"/></g><g class="trace scatter trace8fe173" style="stroke-miterlimit: 2; opacity: 1;"><g class="fills"/><g class="errorbars"/><g class="lines"><path class="js-line" d="M0,370.93L20.3,384.98L30.45,384.98L233.45,384.41L243.6,384.08L263.9,382.65L274.05,381.12L284.2,378.8L294.35,375.29L304.5,370.18L314.65,362.89L324.8,352.79L334.95,339.85L345.1,322.93L355.25,301.41L365.4,275.8L375.55,246.34L385.7,214.01L395.85,179.16L416.15,109.27L426.3,80.34L436.45,56.13L446.6,38.91L456.75,31.23L466.9,33.39L477.05,44.04L487.2,60.64L537.95,161.31L548.1,179.36L568.4,213.01L578.55,226.9L588.7,237.8L598.85,245.8L609,251.6L619.15,254.47L639.45,257.3L649.6,257.63L669.9,257.41L680.05,258.52L690.2,261.73L700.35,266.44L720.65,280.35L730.8,289.35L781.55,339.63L791.7,348.3L801.85,355.45L812,361.57L822.15,367.09L832.3,371.7L852.6,378.49L862.75,381.08L883.05,383.48L893.2,384.03L933.8,384.73L943.95,384.78L1004.85,384.74L1015,382.53" style="vector-effect: none; fill: none; stroke: rgb(217, 83, 79); stroke-opacity: 1; stroke-width: 2px; opacity: 1;"/></g><g class="points"/><g class="text"/></g><g class="trace scatter tracecc8c0e" style="stroke-miterlimit: 2; opacity: 1;"><g class="fills"/><g class="errorbars"/><g class="lines"><path class="js-line" d="M0,376.05L20.3,384.99L30.45,384.99L233.45,384.38L243.6,384.06L263.9,382.55L274.05,381.06L284.2,378.79L294.35,375.5L304.5,370.85L314.65,364.21L324.8,355.02L334.95,343.34L345.1,328.63L355.25,309.68L365.4,285.56L375.55,257.34L385.7,225.97L395.85,191.4L416.15,122.3L426.3,90.98L436.45,64.54L446.6,44.68L456.75,33.34L466.9,32.26L477.05,39.87L487.2,53.31L497.35,72.93L507.5,94.93L517.65,117.51L527.8,138.21L548.1,175.76L558.25,192.14L568.4,208.28L578.55,222.23L588.7,233.44L598.85,243.09L609,248.22L619.15,250.88L639.45,253.85L649.6,254.26L669.9,254.55L680.05,255.36L690.2,258.08L700.35,263.07L720.65,277.02L730.8,285.48L751.1,304.89L761.25,315.63L781.55,337.48L791.7,346.73L812,360.92L822.15,366.55L842.45,374.98L852.6,378.42L862.75,381.08L872.9,382.68L893.2,384.03L903.35,384.41L954.1,384.93L964.25,384.95L1015,384.95" style="vector-effect: none; fill: none; stroke: rgb(217, 83, 79); stroke-opacity: 1; stroke-width: 2px; opacity: 1;"/></g><g class="points"/><g class="text"/></g><g class="trace scatter trace88b97e" style="stroke-miterlimit: 2; opacity: 1;"><g class="fills"/><g class="errorbars"/><g class="lines"><path class="js-line" d="M0,376.49L20.3,384.98L30.45,384.98L233.45,384.34L243.6,383.99L263.9,382.51L274.05,381.03L284.2,378.86L294.35,375.74L304.5,371.42L314.65,365.44L324.8,357.28L334.95,346.89L345.1,332.81L355.25,314.56L365.4,292.29L375.55,265.59L385.7,235.39L395.85,201.69L416.15,131.43L426.3,100.66L436.45,75.26L446.6,56.59L456.75,46.92L466.9,46.94L477.05,54.62L487.2,68.98L507.5,107.44L517.65,126.53L537.95,162.64L548.1,178.69L568.4,208.88L578.55,221.65L588.7,231.33L598.85,238.07L609,242.24L619.15,243.46L639.45,244.62L649.6,244.11L669.9,241.22L680.05,241.81L690.2,244.27L700.35,248.74L710.5,255.84L720.65,264.16L730.8,273.98L740.95,285.18L781.55,331.71L791.7,341.97L801.85,350.52L812,357.77L822.15,364.14L832.3,369.49L852.6,377.52L862.75,380.42L883.05,383.22L893.2,383.85L933.8,384.7L943.95,384.76L1004.85,384.73L1015,382.52" style="vector-effect: none; fill: none; stroke: rgb(217, 83, 79); stroke-opacity: 1; stroke-width: 2px; opacity: 1;"/></g><g class="points"/><g class="text"/></g><g class="trace scatter trace9431d1" style="stroke-miterlimit: 2; opacity: 1;"><g class="fills"/><g class="errorbars"/><g class="lines"><path class="js-line" d="M0,368.56L20.3,384.99L30.45,385L243.6,384.21L253.75,383.73L274.05,381.48L284.2,379.28L294.35,376.03L304.5,371.39L314.65,364.69L324.8,355.45L334.95,343.76L345.1,328.72L355.25,309.14L365.4,284.74L375.55,256.55L385.7,225.37L416.15,123.07L426.3,92.63L436.45,67.57L446.6,48.7L456.75,37.91L466.9,37.42L477.05,44.94L487.2,58.34L497.35,77.36L507.5,98.11L527.8,140.27L537.95,158.33L548.1,176.56L558.25,192.71L568.4,208.76L578.55,222.77L588.7,233.68L598.85,243.25L609,248.39L619.15,250.74L639.45,253.72L649.6,253.86L669.9,253.4L680.05,253.36L690.2,255.15L700.35,259.34L710.5,265.3L720.65,272.75L730.8,281.76L740.95,291.91L761.25,313.78L771.4,325.25L781.55,336.63L791.7,346.09L812,360.6L822.15,366.38L842.45,375.04L852.6,378.42L862.75,380.97L872.9,382.54L903.35,384.36L913.5,384.64L974.4,384.95L984.55,384.96L1015,384.96" style="vector-effect: none; fill: none; stroke: rgb(217, 83, 79); stroke-opacity: 1; stroke-width: 2px; opacity: 1;"/></g><g class="points"/><g class="text"/></g><g class="trace scatter trace009c21" style="stroke-miterlimit: 2; opacity: 1;"><g class="fills"/><g class="errorbars"/><g class="lines"><path class="js-line" d="M0,369.17L20.3,384.98L30.45,384.98L233.45,384.44L243.6,384.14L263.9,382.83L274.05,381.47L284.2,379.34L294.35,376.18L304.5,371.76L314.65,365.61L324.8,357.25L334.95,346.56L345.1,332.15L355.25,313.38L365.4,290.64L375.55,263.86L385.7,233.5L395.85,200.14L416.15,131.42L426.3,101.52L436.45,77.21L446.6,60.03L456.75,51.33L466.9,51.3L477.05,58.42L487.2,72.22L527.8,146.59L537.95,163.79L558.25,194.62L568.4,209.32L578.55,222.03L588.7,231.31L598.85,237.58L609,242.28L619.15,244.8L629.3,245.34L639.45,245.53L649.6,244.35L669.9,241.16L680.05,240.52L690.2,242.16L700.35,246.16L710.5,252.44L720.65,260.49L730.8,270.75L740.95,282.88L761.25,307.97L771.4,319.74L781.55,331.58L791.7,342.14L801.85,350.71L812,357.91L832.3,369.61L842.45,374.01L862.75,380.34L872.9,382.09L893.2,383.78L903.35,384.18L943.95,384.75L954.1,384.79L1004.85,384.73L1015,382.56" style="vector-effect: none; fill: none; stroke: rgb(217, 83, 79); stroke-opacity: 1; stroke-width: 2px; opacity: 1;"/></g><g class="points"/><g class="text"/></g><g class="trace scatter trace806939" style="stroke-miterlimit: 2; opacity: 1;"><g class="fills"/><g class="errorbars"/><g class="lines"><path class="js-line" d="M0,378.85L20.3,384.99L30.45,384.99L233.45,384.43L243.6,384.11L263.9,382.66L274.05,381.15L284.2,378.83L294.35,375.54L304.5,370.8L314.65,364.11L324.8,355.1L334.95,343.65L345.1,329L355.25,310.25L365.4,286.8L375.55,259.53L385.7,228.93L395.85,195.19L416.15,127.24L426.3,95.96L436.45,70.59L446.6,51.37L456.75,39.72L466.9,38.17L477.05,45.23L487.2,58.25L497.35,76.15L507.5,96.54L517.65,118.36L527.8,138.02L548.1,174.05L558.25,189.88L568.4,205.56L578.55,219.41L588.7,230.45L598.85,239.92L609,245.12L619.15,247.85L629.3,249.84L639.45,250.87L669.9,251.65L680.05,252.53L690.2,254.89L700.35,259.44L710.5,265.84L720.65,273.17L730.8,281.95L740.95,291.89L761.25,313.7L771.4,325.02L781.55,336.58L791.7,346.16L812,360.49L822.15,366.28L842.45,375.05L852.6,378.45L862.75,380.99L872.9,382.58L903.35,384.42L913.5,384.67L984.55,384.96L994.7,384.95L1015,384.95" style="vector-effect: none; fill: none; stroke: rgb(217, 83, 79); stroke-opacity: 1; stroke-width: 2px; opacity: 1;"/></g><g class="points"/><g class="text"/></g><g class="trace scatter trace707dd3" style="stroke-miterlimit: 2; opacity: 1;"><g class="fills"/><g class="errorbars"/><g class="lines"><path class="js-line" d="M0,379.14L20.3,384.98L30.45,384.98L233.45,384.37L243.6,384.01L263.9,382.58L274.05,381.09L284.2,378.86L294.35,375.66L304.5,371.15L314.65,365.05L324.8,356.84L334.95,346.52L345.1,332.78L355.25,314.77L365.4,292.83L375.55,266.76L385.7,236.98L395.85,204.16L416.15,135.39L426.3,105.19L436.45,81.03L446.6,62.69L456.75,52.63L466.9,52.36L477.05,59.34L487.2,72.76L497.35,90.35L507.5,109.5L527.8,145L537.95,161.8L568.4,206.23L578.55,218.36L588.7,227.57L598.85,234.43L609,239.75L619.15,241.82L639.45,242.21L649.6,241.15L669.9,238.61L680.05,238.67L690.2,241.27L700.35,245.62L710.5,252.53L720.65,260.88L730.8,271.11L740.95,283.18L771.4,319.58L781.55,331.41L791.7,341.99L801.85,350.71L822.15,363.91L832.3,369.55L842.45,374.04L852.6,377.6L862.75,380.39L872.9,382.14L893.2,383.86L903.35,384.25L954.1,384.8L964.25,384.83L1004.85,384.74L1015,382.5" style="vector-effect: none; fill: none; stroke: rgb(217, 83, 79); stroke-opacity: 1; stroke-width: 2px; opacity: 1;"/></g><g class="points"/><g class="text"/></g></g></g></g><g class="zerolinelayer-above"/><path class="xlines-above crisp" d="M0,0" style="fill: none;"/><path class="ylines-above crisp" d="M0,0" style="fill: none;"/><g class="overlines-above"/><g class="xaxislayer-above"><g class="xtick"><text text-anchor="middle" x="0" y="451" transform="translate(60,0)" style="font-family: 'Lucida Grande', 'Open Sans', verdana, arial, sans-serif; font-size: 10px; fill: rgb(0, 0, 0); fill-opacity: 1; white-space: pre;">0%</text></g><g class="xtick"><text text-anchor="middle" x="0" y="451" style="font-family: 'Lucida Grande', 'Open Sans', verdana, arial, sans-serif; font-size: 10px; fill: rgb(0, 0, 0); fill-opacity: 1; white-space: pre;" transform="translate(263,0)">20%</text></g><g class="xtick"><text text-anchor="middle" x="0" y="451" style="font-family: 'Lucida Grande', 'Open Sans', verdana, arial, sans-serif; font-size: 10px; fill: rgb(0, 0, 0); fill-opacity: 1; white-space: pre;" transform="translate(466,0)">40%</text></g><g class="xtick"><text text-anchor="middle" x="0" y="451" style="font-family: 'Lucida Grande', 'Open Sans', verdana, arial, sans-serif; font-size: 10px; fill: rgb(0, 0, 0); fill-opacity: 1; white-space: pre;" transform="translate(669,0)">60%</text></g><g class="xtick"><text text-anchor="middle" x="0" y="451" style="font-family: 'Lucida Grande', 'Open Sans', verdana, arial, sans-serif; font-size: 10px; fill: rgb(0, 0, 0); fill-opacity: 1; white-space: pre;" transform="translate(872,0)">80%</text></g><g class="xtick"><text text-anchor="middle" x="0" y="451" style="font-family: 'Lucida Grande', 'Open Sans', verdana, arial, sans-serif; font-size: 10px; fill: rgb(0, 0, 0); fill-opacity: 1; white-space: pre;" transform="translate(1075,0)">100%</text></g></g><g class="yaxislayer-above"><g class="ytick"><text text-anchor="end" x="54" y="3.5" transform="translate(0,435)" style="font-family: 'Lucida Grande', 'Open Sans', verdana, arial, sans-serif; font-size: 10px; fill: rgb(0, 0, 0); fill-opacity: 1; white-space: pre;">0%</text></g><g class="ytick"><text text-anchor="end" x="54" y="3.5" style="font-family: 'Lucida Grande', 'Open Sans', verdana, arial, sans-serif; font-size: 10px; fill: rgb(0, 0, 0); fill-opacity: 1; white-space: pre;" transform="translate(0,394.05)">0.5%</text></g><g class="ytick"><text text-anchor="end" x="54" y="3.5" style="font-family: 'Lucida Grande', 'Open Sans', verdana, arial, sans-serif; font-size: 10px; fill: rgb(0, 0, 0); fill-opacity: 1; white-space: pre;" transform="translate(0,353.1)">1%</text></g><g class="ytick"><text text-anchor="end" x="54" y="3.5" style="font-family: 'Lucida Grande', 'Open Sans', verdana, arial, sans-serif; font-size: 10px; fill: rgb(0, 0, 0); fill-opacity: 1; white-space: pre;" transform="translate(0,312.15)">1.5%</text></g><g class="ytick"><text text-anchor="end" x="54" y="3.5" style="font-family: 'Lucida Grande', 'Open Sans', verdana, arial, sans-serif; font-size: 10px; fill: rgb(0, 0, 0); fill-opacity: 1; white-space: pre;" transform="translate(0,271.2)">2%</text></g><g class="ytick"><text text-anchor="end" x="54" y="3.5" style="font-family: 'Lucida Grande', 'Open Sans', verdana, arial, sans-serif; font-size: 10px; fill: rgb(0, 0, 0); fill-opacity: 1; white-space: pre;" transform="translate(0,230.25)">2.5%</text></g><g class="ytick"><text text-anchor="end" x="54" y="3.5" style="font-family: 'Lucida Grande', 'Open Sans', verdana, arial, sans-serif; font-size: 10px; fill: rgb(0, 0, 0); fill-opacity: 1; white-space: pre;" transform="translate(0,189.31)">3%</text></g><g class="ytick"><text text-anchor="end" x="54" y="3.5" style="font-family: 'Lucida Grande', 'Open Sans', verdana, arial, sans-serif; font-size: 10px; fill: rgb(0, 0, 0); fill-opacity: 1; white-space: pre;" transform="translate(0,148.36)">3.5%</text></g><g class="ytick"><text text-anchor="end" x="54" y="3.5" style="font-family: 'Lucida Grande', 'Open Sans', verdana, arial, sans-serif; font-size: 10px; fill: rgb(0, 0, 0); fill-opacity: 1; white-space: pre;" transform="translate(0,107.41)">4%</text></g><g class="ytick"><text text-anchor="end" x="54" y="3.5" style="font-family: 'Lucida Grande', 'Open Sans', verdana, arial, sans-serif; font-size: 10px; fill: rgb(0, 0, 0); fill-opacity: 1; white-space: pre;" transform="translate(0,66.46000000000001)">4.5%</text></g></g><g class="overaxes-above"/></g></g><g class="polarlayer"/><g class="smithlayer"/><g class="ternarylayer"/><g class="geolayer"/><g class="funnelarealayer"/><g class="pielayer"/><g class="iciclelayer"/><g class="treemaplayer"/><g class="sunburstlayer"/><g class="glimages"/><defs id="topdefs-e79145"><g class="clips"/></defs><g class="layer-above"><g class="imagelayer"/><g class="shapelayer"/></g><g class="infolayer"><g class="g-gtitle"><text class="gtitle" x="550" y="25" text-anchor="middle" dy="0em" style="opacity: 1; font-family: 'Lucida Grande', 'Open Sans', verdana, arial, sans-serif; font-size: 20px; fill: rgb(68, 68, 68); fill-opacity: 1; white-space: pre;"><tspan class="line" dy="0em" x="550" y="25">FastQC: Per Sequence GC Content</tspan><tspan class="line" dy="1.3em" x="550" y="25">​<tspan style="font-size:70%" dy="-0.6em">Percentages, 16 lines</tspan><tspan dy="0.42em">​</tspan></tspan></text></g><g class="g-xtitle"><text class="xtitle" x="567.5" y="487" text-anchor="middle" style="opacity: 0.3; font-family: 'Lucida Grande', 'Open Sans', verdana, arial, sans-serif; font-size: 14px; fill: rgb(0, 0, 0); fill-opacity: 1; white-space: pre;">% GC</text></g><g class="g-ytitle"><text class="ytitle" transform="rotate(-90,22,242.5)" x="22" y="242.5" text-anchor="middle" style="opacity: 0.3; font-family: 'Lucida Grande', 'Open Sans', verdana, arial, sans-serif; font-size: 14px; fill: rgb(0, 0, 0); fill-opacity: 1; white-space: pre;">Percentage</text></g></g></svg>