<svg class="main-svg" xmlns="http://www.w3.org/2000/svg" xmlns:xlink="http://www.w3.org/1999/xlink" width="2200" height="1000" style="" viewBox="0 0 1100 500"><rect x="0" y="0" width="1100" height="500" style="fill: rgb(255, 255, 255); fill-opacity: 1;"/><defs id="defs-d2cc35"><g class="clips"><clipPath id="clipd2cc35xyplot" class="plotclip"><rect width="1015" height="385"/></clipPath><clipPath class="axesclip" id="clipd2cc35x"><rect x="60" y="0" width="1015" height="500"/></clipPath><clipPath class="axesclip" id="clipd2cc35y"><rect x="0" y="50" width="1100" height="385"/></clipPath><clipPath class="axesclip" id="clipd2cc35xy"><rect x="60" y="50" width="1015" height="385"/></clipPath></g><g class="gradients"/><g class="patterns"/></defs><g class="bglayer"/><g class="layer-below"><g class="imagelayer"/><g class="shapelayer"/></g><g class="cartesianlayer"><g class="subplot xy"><g class="layer-subplot"><g class="shapelayer"/><g class="imagelayer"/></g><g class="minor-gridlayer"><g class="x"/><g class="y"/></g><g class="gridlayer"><g class="x"><path class="xgrid crisp" transform="translate(263,0)" d="M0,50v385" style="stroke: rgb(0, 0, 0); stroke-opacity: 0.05; stroke-width: 1px;"/><path class="xgrid crisp" transform="translate(466,0)" d="M0,50v385" style="stroke: rgb(0, 0, 0); stroke-opacity: 0.05; stroke-width: 1px;"/><path class="xgrid crisp" transform="translate(669,0)" d="M0,50v385" style="stroke: rgb(0, 0, 0); stroke-opacity: 0.05; stroke-width: 1px;"/><path class="xgrid crisp" transform="translate(872,0)" d="M0,50v385" style="stroke: rgb(0, 0, 0); stroke-opacity: 0.05; stroke-width: 1px;"/></g><g class="y"><path class="ygrid crisp" transform="translate(0,377.4)" d="M60,0h1015" style="stroke: rgb(0, 0, 0); stroke-opacity: 0.05; stroke-width: 1px;"/><path class="ygrid crisp" transform="translate(0,319.79)" d="M60,0h1015" style="stroke: rgb(0, 0, 0); stroke-opacity: 0.05; stroke-width: 1px;"/><path class="ygrid crisp" transform="translate(0,262.19)" d="M60,0h1015" style="stroke: rgb(0, 0, 0); stroke-opacity: 0.05; stroke-width: 1px;"/><path class="ygrid crisp" transform="translate(0,204.58)" d="M60,0h1015" style="stroke: rgb(0, 0, 0); stroke-opacity: 0.05; stroke-width: 1px;"/><path class="ygrid crisp" transform="translate(0,146.98000000000002)" d="M60,0h1015" style="stroke: rgb(0, 0, 0); stroke-opacity: 0.05; stroke-width: 1px;"/><path class="ygrid crisp" transform="translate(0,89.37)" d="M60,0h1015" style="stroke: rgb(0, 0, 0); stroke-opacity: 0.05; stroke-width: 1px;"/></g></g><g class="zerolinelayer"><path class="xzl zl crisp" transform="translate(60,0)" d="M0,50v385" style="stroke: rgb(0, 0, 0); stroke-opacity: 0.05; stroke-width: 1px;"/><path class="yzl zl crisp" transform="translate(0,435)" d="M60,0h1015" style="stroke: rgb(0, 0, 0); stroke-opacity: 0.05; stroke-width: 1px;"/></g><g class="layer-between"><g class="shapelayer"/><g class="imagelayer"/></g><path class="xlines-below"/><path class="ylines-below"/><g class="overlines-below"/><g class="xaxislayer-below"/><g class="yaxislayer-below"/><g class="overaxes-below"/><g class="overplot"><g class="xy" transform="translate(60,50)" clip-path="url(#clipd2cc35xyplot)"><g class="scatterlayer mlayer"><g class="trace scatter tracee83be7" style="stroke-miterlimit: 2; opacity: 1;"><g class="fills"/><g class="errorbars"/><g class="lines"><path class="js-line" d="M0,381.68L50.75,375.66L60.9,372.39L81.2,370.1L91.35,357.63L101.5,343.68L111.65,334.53L121.8,317.27L131.95,304.27L152.25,278.05L162.4,257.32L172.55,240.07L182.7,225.34L192.85,207.11L203,182.61L213.15,168.9L223.3,161.89L233.45,154.68L243.6,160.34L263.9,164.12L274.05,180.75L284.2,199.99L294.35,210.44L314.65,218.25L324.8,223.59L334.95,226.1L345.1,231.39L355.25,243.29L365.4,260.83L375.55,270.56L385.7,275.07L395.85,283.57L406,293.75L416.15,302.14L426.3,314.64L436.45,321.69L446.6,312.37L456.75,314.5L466.9,318.16L487.2,351.46L497.35,351.39L507.5,335.17L517.65,315.19L527.8,316.38L537.95,314.63L548.1,312.73L558.25,316.78L568.4,322.53L578.55,325.88L588.7,328.77L598.85,324.84L609,325.77L619.15,320.47L629.3,315.75L639.45,314.6L649.6,332.76L659.75,327.41L669.9,327.01L680.05,320.08L690.2,295.37L700.35,266.79L710.5,249.31L720.65,211.09L730.8,171.87L740.95,145.84L751.1,95.02L761.25,76.45L771.4,64.57L781.55,59.29L791.7,57.9L801.85,68.1L812,83.4L822.15,102.23L842.45,136.81L852.6,179.15L862.75,212.86L872.9,219.74L883.05,196.61L893.2,236.59L903.35,292.71L913.5,323.96L923.65,348.75L933.8,367.57L943.95,370.71L954.1,371.75L974.4,379.65L984.55,381.7L994.7,384.36L1004.85,385" style="vector-effect: none; fill: none; stroke: rgb(124, 181, 236); stroke-opacity: 1; stroke-width: 2px; opacity: 1;"/></g><g class="points"/><g class="text"/></g><g class="trace scatter trace94e452" style="stroke-miterlimit: 2; opacity: 1;"><g class="fills"/><g class="errorbars"/><g class="lines"><path class="js-line" d="M0,365.65L20.3,345.22L30.45,336.09L60.9,316.2L71.05,312.94L81.2,310.14L91.35,303.94L101.5,295.8L111.65,290.92L121.8,282.68L131.95,276.51L142.1,266.55L152.25,257.98L172.55,230.54L182.7,222.48L192.85,210.48L203,193.13L213.15,185.77L223.3,181.26L233.45,180.3L243.6,188.87L263.9,197.09L274.05,211.43L284.2,222.67L294.35,229.29L304.5,234.41L314.65,237.51L324.8,241.75L334.95,243.36L345.1,245.33L355.25,250.01L365.4,256.33L375.55,260.52L416.15,271.52L426.3,276.55L436.45,279.57L446.6,275.23L456.75,274.14L466.9,275.34L477.05,282.13L487.2,290.07L497.35,290.2L507.5,287.56L517.65,285.84L527.8,285.25L558.25,285.9L568.4,287.36L578.55,289.37L588.7,289.93L598.85,288.98L609,286.95L619.15,282.79L629.3,280.54L639.45,280.33L649.6,285.07L659.75,283.94L669.9,283.96L680.05,282.64L690.2,274.97L700.35,263.88L710.5,258.45L720.65,245.62L730.8,231.58L740.95,224.14L751.1,209.13L761.25,202.4L771.4,197.79L781.55,195.93L791.7,196.11L812,205.46L822.15,211.73L842.45,225.92L852.6,242.77L862.75,256.83L872.9,267.78L883.05,278.08L893.2,289.45L913.5,311.34L923.65,324.03L933.8,333.22L943.95,338.54L964.25,354.44L974.4,362.33L994.7,379.73L1004.85,384.05" style="vector-effect: none; fill: none; stroke: rgb(67, 67, 72); stroke-opacity: 1; stroke-width: 2px; opacity: 1;"/></g><g class="points"/><g class="text"/></g><g class="trace scatter trace615bab" style="stroke-miterlimit: 2; opacity: 1;"><g class="fills"/><g class="errorbars"/><g class="lines"><path class="js-line" d="M0,382.11L20.3,380.51L30.45,380.07L50.75,378.53L60.9,375.65L81.2,373.09L91.35,360.58L101.5,344.09L111.65,334.24L121.8,317.22L131.95,302.57L142.1,276.92L152.25,253.45L172.55,174.47L182.7,141.47L192.85,98.41L203,41.71L213.15,26.41L223.3,19.25L233.45,23.3L243.6,59.32L253.75,78.78L263.9,88.95L274.05,137.72L284.2,177.87L294.35,203.75L304.5,214.87L314.65,224.2L324.8,236.95L334.95,242.94L345.1,247.74L355.25,259.66L365.4,273.97L375.55,281.49L385.7,286.49L395.85,291.88L406,299.78L416.15,308.29L426.3,321.83L436.45,328.34L446.6,319.94L456.75,317.09L466.9,319.48L477.05,333.73L487.2,350.01L497.35,350.86L507.5,336.38L517.65,320.29L527.8,318.48L537.95,315.18L548.1,314.68L558.25,322.09L568.4,326.62L578.55,330.43L588.7,332.95L598.85,332.45L609,330.76L619.15,330.59L629.3,328.18L639.45,326.91L649.6,336.59L659.75,333.26L669.9,333.85L680.05,330.3L690.2,312.98L700.35,289.11L710.5,274.54L720.65,240.05L730.8,208.22L740.95,184.29L751.1,144.75L761.25,126.53L771.4,112.68L781.55,106.77L791.7,105.76L801.85,117.62L812,131.31L822.15,145.08L832.3,160.2L842.45,173.87L852.6,216.99L862.75,244.66L872.9,265.51L893.2,298.4L903.35,317.82L913.5,335.78L923.65,356.37L933.8,373.14L943.95,374.93L954.1,375.7L964.25,378.63L974.4,382.01L984.55,383.99L994.7,384.93L1004.85,385" style="vector-effect: none; fill: none; stroke: rgb(144, 237, 125); stroke-opacity: 1; stroke-width: 2px; opacity: 1;"/></g><g class="points"/><g class="text"/></g><g class="trace scatter tracefe8601" style="stroke-miterlimit: 2; opacity: 1;"><g class="fills"/><g class="errorbars"/><g class="lines"><path class="js-line" d="M0,377.67L20.3,369.7L30.45,365.75L50.75,359.85L60.9,355.06L81.2,353.07L91.35,343.45L101.5,330.83L111.65,323.25L131.95,300.34L142.1,280.44L152.25,260.83L162.4,220.62L172.55,183.45L182.7,155.02L192.85,112.55L203,61.45L213.15,45.13L223.3,38.78L233.45,42.34L243.6,70.5L253.75,88.96L263.9,100.74L274.05,148.62L284.2,188.3L294.35,212.61L304.5,224.96L314.65,233.55L324.8,244.01L334.95,248.11L345.1,251.16L355.25,259.63L365.4,273.22L375.55,277.7L385.7,279.76L395.85,283.63L406,290.09L416.15,295.56L426.3,304.1L436.45,308.58L446.6,301.65L456.75,301.73L466.9,303.21L477.05,315.38L487.2,332.2L497.35,333.64L507.5,322.6L517.65,311.93L527.8,313.57L537.95,310.52L548.1,309.76L568.4,318.54L578.55,319.92L598.85,318.58L609,315.39L619.15,311.73L629.3,309.38L639.45,310.26L649.6,324.5L659.75,323.78L669.9,326.78L680.05,323.21L690.2,308.27L700.35,289.31L710.5,278.35L730.8,224.8L740.95,205.72L751.1,177.72L761.25,168.43L771.4,160.99L781.55,156.29L791.7,155.35L801.85,161.29L822.15,177.71L832.3,184.37L842.45,193.03L852.6,224.91L862.75,246.3L872.9,261.43L883.05,276.86L893.2,287.26L913.5,323.21L923.65,343.02L933.8,358.83L943.95,364.72L954.1,368.55L964.25,373.48L984.55,380.56L994.7,383.42L1004.85,384.69" style="vector-effect: none; fill: none; stroke: rgb(247, 163, 92); stroke-opacity: 1; stroke-width: 2px; opacity: 1;"/></g><g class="points"/><g class="text"/></g><g class="trace scatter trace90e831" style="stroke-miterlimit: 2; opacity: 1;"><g class="fills"/><g class="errorbars"/><g class="lines"><path class="js-line" d="M0,382.56L10.15,381.73L20.3,382.28L40.6,381.41L50.75,379.88L60.9,375.96L71.05,374.45L81.2,372.08L91.35,360.05L101.5,343.38L111.65,331.96L142.1,278.06L152.25,257.71L162.4,229.85L172.55,209.76L182.7,192.04L192.85,168.46L203,130.72L213.15,114.45L223.3,108.25L233.45,104.85L243.6,119.57L253.75,127.3L263.9,132.43L274.05,165.1L284.2,193.88L294.35,210.51L324.8,240.66L334.95,245.23L345.1,251.96L355.25,261.65L365.4,277.4L375.55,289.5L385.7,293.75L395.85,301.48L406,310.13L416.15,315.86L426.3,326.83L436.45,331.97L446.6,319.52L456.75,312.85L466.9,312.99L477.05,329.08L487.2,349.71L497.35,351.86L517.65,325.5L527.8,328.13L548.1,330.96L558.25,336.06L568.4,338.9L578.55,340.8L598.85,341.11L609,339.86L619.15,339.97L629.3,342.1L639.45,343.96L649.6,353.26L659.75,344.63L669.9,342.37L680.05,333.18L690.2,316.41L700.35,285.87L710.5,266.93L730.8,175.1L740.95,145.18L751.1,85.87L761.25,63.88L771.4,49.32L781.55,42.13L791.7,38.22L801.85,44.62L812,54.75L822.15,71.19L832.3,86.67L842.45,100.06L862.75,192.15L872.9,225.72L883.05,255.5L893.2,280.42L903.35,306.93L913.5,336.13L923.65,360.87L933.8,377.57L943.95,380.75L954.1,381.97L974.4,383.7L984.55,384.15L1004.85,384.96" style="vector-effect: none; fill: none; stroke: rgb(128, 133, 233); stroke-opacity: 1; stroke-width: 2px; opacity: 1;"/></g><g class="points"/><g class="text"/></g><g class="trace scatter tracefac562" style="stroke-miterlimit: 2; opacity: 1;"><g class="fills"/><g class="errorbars"/><g class="lines"><path class="js-line" d="M0,362.11L10.15,349.03L20.3,338.19L50.75,309.24L60.9,300.24L81.2,289.72L91.35,282.21L101.5,273.35L111.65,273.53L121.8,272.49L131.95,268.2L152.25,259.39L162.4,249.73L172.55,239.1L182.7,231.79L192.85,220.73L203,205.71L213.15,201.17L223.3,199.46L233.45,198.65L243.6,206.6L253.75,209.82L263.9,211.72L284.2,234.59L294.35,241.22L304.5,243.68L314.65,246.96L345.1,254.85L355.25,259.22L375.55,268.2L385.7,269.94L395.85,271.89L406,275.15L416.15,276.81L426.3,281.73L436.45,282.88L446.6,278.23L456.75,276.23L466.9,277.25L477.05,282.01L487.2,287.9L507.5,288.73L517.65,287.41L527.8,287.47L537.95,288.33L558.25,287.83L568.4,286.58L578.55,284.24L588.7,284.52L609,282.83L619.15,281.4L639.45,280.27L649.6,282.81L659.75,279.6L669.9,279.1L680.05,276.55L690.2,271.38L700.35,262.3L710.5,256.81L730.8,231.45L740.95,222.75L751.1,206.87L761.25,203.23L771.4,198.64L781.55,187.28L791.7,186.17L801.85,189.89L812,194.97L822.15,202.17L832.3,209.84L842.45,221.78L852.6,239.53L862.75,255.45L883.05,278.41L893.2,288.22L923.65,322.84L933.8,332.14L954.1,346.46L964.25,355.08L994.7,379.28L1004.85,383.98" style="vector-effect: none; fill: none; stroke: rgb(241, 92, 128); stroke-opacity: 1; stroke-width: 2px; opacity: 1;"/></g><g class="points"/><g class="text"/></g><g class="trace scatter trace07acec" style="stroke-miterlimit: 2; opacity: 1;"><g class="fills"/><g class="errorbars"/><g class="lines"><path class="js-line" d="M0,383.51L50.75,379.52L60.9,376.63L71.05,375.53L81.2,373.65L91.35,357.09L101.5,336.44L111.65,324.16L121.8,304.37L131.95,286.73L142.1,260.79L152.25,237.31L162.4,198L172.55,161.87L182.7,134.78L192.85,96.52L203,44.21L213.15,31.49L223.3,27.81L233.45,32.86L243.6,66.96L253.75,84.26L263.9,93.9L274.05,142.95L284.2,184.67L294.35,203.75L304.5,215.52L314.65,227.36L324.8,242.15L355.25,263.17L365.4,275.08L375.55,285.34L385.7,290.12L395.85,294.71L406,305.79L416.15,312.49L426.3,322.58L436.45,326.74L446.6,319.38L456.75,314.98L466.9,315.67L487.2,344.51L497.35,345.37L507.5,330.51L517.65,320.29L527.8,324.11L537.95,325.16L548.1,326.94L558.25,333.63L568.4,338.23L578.55,340.28L598.85,342.13L609,338.23L619.15,338.03L629.3,340.33L639.45,342.84L649.6,351.81L659.75,345.69L669.9,345.58L680.05,341.95L690.2,329.01L700.35,303.75L710.5,290.06L720.65,253.53L730.8,212.38L740.95,184.1L751.1,135.25L761.25,119.17L771.4,107.05L781.55,99.34L791.7,94.87L801.85,101.39L812,111.65L822.15,125.17L832.3,135.37L842.45,148.4L852.6,189.13L862.75,223.09L872.9,246.95L903.35,314.73L913.5,340.02L923.65,362.58L933.8,377.63L943.95,380.42L954.1,381.65L974.4,384.22L984.55,384.59L1004.85,385" style="vector-effect: none; fill: none; stroke: rgb(228, 211, 84); stroke-opacity: 1; stroke-width: 2px; opacity: 1;"/></g><g class="points"/><g class="text"/></g><g class="trace scatter trace6fc005" style="stroke-miterlimit: 2; opacity: 1;"><g class="fills"/><g class="errorbars"/><g class="lines"><path class="js-line" d="M0,377.82L10.15,372.66L20.3,371.19L30.45,366.83L40.6,358.96L50.75,348.55L60.9,340.46L71.05,335.7L81.2,332.43L101.5,305.75L111.65,304.81L121.8,300.59L131.95,287.7L142.1,268.75L152.25,251.96L162.4,216.5L172.55,184.44L182.7,161.45L192.85,129.06L203,80.15L213.15,65.64L223.3,62.4L233.45,66.92L243.6,97.68L253.75,110.19L263.9,121.12L274.05,163.29L284.2,196.54L294.35,215.39L304.5,225.03L314.65,233.4L324.8,244.91L334.95,252.63L355.25,269.22L365.4,280.06L375.55,285.9L385.7,288.83L395.85,293.95L406,301.28L416.15,303.03L426.3,309.86L436.45,315.22L446.6,307.46L456.75,305.59L466.9,309.57L477.05,322.63L487.2,339.43L497.35,341.53L507.5,330.56L517.65,320.31L527.8,322.16L537.95,322.43L548.1,319.87L558.25,323.09L568.4,325.17L588.7,323.61L598.85,322.45L609,317.67L619.15,316.16L629.3,319.14L639.45,320.77L649.6,334.81L659.75,331.46L669.9,332.39L680.05,329.77L690.2,315.53L700.35,293.59L710.5,283.05L720.65,253.21L730.8,224.95L740.95,206.94L751.1,172.87L761.25,160.34L771.4,147.12L781.55,122.63L791.7,115.15L801.85,121.08L812,129.28L822.15,136.41L832.3,143.92L842.45,163.21L852.6,203.71L862.75,229.96L872.9,249.45L883.05,270.92L893.2,288.56L903.35,309.48L923.65,351.51L933.8,365.22L943.95,369.71L954.1,372.42L964.25,376.53L974.4,379.59L994.7,383.72L1004.85,384.76" style="vector-effect: none; fill: none; stroke: rgb(43, 144, 143); stroke-opacity: 1; stroke-width: 2px; opacity: 1;"/></g><g class="points"/><g class="text"/></g></g></g></g><g class="zerolinelayer-above"/><path class="xlines-above crisp" d="M0,0" style="fill: none;"/><path class="ylines-above crisp" d="M0,0" style="fill: none;"/><g class="overlines-above"/><g class="xaxislayer-above"><g class="xtick"><text text-anchor="middle" x="0" y="451" transform="translate(60,0)" style="font-family: 'Lucida Grande', 'Open Sans', verdana, arial, sans-serif; font-size: 10px; fill: rgb(0, 0, 0); fill-opacity: 1; white-space: pre;">0%</text></g><g class="xtick"><text text-anchor="middle" x="0" y="451" style="font-family: 'Lucida Grande', 'Open Sans', verdana, arial, sans-serif; font-size: 10px; fill: rgb(0, 0, 0); fill-opacity: 1; white-space: pre;" transform="translate(263,0)">20%</text></g><g class="xtick"><text text-anchor="middle" x="0" y="451" style="font-family: 'Lucida Grande', 'Open Sans', verdana, arial, sans-serif; font-size: 10px; fill: rgb(0, 0, 0); fill-opacity: 1; white-space: pre;" transform="translate(466,0)">40%</text></g><g class="xtick"><text text-anchor="middle" x="0" y="451" style="font-family: 'Lucida Grande', 'Open Sans', verdana, arial, sans-serif; font-size: 10px; fill: rgb(0, 0, 0); fill-opacity: 1; white-space: pre;" transform="translate(669,0)">60%</text></g><g class="xtick"><text text-anchor="middle" x="0" y="451" style="font-family: 'Lucida Grande', 'Open Sans', verdana, arial, sans-serif; font-size: 10px; fill: rgb(0, 0, 0); fill-opacity: 1; white-space: pre;" transform="translate(872,0)">80%</text></g><g class="xtick"><text text-anchor="middle" x="0" y="451" style="font-family: 'Lucida Grande', 'Open Sans', verdana, arial, sans-serif; font-size: 10px; fill: rgb(0, 0, 0); fill-opacity: 1; white-space: pre;" transform="translate(1075,0)">100%</text></g></g><g class="yaxislayer-above"><g class="ytick"><text text-anchor="end" x="54" y="3.5" transform="translate(0,435)" style="font-family: 'Lucida Grande', 'Open Sans', verdana, arial, sans-serif; font-size: 10px; fill: rgb(0, 0, 0); fill-opacity: 1; white-space: pre;">0%</text></g><g class="ytick"><text text-anchor="end" x="54" y="3.5" style="font-family: 'Lucida Grande', 'Open Sans', verdana, arial, sans-serif; font-size: 10px; fill: rgb(0, 0, 0); fill-opacity: 1; white-space: pre;" transform="translate(0,377.4)">0.5%</text></g><g class="ytick"><text text-anchor="end" x="54" y="3.5" style="font-family: 'Lucida Grande', 'Open Sans', verdana, arial, sans-serif; font-size: 10px; fill: rgb(0, 0, 0); fill-opacity: 1; white-space: pre;" transform="translate(0,319.79)">1%</text></g><g class="ytick"><text text-anchor="end" x="54" y="3.5" style="font-family: 'Lucida Grande', 'Open Sans', verdana, arial, sans-serif; font-size: 10px; fill: rgb(0, 0, 0); fill-opacity: 1; white-space: pre;" transform="translate(0,262.19)">1.5%</text></g><g class="ytick"><text text-anchor="end" x="54" y="3.5" style="font-family: 'Lucida Grande', 'Open Sans', verdana, arial, sans-serif; font-size: 10px; fill: rgb(0, 0, 0); fill-opacity: 1; white-space: pre;" transform="translate(0,204.58)">2%</text></g><g class="ytick"><text text-anchor="end" x="54" y="3.5" style="font-family: 'Lucida Grande', 'Open Sans', verdana, arial, sans-serif; font-size: 10px; fill: rgb(0, 0, 0); fill-opacity: 1; white-space: pre;" transform="translate(0,146.98000000000002)">2.5%</text></g><g class="ytick"><text text-anchor="end" x="54" y="3.5" style="font-family: 'Lucida Grande', 'Open Sans', verdana, arial, sans-serif; font-size: 10px; fill: rgb(0, 0, 0); fill-opacity: 1; white-space: pre;" transform="translate(0,89.37)">3%</text></g></g><g class="overaxes-above"/></g></g><g class="polarlayer"/><g class="smithlayer"/><g class="ternarylayer"/><g class="geolayer"/><g class="funnelarealayer"/><g class="pielayer"/><g class="iciclelayer"/><g class="treemaplayer"/><g class="sunburstlayer"/><g class="glimages"/><defs id="topdefs-d2cc35"><g class="clips"/></defs><g class="layer-above"><g class="imagelayer"/><g class="shapelayer"/></g><g class="infolayer"><g class="g-gtitle"><text class="gtitle" x="550" y="25" text-anchor="middle" dy="0em" style="opacity: 1; font-family: 'Lucida Grande', 'Open Sans', verdana, arial, sans-serif; font-size: 20px; fill: rgb(68, 68, 68); fill-opacity: 1; white-space: pre;"><tspan class="line" dy="0em" x="550" y="25">QualiMap: RNAseq: Coverage Profile Along Genes (total)</tspan><tspan class="line" dy="1.3em" x="550" y="25">​<tspan style="font-size:70%" dy="-0.6em">Normalised, 8 lines</tspan><tspan dy="0.42em">​</tspan></tspan></text></g><g class="g-xtitle"><text class="xtitle" x="567.5" y="487" text-anchor="middle" style="opacity: 0.3; font-family: 'Lucida Grande', 'Open Sans', verdana, arial, sans-serif; font-size: 14px; fill: rgb(0, 0, 0); fill-opacity: 1; white-space: pre;">Transcript Position 5'->3' (%)</text></g><g class="g-ytitle"><text class="ytitle" transform="rotate(-90,22,242.5)" x="22" y="242.5" text-anchor="middle" style="opacity: 0.3; font-family: 'Lucida Grande', 'Open Sans', verdana, arial, sans-serif; font-size: 14px; fill: rgb(0, 0, 0); fill-opacity: 1; white-space: pre;">Percentage total cumulative mapped-read depth</text></g></g></svg>