<svg class="main-svg" xmlns="http://www.w3.org/2000/svg" xmlns:xlink="http://www.w3.org/1999/xlink" width="2200" height="1000" style="" viewBox="0 0 1100 500"><rect x="0" y="0" width="1100" height="500" style="fill: rgb(255, 255, 255); fill-opacity: 1;"/><defs id="defs-e6247b"><g class="clips"><clipPath id="clipe6247bxyplot" class="plotclip"><rect width="1015" height="385"/></clipPath><clipPath class="axesclip" id="clipe6247bx"><rect x="60" y="0" width="1015" height="500"/></clipPath><clipPath class="axesclip" id="clipe6247by"><rect x="0" y="50" width="1100" height="385"/></clipPath><clipPath class="axesclip" id="clipe6247bxy"><rect x="60" y="50" width="1015" height="385"/></clipPath></g><g class="gradients"/><g class="patterns"/></defs><g class="bglayer"/><g class="layer-below"><g class="imagelayer"/><g class="shapelayer"/></g><g class="cartesianlayer"><g class="subplot xy"><g class="layer-subplot"><g class="shapelayer"/><g class="imagelayer"/></g><g class="minor-gridlayer"><g class="x"/><g class="y"/></g><g class="gridlayer"><g class="x"><path class="xgrid crisp" transform="translate(263,0)" d="M0,50v385" style="stroke: rgb(0, 0, 0); stroke-opacity: 0.05; stroke-width: 1px;"/><path class="xgrid crisp" transform="translate(466,0)" d="M0,50v385" style="stroke: rgb(0, 0, 0); stroke-opacity: 0.05; stroke-width: 1px;"/><path class="xgrid crisp" transform="translate(669,0)" d="M0,50v385" style="stroke: rgb(0, 0, 0); stroke-opacity: 0.05; stroke-width: 1px;"/><path class="xgrid crisp" transform="translate(872,0)" d="M0,50v385" style="stroke: rgb(0, 0, 0); stroke-opacity: 0.05; stroke-width: 1px;"/></g><g class="y"><path class="ygrid crisp" transform="translate(0,391.01)" d="M60,0h1015" style="stroke: rgb(0, 0, 0); stroke-opacity: 0.05; stroke-width: 1px;"/><path class="ygrid crisp" transform="translate(0,347.03)" d="M60,0h1015" style="stroke: rgb(0, 0, 0); stroke-opacity: 0.05; stroke-width: 1px;"/><path class="ygrid crisp" transform="translate(0,303.03999999999996)" d="M60,0h1015" style="stroke: rgb(0, 0, 0); stroke-opacity: 0.05; stroke-width: 1px;"/><path class="ygrid crisp" transform="translate(0,259.06)" d="M60,0h1015" style="stroke: rgb(0, 0, 0); stroke-opacity: 0.05; stroke-width: 1px;"/><path class="ygrid crisp" transform="translate(0,215.07)" d="M60,0h1015" style="stroke: rgb(0, 0, 0); stroke-opacity: 0.05; stroke-width: 1px;"/><path class="ygrid crisp" transform="translate(0,171.07999999999998)" d="M60,0h1015" style="stroke: rgb(0, 0, 0); stroke-opacity: 0.05; stroke-width: 1px;"/><path class="ygrid crisp" transform="translate(0,127.1)" d="M60,0h1015" style="stroke: rgb(0, 0, 0); stroke-opacity: 0.05; stroke-width: 1px;"/><path class="ygrid crisp" transform="translate(0,83.11)" d="M60,0h1015" style="stroke: rgb(0, 0, 0); stroke-opacity: 0.05; stroke-width: 1px;"/></g></g><g class="zerolinelayer"><path class="xzl zl crisp" transform="translate(60,0)" d="M0,50v385" style="stroke: rgb(0, 0, 0); stroke-opacity: 0.05; stroke-width: 1px;"/><path class="yzl zl crisp" transform="translate(0,435)" d="M60,0h1015" style="stroke: rgb(0, 0, 0); stroke-opacity: 0.05; stroke-width: 1px;"/></g><g class="layer-between"><g class="shapelayer"/><g class="imagelayer"/></g><path class="xlines-below"/><path class="ylines-below"/><g class="overlines-below"/><g class="xaxislayer-below"/><g class="yaxislayer-below"/><g class="overaxes-below"/><g class="overplot"><g class="xy" transform="translate(60,50)" clip-path="url(#clipe6247bxyplot)"><g class="scatterlayer mlayer"><g class="trace scatter trace8c5695" style="stroke-miterlimit: 2; opacity: 1;"><g class="fills"/><g class="errorbars"/><g class="lines"><path class="js-line" d="M0,383.44L50.75,380.61L60.9,379.07L81.2,377.99L91.35,372.13L101.5,365.56L111.65,361.26L121.8,353.14L131.95,347.02L152.25,334.69L162.4,324.94L172.55,316.82L182.7,309.89L192.85,301.32L203,289.8L213.15,283.35L223.3,280.05L233.45,276.66L243.6,279.32L263.9,281.1L274.05,288.92L284.2,297.97L294.35,302.89L314.65,306.56L324.8,309.07L334.95,310.26L345.1,312.74L355.25,318.34L365.4,326.59L375.55,331.17L385.7,333.29L416.15,346.02L426.3,351.9L436.45,355.22L446.6,350.84L466.9,353.56L477.05,361.3L487.2,369.22L497.35,369.19L507.5,361.56L517.65,352.16L527.8,352.72L537.95,351.9L548.1,351L558.25,352.91L568.4,355.61L578.55,357.19L588.7,358.55L598.85,356.7L609,357.14L619.15,354.64L629.3,352.43L639.45,351.88L649.6,360.42L659.75,357.91L669.9,357.72L680.05,354.46L690.2,342.84L700.35,329.39L710.5,321.17L720.65,303.19L730.8,284.74L740.95,272.5L751.1,248.59L761.25,239.86L771.4,234.27L781.55,231.79L791.7,231.13L801.85,235.93L812,243.12L822.15,251.99L842.45,268.25L852.6,288.17L862.75,304.02L872.9,307.26L883.05,296.38L893.2,315.19L903.35,341.59L913.5,356.29L923.65,367.95L933.8,376.8L943.95,378.28L954.1,378.77L974.4,382.48L984.55,383.45L994.7,384.7L1004.85,385" style="vector-effect: none; fill: none; stroke: rgb(124, 181, 236); stroke-opacity: 1; stroke-width: 2px; opacity: 1;"/></g><g class="points"/><g class="text"/></g><g class="trace scatter tracea05f4c" style="stroke-miterlimit: 2; opacity: 1;"><g class="fills"/><g class="errorbars"/><g class="lines"><path class="js-line" d="M0,355.27L20.3,323.87L30.45,309.84L60.9,279.26L71.05,274.26L81.2,269.95L91.35,260.43L101.5,247.92L111.65,240.43L121.8,227.76L131.95,218.27L142.1,202.98L152.25,189.8L162.4,167.74L172.55,147.63L182.7,135.25L192.85,116.81L203,90.15L213.15,78.83L223.3,71.9L233.45,70.42L243.6,83.59L253.75,90.22L263.9,96.23L274.05,118.27L284.2,135.53L294.35,145.72L304.5,153.58L314.65,158.35L324.8,164.86L334.95,167.34L345.1,170.36L355.25,177.56L365.4,187.27L375.55,193.71L416.15,210.61L426.3,218.34L436.45,222.98L446.6,216.31L456.75,214.64L466.9,216.48L477.05,226.92L487.2,239.11L497.35,239.32L507.5,235.26L517.65,232.61L527.8,231.71L558.25,232.71L568.4,234.96L578.55,238.04L588.7,238.9L598.85,237.44L609,234.32L619.15,227.93L629.3,224.47L639.45,224.14L649.6,231.42L659.75,229.69L669.9,229.73L680.05,227.69L690.2,215.91L700.35,198.86L710.5,190.53L720.65,170.81L730.8,149.23L740.95,137.8L751.1,114.73L761.25,104.39L771.4,97.3L781.55,94.45L791.7,94.73L801.85,101.37L812,109.09L832.3,128.95L842.45,140.53L852.6,166.43L862.75,188.03L913.5,271.8L923.65,291.31L933.8,305.42L943.95,313.6L964.25,338.04L974.4,350.17L994.7,376.9L1004.85,383.53" style="vector-effect: none; fill: none; stroke: rgb(67, 67, 72); stroke-opacity: 1; stroke-width: 2px; opacity: 1;"/></g><g class="points"/><g class="text"/></g><g class="trace scatter trace3fb3f7" style="stroke-miterlimit: 2; opacity: 1;"><g class="fills"/><g class="errorbars"/><g class="lines"><path class="js-line" d="M0,383.4L40.6,381.84L50.75,381.4L60.9,379.81L71.05,379L81.2,378.38L91.35,371.43L101.5,362.27L111.65,356.8L121.8,347.34L131.95,339.2L152.25,311.9L162.4,290.59L172.55,268.01L182.7,249.68L192.85,225.75L203,194.24L213.15,185.74L223.3,181.76L233.45,184.01L243.6,204.03L253.75,214.84L263.9,220.49L274.05,247.59L284.2,269.9L294.35,284.29L304.5,290.47L314.65,295.65L324.8,302.73L345.1,308.73L355.25,315.35L365.4,323.31L375.55,327.48L395.85,333.26L406,337.65L416.15,342.38L426.3,349.9L436.45,353.51L446.6,348.85L456.75,347.27L466.9,348.59L477.05,356.51L487.2,365.56L497.35,366.03L507.5,357.98L517.65,349.04L527.8,348.04L537.95,346.2L548.1,345.93L558.25,350.04L568.4,352.56L588.7,356.08L598.85,355.8L609,354.86L619.15,354.77L639.45,352.72L649.6,358.1L659.75,356.25L669.9,356.58L680.05,354.6L690.2,344.98L700.35,331.72L710.5,323.62L730.8,286.77L740.95,273.47L751.1,251.5L761.25,241.38L771.4,233.68L781.55,230.4L791.7,229.83L801.85,236.43L842.45,267.68L852.6,291.64L862.75,307.01L872.9,318.6L893.2,336.88L903.35,347.67L913.5,357.65L923.65,369.09L933.8,378.41L943.95,379.41L954.1,379.83L964.25,381.46L974.4,383.34L984.55,384.44L1004.85,385" style="vector-effect: none; fill: none; stroke: rgb(144, 237, 125); stroke-opacity: 1; stroke-width: 2px; opacity: 1;"/></g><g class="points"/><g class="text"/></g><g class="trace scatter traceef6d7b" style="stroke-miterlimit: 2; opacity: 1;"><g class="fills"/><g class="errorbars"/><g class="lines"><path class="js-line" d="M0,381.28L30.45,375.22L40.6,373.8L50.75,372.22L60.9,369.79L81.2,368.78L91.35,363.9L101.5,357.48L111.65,353.63L131.95,342L142.1,331.89L152.25,321.93L162.4,301.5L172.55,282.62L182.7,268.18L192.85,246.61L203,220.65L213.15,212.36L223.3,209.14L233.45,210.95L243.6,225.25L253.75,234.62L263.9,240.61L274.05,264.93L284.2,285.08L294.35,297.43L304.5,303.71L314.65,308.07L324.8,313.38L345.1,317.01L355.25,321.32L365.4,328.22L375.55,330.5L385.7,331.54L395.85,333.51L416.15,339.57L426.3,343.9L436.45,346.18L446.6,342.66L466.9,343.46L477.05,349.63L487.2,358.18L497.35,358.91L517.65,347.88L527.8,348.72L537.95,347.17L548.1,346.78L568.4,351.24L578.55,351.94L598.85,351.26L609,349.64L629.3,346.59L639.45,347.04L649.6,354.27L659.75,353.9L669.9,355.43L680.05,353.61L690.2,346.02L700.35,336.39L710.5,330.83L720.65,317.67L730.8,303.62L740.95,293.93L751.1,279.71L761.25,274.99L771.4,271.21L781.55,268.83L791.7,268.35L801.85,271.36L842.45,287.49L852.6,303.68L862.75,314.55L872.9,322.23L883.05,330.07L893.2,335.36L923.65,363.68L933.8,371.71L943.95,374.7L954.1,376.64L974.4,381L984.55,382.75L994.7,384.2L1004.85,384.84" style="vector-effect: none; fill: none; stroke: rgb(247, 163, 92); stroke-opacity: 1; stroke-width: 2px; opacity: 1;"/></g><g class="points"/><g class="text"/></g><g class="trace scatter trace800c4e" style="stroke-miterlimit: 2; opacity: 1;"><g class="fills"/><g class="errorbars"/><g class="lines"><path class="js-line" d="M0,383.76L20.3,383.61L30.45,383.35L50.75,382.39L60.9,380.39L81.2,378.41L91.35,372.27L101.5,363.76L111.65,357.93L142.1,330.42L152.25,320.04L162.4,305.82L172.55,295.57L182.7,286.52L192.85,274.49L203,255.23L213.15,246.93L223.3,243.76L233.45,242.03L243.6,249.54L253.75,253.49L263.9,256.1L274.05,272.78L284.2,287.46L294.35,295.95L324.8,311.34L334.95,313.67L345.1,317.11L355.25,322.05L365.4,330.09L375.55,336.26L385.7,338.43L395.85,342.38L406,346.79L416.15,349.72L426.3,355.32L436.45,357.94L446.6,351.58L456.75,348.18L466.9,348.25L477.05,356.46L487.2,366.99L497.35,368.09L517.65,354.64L527.8,355.98L548.1,357.42L558.25,360.02L578.55,362.44L588.7,362.57L619.15,362.02L629.3,363.1L639.45,364.06L649.6,368.8L659.75,364.4L669.9,363.24L680.05,358.55L690.2,350L700.35,334.41L710.5,324.74L730.8,277.88L740.95,262.61L751.1,232.34L761.25,221.12L771.4,213.69L781.55,210.02L791.7,208.02L801.85,211.29L812,216.46L822.15,224.85L832.3,232.75L842.45,239.58L862.75,286.58L872.9,303.72L883.05,318.91L893.2,331.63L903.35,345.16L913.5,360.06L923.65,372.69L933.8,381.21L943.95,382.83L954.1,383.46L984.55,384.56L994.7,384.87L1004.85,384.98" style="vector-effect: none; fill: none; stroke: rgb(128, 133, 233); stroke-opacity: 1; stroke-width: 2px; opacity: 1;"/></g><g class="points"/><g class="text"/></g><g class="trace scatter trace9f3ed3" style="stroke-miterlimit: 2; opacity: 1;"><g class="fills"/><g class="errorbars"/><g class="lines"><path class="js-line" d="M0,342.9L10.15,318.83L20.3,298.89L50.75,245.64L60.9,229.07L81.2,209.73L91.35,195.92L101.5,179.62L111.65,179.94L121.8,178.04L131.95,170.13L142.1,161.34L152.25,153.94L162.4,136.16L172.55,116.61L182.7,103.16L192.85,82.83L203,55.19L213.15,46.83L223.3,43.69L233.45,42.2L243.6,56.83L253.75,62.76L263.9,66.24L274.05,87.31L284.2,108.32L294.35,120.52L304.5,125.03L314.65,131.06L324.8,135.73L334.95,141.46L345.1,145.59L355.25,153.62L375.55,170.15L385.7,173.35L395.85,176.93L406,182.93L416.15,185.99L426.3,195.03L436.45,197.15L446.6,188.59L456.75,184.91L466.9,186.79L477.05,195.54L487.2,206.38L507.5,207.91L517.65,205.49L527.8,205.59L537.95,207.17L558.25,206.26L568.4,203.96L578.55,199.65L588.7,200.16L609,197.06L619.15,194.42L629.3,193.79L639.45,192.35L649.6,197.01L659.75,191.11L669.9,190.19L680.05,185.49L690.2,175.99L700.35,159.28L710.5,149.2L720.65,126.74L730.8,102.54L740.95,86.53L751.1,57.33L761.25,50.63L771.4,42.19L781.55,21.29L791.7,19.25L801.85,26.09L812,35.43L822.15,48.68L832.3,62.79L842.45,84.75L852.6,117.4L862.75,146.68L883.05,188.92L893.2,206.98L903.35,228.05L913.5,251.02L923.65,270.65L933.8,287.76L943.95,300.3L954.1,314.11L984.55,360.4L994.7,374.49L1004.85,383.12" style="vector-effect: none; fill: none; stroke: rgb(241, 92, 128); stroke-opacity: 1; stroke-width: 2px; opacity: 1;"/></g><g class="points"/><g class="text"/></g><g class="trace scatter trace82461c" style="stroke-miterlimit: 2; opacity: 1;"><g class="fills"/><g class="errorbars"/><g class="lines"><path class="js-line" d="M0,384.05L50.75,381.5L60.9,379.66L81.2,377.76L91.35,367.2L101.5,354.02L111.65,346.19L121.8,333.57L131.95,322.32L142.1,305.77L152.25,290.8L162.4,265.73L172.55,242.68L182.7,225.4L192.85,201L203,167.63L213.15,159.52L223.3,157.17L233.45,160.39L243.6,182.14L253.75,193.17L263.9,199.32L274.05,230.61L284.2,257.22L294.35,269.39L314.65,284.45L324.8,293.89L355.25,307.29L365.4,314.89L375.55,321.43L385.7,324.48L395.85,327.41L406,334.48L416.15,338.75L426.3,345.19L436.45,347.84L446.6,343.14L456.75,340.34L466.9,340.78L487.2,359.17L497.35,359.72L507.5,350.25L517.65,343.73L527.8,346.16L537.95,346.83L548.1,347.96L558.25,352.24L568.4,355.17L578.55,356.47L598.85,357.65L609,355.17L619.15,355.04L629.3,356.51L639.45,358.11L649.6,363.83L659.75,359.93L669.9,359.86L680.05,357.54L690.2,349.29L700.35,333.17L710.5,324.44L720.65,301.14L730.8,274.89L740.95,256.86L751.1,225.7L761.25,215.44L771.4,207.71L781.55,202.79L791.7,199.94L801.85,204.1L812,210.64L822.15,219.27L832.3,225.77L842.45,234.08L852.6,260.06L862.75,281.73L872.9,296.94L903.35,340.18L913.5,356.31L923.65,370.7L933.8,380.3L943.95,382.08L954.1,382.86L974.4,384.5L984.55,384.74L1004.85,385" style="vector-effect: none; fill: none; stroke: rgb(228, 211, 84); stroke-opacity: 1; stroke-width: 2px; opacity: 1;"/></g><g class="points"/><g class="text"/></g><g class="trace scatter trace478082" style="stroke-miterlimit: 2; opacity: 1;"><g class="fills"/><g class="errorbars"/><g class="lines"><path class="js-line" d="M0,380.67L10.15,377.56L20.3,376.67L30.45,374.05L40.6,369.3L50.75,363.02L60.9,358.14L71.05,355.27L81.2,353.3L101.5,337.21L111.65,336.64L121.8,334.1L131.95,326.33L142.1,314.9L152.25,304.78L162.4,283.4L172.55,264.06L182.7,250.2L192.85,230.67L203,201.18L213.15,192.43L223.3,190.47L233.45,193.2L243.6,211.75L253.75,219.29L263.9,225.88L274.05,251.31L284.2,271.36L294.35,282.72L314.65,293.59L324.8,300.52L355.25,315.18L365.4,321.72L375.55,325.24L385.7,327.01L395.85,330.1L406,334.52L416.15,335.57L426.3,339.69L436.45,342.92L446.6,338.24L456.75,337.12L466.9,339.52L477.05,347.39L487.2,357.52L497.35,358.79L507.5,352.17L517.65,345.99L527.8,347.1L537.95,347.27L548.1,345.72L568.4,348.93L578.55,348.57L598.85,347.28L609,344.4L619.15,343.49L629.3,345.29L639.45,346.27L649.6,354.73L659.75,352.72L669.9,353.28L680.05,351.7L690.2,343.11L700.35,329.88L710.5,323.53L730.8,288.49L740.95,277.63L751.1,257.09L761.25,249.53L771.4,241.56L781.55,226.79L791.7,222.28L801.85,225.86L822.15,235.1L832.3,239.63L842.45,251.26L852.6,275.68L862.75,291.51L872.9,303.26L883.05,316.21L893.2,326.85L923.65,364.81L933.8,373.07L943.95,375.78L954.1,377.42L974.4,381.74L984.55,382.98L1004.85,384.86" style="vector-effect: none; fill: none; stroke: rgb(43, 144, 143); stroke-opacity: 1; stroke-width: 2px; opacity: 1;"/></g><g class="points"/><g class="text"/></g></g></g></g><g class="zerolinelayer-above"/><path class="xlines-above crisp" d="M0,0" style="fill: none;"/><path class="ylines-above crisp" d="M0,0" style="fill: none;"/><g class="overlines-above"/><g class="xaxislayer-above"><g class="xtick"><text text-anchor="middle" x="0" y="451" transform="translate(60,0)" style="font-family: 'Lucida Grande', 'Open Sans', verdana, arial, sans-serif; font-size: 10px; fill: rgb(0, 0, 0); fill-opacity: 1; white-space: pre;">0%</text></g><g class="xtick"><text text-anchor="middle" x="0" y="451" style="font-family: 'Lucida Grande', 'Open Sans', verdana, arial, sans-serif; font-size: 10px; fill: rgb(0, 0, 0); fill-opacity: 1; white-space: pre;" transform="translate(263,0)">20%</text></g><g class="xtick"><text text-anchor="middle" x="0" y="451" style="font-family: 'Lucida Grande', 'Open Sans', verdana, arial, sans-serif; font-size: 10px; fill: rgb(0, 0, 0); fill-opacity: 1; white-space: pre;" transform="translate(466,0)">40%</text></g><g class="xtick"><text text-anchor="middle" x="0" y="451" style="font-family: 'Lucida Grande', 'Open Sans', verdana, arial, sans-serif; font-size: 10px; fill: rgb(0, 0, 0); fill-opacity: 1; white-space: pre;" transform="translate(669,0)">60%</text></g><g class="xtick"><text text-anchor="middle" x="0" y="451" style="font-family: 'Lucida Grande', 'Open Sans', verdana, arial, sans-serif; font-size: 10px; fill: rgb(0, 0, 0); fill-opacity: 1; white-space: pre;" transform="translate(872,0)">80%</text></g><g class="xtick"><text text-anchor="middle" x="0" y="451" style="font-family: 'Lucida Grande', 'Open Sans', verdana, arial, sans-serif; font-size: 10px; fill: rgb(0, 0, 0); fill-opacity: 1; white-space: pre;" transform="translate(1075,0)">100%</text></g></g><g class="yaxislayer-above"><g class="ytick"><text text-anchor="end" x="54" y="3.5" transform="translate(0,435)" style="font-family: 'Lucida Grande', 'Open Sans', verdana, arial, sans-serif; font-size: 10px; fill: rgb(0, 0, 0); fill-opacity: 1; white-space: pre;">0</text></g><g class="ytick"><text text-anchor="end" x="54" y="3.5" style="font-family: 'Lucida Grande', 'Open Sans', verdana, arial, sans-serif; font-size: 10px; fill: rgb(0, 0, 0); fill-opacity: 1; white-space: pre;" transform="translate(0,391.01)">10</text></g><g class="ytick"><text text-anchor="end" x="54" y="3.5" style="font-family: 'Lucida Grande', 'Open Sans', verdana, arial, sans-serif; font-size: 10px; fill: rgb(0, 0, 0); fill-opacity: 1; white-space: pre;" transform="translate(0,347.03)">20</text></g><g class="ytick"><text text-anchor="end" x="54" y="3.5" style="font-family: 'Lucida Grande', 'Open Sans', verdana, arial, sans-serif; font-size: 10px; fill: rgb(0, 0, 0); fill-opacity: 1; white-space: pre;" transform="translate(0,303.03999999999996)">30</text></g><g class="ytick"><text text-anchor="end" x="54" y="3.5" style="font-family: 'Lucida Grande', 'Open Sans', verdana, arial, sans-serif; font-size: 10px; fill: rgb(0, 0, 0); fill-opacity: 1; white-space: pre;" transform="translate(0,259.06)">40</text></g><g class="ytick"><text text-anchor="end" x="54" y="3.5" style="font-family: 'Lucida Grande', 'Open Sans', verdana, arial, sans-serif; font-size: 10px; fill: rgb(0, 0, 0); fill-opacity: 1; white-space: pre;" transform="translate(0,215.07)">50</text></g><g class="ytick"><text text-anchor="end" x="54" y="3.5" style="font-family: 'Lucida Grande', 'Open Sans', verdana, arial, sans-serif; font-size: 10px; fill: rgb(0, 0, 0); fill-opacity: 1; white-space: pre;" transform="translate(0,171.07999999999998)">60</text></g><g class="ytick"><text text-anchor="end" x="54" y="3.5" style="font-family: 'Lucida Grande', 'Open Sans', verdana, arial, sans-serif; font-size: 10px; fill: rgb(0, 0, 0); fill-opacity: 1; white-space: pre;" transform="translate(0,127.1)">70</text></g><g class="ytick"><text text-anchor="end" x="54" y="3.5" style="font-family: 'Lucida Grande', 'Open Sans', verdana, arial, sans-serif; font-size: 10px; fill: rgb(0, 0, 0); fill-opacity: 1; white-space: pre;" transform="translate(0,83.11)">80</text></g></g><g class="overaxes-above"/></g></g><g class="polarlayer"/><g class="smithlayer"/><g class="ternarylayer"/><g class="geolayer"/><g class="funnelarealayer"/><g class="pielayer"/><g class="iciclelayer"/><g class="treemaplayer"/><g class="sunburstlayer"/><g class="glimages"/><defs id="topdefs-e6247b"><g class="clips"/></defs><g class="layer-above"><g class="imagelayer"/><g class="shapelayer"/></g><g class="infolayer"><g class="g-gtitle"><text class="gtitle" x="550" y="25" text-anchor="middle" dy="0em" style="opacity: 1; font-family: 'Lucida Grande', 'Open Sans', verdana, arial, sans-serif; font-size: 20px; fill: rgb(68, 68, 68); fill-opacity: 1; white-space: pre;"><tspan class="line" dy="0em" x="550" y="25">QualiMap: RNAseq: Coverage Profile Along Genes (total)</tspan><tspan class="line" dy="1.3em" x="550" y="25">​<tspan style="font-size:70%" dy="-0.6em">Counts, 8 lines</tspan><tspan dy="0.42em">​</tspan></tspan></text></g><g class="g-xtitle"><text class="xtitle" x="567.5" y="487" text-anchor="middle" style="opacity: 0.3; font-family: 'Lucida Grande', 'Open Sans', verdana, arial, sans-serif; font-size: 14px; fill: rgb(0, 0, 0); fill-opacity: 1; white-space: pre;">Transcript Position 5'->3' (%)</text></g><g class="g-ytitle"><text class="ytitle" transform="rotate(-90,22,242.5)" x="22" y="242.5" text-anchor="middle" style="opacity: 0.3; font-family: 'Lucida Grande', 'Open Sans', verdana, arial, sans-serif; font-size: 14px; fill: rgb(0, 0, 0); fill-opacity: 1; white-space: pre;">Cumulative mapped-read depth</text></g></g></svg>