<svg class="main-svg" xmlns="http://www.w3.org/2000/svg" xmlns:xlink="http://www.w3.org/1999/xlink" width="2200" height="1000" style="" viewBox="0 0 1100 500"><rect x="0" y="0" width="1100" height="500" style="fill: rgb(255, 255, 255); fill-opacity: 1;"/><defs id="defs-7376f9"><g class="clips"><clipPath id="clip7376f9xyplot" class="plotclip"><rect width="1025" height="385"/></clipPath><clipPath class="axesclip" id="clip7376f9x"><rect x="60" y="0" width="1025" height="500"/></clipPath><clipPath class="axesclip" id="clip7376f9y"><rect x="0" y="50" width="1100" height="385"/></clipPath><clipPath class="axesclip" id="clip7376f9xy"><rect x="60" y="50" width="1025" height="385"/></clipPath></g><g class="gradients"/><g class="patterns"/></defs><g class="bglayer"/><g class="layer-below"><g class="imagelayer"/><g class="shapelayer"/></g><g class="cartesianlayer"><g class="subplot xy"><g class="layer-subplot"><g class="shapelayer"/><g class="imagelayer"/></g><g class="minor-gridlayer"><g class="x"/><g class="y"/></g><g class="gridlayer"><g class="x"><path class="xgrid crisp" transform="translate(158.36,0)" d="M0,50v385" style="stroke: rgb(0, 0, 0); stroke-opacity: 0.05; stroke-width: 1px;"/><path class="xgrid crisp" transform="translate(261.89,0)" d="M0,50v385" style="stroke: rgb(0, 0, 0); stroke-opacity: 0.05; stroke-width: 1px;"/><path class="xgrid crisp" transform="translate(365.43,0)" d="M0,50v385" style="stroke: rgb(0, 0, 0); stroke-opacity: 0.05; stroke-width: 1px;"/><path class="xgrid crisp" transform="translate(468.96,0)" d="M0,50v385" style="stroke: rgb(0, 0, 0); stroke-opacity: 0.05; stroke-width: 1px;"/><path class="xgrid crisp" transform="translate(676.04,0)" d="M0,50v385" style="stroke: rgb(0, 0, 0); stroke-opacity: 0.05; stroke-width: 1px;"/><path class="xgrid crisp" transform="translate(779.57,0)" d="M0,50v385" style="stroke: rgb(0, 0, 0); stroke-opacity: 0.05; stroke-width: 1px;"/><path class="xgrid crisp" transform="translate(883.11,0)" d="M0,50v385" style="stroke: rgb(0, 0, 0); stroke-opacity: 0.05; stroke-width: 1px;"/><path class="xgrid crisp" transform="translate(986.64,0)" d="M0,50v385" style="stroke: rgb(0, 0, 0); stroke-opacity: 0.05; stroke-width: 1px;"/></g><g class="y"><path class="ygrid crisp" transform="translate(0,363.46)" d="M60,0h1025" style="stroke: rgb(0, 0, 0); stroke-opacity: 0.05; stroke-width: 1px;"/><path class="ygrid crisp" transform="translate(0,311.16)" d="M60,0h1025" style="stroke: rgb(0, 0, 0); stroke-opacity: 0.05; stroke-width: 1px;"/><path class="ygrid crisp" transform="translate(0,258.87)" d="M60,0h1025" style="stroke: rgb(0, 0, 0); stroke-opacity: 0.05; stroke-width: 1px;"/><path class="ygrid crisp" transform="translate(0,206.57)" d="M60,0h1025" style="stroke: rgb(0, 0, 0); stroke-opacity: 0.05; stroke-width: 1px;"/><path class="ygrid crisp" transform="translate(0,154.28)" d="M60,0h1025" style="stroke: rgb(0, 0, 0); stroke-opacity: 0.05; stroke-width: 1px;"/><path class="ygrid crisp" transform="translate(0,101.97999999999999)" d="M60,0h1025" style="stroke: rgb(0, 0, 0); stroke-opacity: 0.05; stroke-width: 1px;"/></g></g><g class="zerolinelayer"><path class="xzl zl crisp" transform="translate(572.5,0)" d="M0,50v385" style="stroke: rgb(0, 0, 0); stroke-opacity: 0.05; stroke-width: 1px;"/><path class="yzl zl crisp" transform="translate(0,415.75)" d="M60,0h1025" style="stroke: rgb(0, 0, 0); stroke-opacity: 0.05; stroke-width: 1px;"/></g><g class="layer-between"><g class="shapelayer"/><g class="imagelayer"/></g><path class="xlines-below"/><path class="ylines-below"/><g class="overlines-below"/><g class="xaxislayer-below"/><g class="yaxislayer-below"/><g class="overaxes-below"/><g class="overplot"><g class="xy" transform="translate(60,50)" clip-path="url(#clip7376f9xyplot)"><g class="scatterlayer mlayer"><g class="trace scatter trace9497f3" style="stroke-miterlimit: 2; opacity: 1;"><g class="fills"/><g class="errorbars"/><g class="lines"><path class="js-line" d="M0,365.75L289.9,365.75L300.25,363.23L320.96,284.34L331.31,279.29L341.67,210.49L352.02,165.05L362.37,88.06L372.73,83.64L383.08,93.74L393.43,38.2L403.79,81.12L414.14,220.59L424.49,279.29L434.85,296.96L445.2,313.37L455.56,311.47L465.91,338.61L476.26,334.83L486.62,340.51L496.97,343.66L507.32,358.18L517.68,358.18L528.03,358.81L538.38,360.7L559.09,360.07L569.44,361.96L579.8,360.7L590.15,361.33L610.86,361.96L621.21,362.59L631.57,364.49L641.92,359.44L652.27,362.59L662.63,363.23L672.98,361.96L683.33,364.49L704.04,365.75L714.39,365.12L745.45,364.49L755.81,365.75L869.7,365.75L880.05,364.49L890.4,365.75L900.76,365.12L921.46,365.75L931.82,364.49L942.17,365.75L952.53,365.75L1025,365.75" style="vector-effect: none; fill: none; stroke: rgb(124, 181, 236); stroke-opacity: 1; stroke-width: 2px; opacity: 1;"/></g><g class="points"/><g class="text"/></g><g class="trace scatter trace53b7b4" style="stroke-miterlimit: 2; opacity: 1;"><g class="fills"/><g class="errorbars"/><g class="lines"><path class="js-line" d="M0,365.75L289.9,365.75L300.25,348.16L310.61,244.44L320.96,228.97L331.31,219.77L341.67,220.08L352.02,212.19L362.37,210.78L372.73,205.32L383.08,223.21L393.43,217.25L403.79,232.71L424.49,267.69L434.85,277.3L445.2,289.12L455.56,296.91L465.91,299.94L476.26,305.1L486.62,312.47L496.97,315.61L507.32,317.53L517.68,322.99L538.38,331.78L548.74,335.73L559.09,337.95L569.44,341.59L579.8,344.12L590.15,343.41L600.51,349.37L610.86,350.08L621.21,351.19L631.57,350.08L641.92,353.82L652.27,355.44L672.98,356.25L683.33,357.56L693.69,357.26L704.04,358.37L714.39,360.59L724.75,360.59L735.1,360.29L745.45,361.5L755.81,363.02L766.16,361.71L776.52,362.72L786.87,361.61L828.28,364.44L838.64,363.22L859.34,364.23L869.7,364.94L890.4,364.94L900.76,365.55L911.11,364.54L921.46,364.54L931.82,364.54L942.17,365.35L952.53,365.65L962.88,365.14L993.94,365.65L1004.29,365.45L1014.65,365.14L1025,365.75" style="vector-effect: none; fill: none; stroke: rgb(67, 67, 72); stroke-opacity: 1; stroke-width: 2px; opacity: 1;"/></g><g class="points"/><g class="text"/></g><g class="trace scatter traced11f8a" style="stroke-miterlimit: 2; opacity: 1;"><g class="fills"/><g class="errorbars"/><g class="lines"><path class="js-line" d="M0,365.75L289.9,365.75L300.25,359.64L310.61,324.67L320.96,275.26L331.31,265.82L341.67,228.07L352.02,181.44L362.37,104.28L372.73,97.06L383.08,141.47L393.43,88.73L403.79,95.95L414.14,224.74L424.49,253.61L434.85,276.37L445.2,309.68L455.56,312.46L465.91,320.23L476.26,325.22L486.62,326.33L496.97,336.88L507.32,344.65L517.68,346.32L528.03,352.98L538.38,355.2L548.74,355.76L559.09,350.21L569.44,355.2L579.8,356.87L590.15,360.2L600.51,363.53L610.86,360.75L621.21,364.08L631.57,365.19L641.92,362.42L652.27,363.53L662.63,362.97L672.98,365.19L683.33,364.64L693.69,365.19L714.39,365.75L724.75,362.97L735.1,365.75L745.45,365.19L766.16,365.75L776.52,365.19L786.87,365.75L797.22,364.08L807.58,365.19L817.93,365.19L828.28,365.75L838.64,364.64L859.34,365.75L869.7,365.19L880.05,364.08L890.4,365.75L900.76,364.08L911.11,365.19L931.82,365.75L942.17,365.75L1025,365.75" style="vector-effect: none; fill: none; stroke: rgb(144, 237, 125); stroke-opacity: 1; stroke-width: 2px; opacity: 1;"/></g><g class="points"/><g class="text"/></g><g class="trace scatter trace8d08db" style="stroke-miterlimit: 2; opacity: 1;"><g class="fills"/><g class="errorbars"/><g class="lines"><path class="js-line" d="M0,365.75L289.9,365.75L300.25,357.82L310.61,282.03L320.96,259.12L331.31,260.44L341.67,205.8L352.02,204.92L362.37,159.97L372.73,159.53L383.08,192.58L393.43,148.96L403.79,172.75L414.14,231.36L424.49,259.12L434.85,278.95L445.2,292.6L455.56,300.54L465.91,309.79L476.26,319.92L486.62,316.84L496.97,326.97L507.32,327.41L517.68,328.3L528.03,333.58L538.38,340.19L548.74,344.16L559.09,348.57L569.44,349.45L579.8,349.89L590.15,347.68L600.51,352.53L610.86,355.17L621.21,356.94L631.57,360.46L641.92,357.38L652.27,358.7L662.63,359.14L672.98,358.26L683.33,360.02L693.69,360.02L704.04,360.9L714.39,363.11L724.75,362.67L735.1,363.55L745.45,362.67L755.81,363.11L766.16,362.22L776.52,363.11L786.87,364.87L797.22,364.87L807.58,363.55L817.93,365.75L828.28,363.99L838.64,364.87L859.34,365.31L869.7,364.87L880.05,365.75L890.4,364.87L900.76,365.31L911.11,364.87L921.46,365.31L931.82,364.87L952.53,365.75L962.88,365.31L1025,365.75" style="vector-effect: none; fill: none; stroke: rgb(247, 163, 92); stroke-opacity: 1; stroke-width: 2px; opacity: 1;"/></g><g class="points"/><g class="text"/></g><g class="trace scatter tracec8f071" style="stroke-miterlimit: 2; opacity: 1;"><g class="fills"/><g class="errorbars"/><g class="lines"><path class="js-line" d="M0,365.75L289.9,365.75L300.25,360.84L310.61,313.53L320.96,274.82L331.31,269.91L341.67,233.66L352.02,201.72L362.37,74.54L372.73,90.52L383.08,120.01L393.43,19.25L403.79,76.39L414.14,196.8L424.49,267.45L434.85,294.48L445.2,325.2L455.56,322.13L465.91,346.7L476.26,333.8L486.62,331.35L496.97,345.48L507.32,355.31L517.68,346.09L528.03,357.15L538.38,358.99L548.74,359.61L559.09,354.08L569.44,360.84L579.8,360.22L590.15,363.91L600.51,362.06L610.86,363.91L621.21,362.68L631.57,364.52L672.98,365.14L683.33,365.75L693.69,365.75L704.04,364.52L735.1,365.75L745.45,365.14L766.16,365.75L776.52,364.52L786.87,365.75L797.22,365.75L869.7,365.14L880.05,363.91L900.76,365.75L911.11,365.14L931.82,365.75L942.17,365.75L1025,365.75" style="vector-effect: none; fill: none; stroke: rgb(128, 133, 233); stroke-opacity: 1; stroke-width: 2px; opacity: 1;"/></g><g class="points"/><g class="text"/></g><g class="trace scatter trace02a095" style="stroke-miterlimit: 2; opacity: 1;"><g class="fills"/><g class="errorbars"/><g class="lines"><path class="js-line" d="M0,365.75L289.9,365.75L300.25,346.03L310.61,226.73L320.96,214.4L331.31,217.48L341.67,213.02L352.02,207.42L362.37,209.85L372.73,202.71L383.08,220.48L393.43,220.16L403.79,230.38L424.49,275.18L434.85,279.73L445.2,284.43L455.56,299.93L465.91,300.42L476.26,307.4L486.62,315.43L496.97,318.03L507.32,318.6L517.68,326.23L528.03,332.64L538.38,335.72L559.09,339.78L569.44,339.29L579.8,345.06L590.15,346.68L600.51,346.11L610.86,351.63L621.21,353.74L631.57,352.68L683.33,357.23L693.69,359.5L704.04,360.64L714.39,360.8L724.75,360.96L735.1,362.83L745.45,361.61L755.81,362.02L786.87,363.88L797.22,362.5L807.58,364.21L817.93,363.48L838.64,364.13L848.99,364.53L859.34,363.64L869.7,364.69L1025,365.67" style="vector-effect: none; fill: none; stroke: rgb(241, 92, 128); stroke-opacity: 1; stroke-width: 2px; opacity: 1;"/></g><g class="points"/><g class="text"/></g><g class="trace scatter traced70904" style="stroke-miterlimit: 2; opacity: 1;"><g class="fills"/><g class="errorbars"/><g class="lines"><path class="js-line" d="M0,365.75L289.9,365.75L300.25,363.73L310.61,318.32L320.96,286.03L331.31,274.93L341.67,239.1L352.02,204.29L362.37,131.12L372.73,91.26L383.08,104.88L393.43,52.91L403.79,61.49L414.14,198.23L424.49,252.22L434.85,279.47L445.2,312.77L455.56,313.27L465.91,338L476.26,332.45L486.62,330.93L496.97,344.56L507.32,350.11L517.68,343.04L528.03,347.08L538.38,354.65L548.74,353.64L559.09,354.65L569.44,358.18L579.8,360.7L590.15,359.19L600.51,362.72L610.86,359.7L621.21,363.73L631.57,365.75L641.92,362.72L652.27,364.74L662.63,365.75L672.98,365.25L693.69,365.75L704.04,365.75L869.7,365.25L880.05,364.74L911.11,365.75L921.46,365.75L1025,365.75" style="vector-effect: none; fill: none; stroke: rgb(228, 211, 84); stroke-opacity: 1; stroke-width: 2px; opacity: 1;"/></g><g class="points"/><g class="text"/></g><g class="trace scatter traceb2b400" style="stroke-miterlimit: 2; opacity: 1;"><g class="fills"/><g class="errorbars"/><g class="lines"><path class="js-line" d="M0,365.75L289.9,365.75L300.25,359.09L310.61,282.12L320.96,250.49L331.31,252.16L341.67,210.55L352.02,227.61L362.37,137.32L372.73,140.64L383.08,175.6L393.43,119.84L403.79,144.81L414.14,217.62L424.49,275.87L434.85,277.12L445.2,299.18L455.56,304.58L465.91,322.06L476.26,317.07L486.62,320.81L496.97,334.96L507.32,335.38L517.68,331.21L528.03,343.7L538.38,349.94L548.74,344.11L559.09,349.11L569.44,349.52L579.8,347.03L590.15,356.6L600.51,356.6L610.86,358.26L621.21,359.51L631.57,358.68L641.92,360.34L652.27,360.76L662.63,361.17L672.98,363.67L683.33,360.34L693.69,362.42L704.04,362.84L714.39,364.09L745.45,364.09L755.81,364.92L776.52,364.09L786.87,361.59L797.22,365.33L807.58,363.67L817.93,364.92L828.28,364.92L838.64,365.75L848.99,364.5L859.34,365.33L869.7,365.33L880.05,363.67L890.4,364.92L900.76,365.75L911.11,365.75L1004.29,365.75L1014.65,364.92L1025,365.33" style="vector-effect: none; fill: none; stroke: rgb(43, 144, 143); stroke-opacity: 1; stroke-width: 2px; opacity: 1;"/></g><g class="points"/><g class="text"/></g></g></g></g><g class="zerolinelayer-above"/><path class="xlines-above crisp" d="M0,0" style="fill: none;"/><path class="ylines-above crisp" d="M0,0" style="fill: none;"/><g class="overlines-above"/><g class="xaxislayer-above"><g class="xtick"><text text-anchor="middle" x="0" y="451" transform="translate(158.36,0)" style="font-family: 'Lucida Grande', 'Open Sans', verdana, arial, sans-serif; font-size: 10px; fill: rgb(0, 0, 0); fill-opacity: 1; white-space: pre;">−200 bp</text></g><g class="xtick"><text text-anchor="middle" x="0" y="451" style="font-family: 'Lucida Grande', 'Open Sans', verdana, arial, sans-serif; font-size: 10px; fill: rgb(0, 0, 0); fill-opacity: 1; white-space: pre;" transform="translate(261.89,0)">−150 bp</text></g><g class="xtick"><text text-anchor="middle" x="0" y="451" style="font-family: 'Lucida Grande', 'Open Sans', verdana, arial, sans-serif; font-size: 10px; fill: rgb(0, 0, 0); fill-opacity: 1; white-space: pre;" transform="translate(365.43,0)">−100 bp</text></g><g class="xtick"><text text-anchor="middle" x="0" y="451" style="font-family: 'Lucida Grande', 'Open Sans', verdana, arial, sans-serif; font-size: 10px; fill: rgb(0, 0, 0); fill-opacity: 1; white-space: pre;" transform="translate(468.96,0)">−50 bp</text></g><g class="xtick"><text text-anchor="middle" x="0" y="451" style="font-family: 'Lucida Grande', 'Open Sans', verdana, arial, sans-serif; font-size: 10px; fill: rgb(0, 0, 0); fill-opacity: 1; white-space: pre;" transform="translate(572.5,0)">0 bp</text></g><g class="xtick"><text text-anchor="middle" x="0" y="451" style="font-family: 'Lucida Grande', 'Open Sans', verdana, arial, sans-serif; font-size: 10px; fill: rgb(0, 0, 0); fill-opacity: 1; white-space: pre;" transform="translate(676.04,0)">50 bp</text></g><g class="xtick"><text text-anchor="middle" x="0" y="451" style="font-family: 'Lucida Grande', 'Open Sans', verdana, arial, sans-serif; font-size: 10px; fill: rgb(0, 0, 0); fill-opacity: 1; white-space: pre;" transform="translate(779.57,0)">100 bp</text></g><g class="xtick"><text text-anchor="middle" x="0" y="451" style="font-family: 'Lucida Grande', 'Open Sans', verdana, arial, sans-serif; font-size: 10px; fill: rgb(0, 0, 0); fill-opacity: 1; white-space: pre;" transform="translate(883.11,0)">150 bp</text></g><g class="xtick"><text text-anchor="middle" x="0" y="451" style="font-family: 'Lucida Grande', 'Open Sans', verdana, arial, sans-serif; font-size: 10px; fill: rgb(0, 0, 0); fill-opacity: 1; white-space: pre;" transform="translate(986.64,0)">200 bp</text></g></g><g class="yaxislayer-above"><g class="ytick"><text text-anchor="end" x="54" y="3.5" transform="translate(0,415.75)" style="font-family: 'Lucida Grande', 'Open Sans', verdana, arial, sans-serif; font-size: 10px; fill: rgb(0, 0, 0); fill-opacity: 1; white-space: pre;">0%</text></g><g class="ytick"><text text-anchor="end" x="54" y="3.5" style="font-family: 'Lucida Grande', 'Open Sans', verdana, arial, sans-serif; font-size: 10px; fill: rgb(0, 0, 0); fill-opacity: 1; white-space: pre;" transform="translate(0,363.46)">2%</text></g><g class="ytick"><text text-anchor="end" x="54" y="3.5" style="font-family: 'Lucida Grande', 'Open Sans', verdana, arial, sans-serif; font-size: 10px; fill: rgb(0, 0, 0); fill-opacity: 1; white-space: pre;" transform="translate(0,311.16)">4%</text></g><g class="ytick"><text text-anchor="end" x="54" y="3.5" style="font-family: 'Lucida Grande', 'Open Sans', verdana, arial, sans-serif; font-size: 10px; fill: rgb(0, 0, 0); fill-opacity: 1; white-space: pre;" transform="translate(0,258.87)">6%</text></g><g class="ytick"><text text-anchor="end" x="54" y="3.5" style="font-family: 'Lucida Grande', 'Open Sans', verdana, arial, sans-serif; font-size: 10px; fill: rgb(0, 0, 0); fill-opacity: 1; white-space: pre;" transform="translate(0,206.57)">8%</text></g><g class="ytick"><text text-anchor="end" x="54" y="3.5" style="font-family: 'Lucida Grande', 'Open Sans', verdana, arial, sans-serif; font-size: 10px; fill: rgb(0, 0, 0); fill-opacity: 1; white-space: pre;" transform="translate(0,154.28)">10%</text></g><g class="ytick"><text text-anchor="end" x="54" y="3.5" style="font-family: 'Lucida Grande', 'Open Sans', verdana, arial, sans-serif; font-size: 10px; fill: rgb(0, 0, 0); fill-opacity: 1; white-space: pre;" transform="translate(0,101.97999999999999)">12%</text></g></g><g class="overaxes-above"/></g></g><g class="polarlayer"/><g class="smithlayer"/><g class="ternarylayer"/><g class="geolayer"/><g class="funnelarealayer"/><g class="pielayer"/><g class="iciclelayer"/><g class="treemaplayer"/><g class="sunburstlayer"/><g class="glimages"/><defs id="topdefs-7376f9"><g class="clips"/></defs><g class="layer-above"><g class="imagelayer"/><g class="shapelayer"/></g><g class="infolayer"><g class="g-gtitle"><text class="gtitle" x="550" y="25" text-anchor="middle" dy="0em" style="opacity: 1; font-family: 'Lucida Grande', 'Open Sans', verdana, arial, sans-serif; font-size: 20px; fill: rgb(68, 68, 68); fill-opacity: 1; white-space: pre;"><tspan class="line" dy="0em" x="550" y="25">RSeQC: Inner Distance</tspan><tspan class="line" dy="1.3em" x="550" y="25">​<tspan style="font-size:70%" dy="-0.6em">Percentages, 8 lines</tspan><tspan dy="0.42em">​</tspan></tspan></text></g><g class="g-xtitle"><text class="xtitle" x="572.5" y="487" text-anchor="middle" style="opacity: 0.3; font-family: 'Lucida Grande', 'Open Sans', verdana, arial, sans-serif; font-size: 14px; fill: rgb(0, 0, 0); fill-opacity: 1; white-space: pre;">Inner Distance (bp)</text></g><g class="g-ytitle"><text class="ytitle" transform="rotate(-90,22,242.5)" x="22" y="242.5" text-anchor="middle" style="opacity: 0.3; font-family: 'Lucida Grande', 'Open Sans', verdana, arial, sans-serif; font-size: 14px; fill: rgb(0, 0, 0); fill-opacity: 1; white-space: pre;">Percentage</text></g></g></svg>