<svg class="main-svg" xmlns="http://www.w3.org/2000/svg" xmlns:xlink="http://www.w3.org/1999/xlink" width="2200" height="1000" style="" viewBox="0 0 1100 500"><rect x="0" y="0" width="1100" height="500" style="fill: rgb(255, 255, 255); fill-opacity: 1;"/><defs id="defs-62d19d"><g class="clips"><clipPath id="clip62d19dxyplot" class="plotclip"><rect width="1025" height="385"/></clipPath><clipPath class="axesclip" id="clip62d19dx"><rect x="60" y="0" width="1025" height="500"/></clipPath><clipPath class="axesclip" id="clip62d19dy"><rect x="0" y="50" width="1100" height="385"/></clipPath><clipPath class="axesclip" id="clip62d19dxy"><rect x="60" y="50" width="1025" height="385"/></clipPath></g><g class="gradients"/><g class="patterns"/></defs><g class="bglayer"/><g class="layer-below"><g class="imagelayer"/><g class="shapelayer"/></g><g class="cartesianlayer"><g class="subplot xy"><g class="layer-subplot"><g class="shapelayer"/><g class="imagelayer"/></g><g class="minor-gridlayer"><g class="x"/><g class="y"/></g><g class="gridlayer"><g class="x"><path class="xgrid crisp" transform="translate(158.36,0)" d="M0,50v385" style="stroke: rgb(0, 0, 0); stroke-opacity: 0.05; stroke-width: 1px;"/><path class="xgrid crisp" transform="translate(261.89,0)" d="M0,50v385" style="stroke: rgb(0, 0, 0); stroke-opacity: 0.05; stroke-width: 1px;"/><path class="xgrid crisp" transform="translate(365.43,0)" d="M0,50v385" style="stroke: rgb(0, 0, 0); stroke-opacity: 0.05; stroke-width: 1px;"/><path class="xgrid crisp" transform="translate(468.96,0)" d="M0,50v385" style="stroke: rgb(0, 0, 0); stroke-opacity: 0.05; stroke-width: 1px;"/><path class="xgrid crisp" transform="translate(676.04,0)" d="M0,50v385" style="stroke: rgb(0, 0, 0); stroke-opacity: 0.05; stroke-width: 1px;"/><path class="xgrid crisp" transform="translate(779.57,0)" d="M0,50v385" style="stroke: rgb(0, 0, 0); stroke-opacity: 0.05; stroke-width: 1px;"/><path class="xgrid crisp" transform="translate(883.11,0)" d="M0,50v385" style="stroke: rgb(0, 0, 0); stroke-opacity: 0.05; stroke-width: 1px;"/><path class="xgrid crisp" transform="translate(986.64,0)" d="M0,50v385" style="stroke: rgb(0, 0, 0); stroke-opacity: 0.05; stroke-width: 1px;"/></g><g class="y"><path class="ygrid crisp" transform="translate(0,329.51)" d="M60,0h1025" style="stroke: rgb(0, 0, 0); stroke-opacity: 0.05; stroke-width: 1px;"/><path class="ygrid crisp" transform="translate(0,243.28)" d="M60,0h1025" style="stroke: rgb(0, 0, 0); stroke-opacity: 0.05; stroke-width: 1px;"/><path class="ygrid crisp" transform="translate(0,157.04000000000002)" d="M60,0h1025" style="stroke: rgb(0, 0, 0); stroke-opacity: 0.05; stroke-width: 1px;"/><path class="ygrid crisp" transform="translate(0,70.8)" d="M60,0h1025" style="stroke: rgb(0, 0, 0); stroke-opacity: 0.05; stroke-width: 1px;"/></g></g><g class="zerolinelayer"><path class="xzl zl crisp" transform="translate(572.5,0)" d="M0,50v385" style="stroke: rgb(0, 0, 0); stroke-opacity: 0.05; stroke-width: 1px;"/><path class="yzl zl crisp" transform="translate(0,415.75)" d="M60,0h1025" style="stroke: rgb(0, 0, 0); stroke-opacity: 0.05; stroke-width: 1px;"/></g><g class="layer-between"><g class="shapelayer"/><g class="imagelayer"/></g><path class="xlines-below"/><path class="ylines-below"/><g class="overlines-below"/><g class="xaxislayer-below"/><g class="yaxislayer-below"/><g class="overaxes-below"/><g class="overplot"><g class="xy" transform="translate(60,50)" clip-path="url(#clip62d19dxyplot)"><g class="scatterlayer mlayer"><g class="trace scatter trace259901" style="stroke-miterlimit: 2; opacity: 1;"><g class="fills"/><g class="errorbars"/><g class="lines"><path class="js-line" d="M0,365.75L300.25,365.06L310.61,354.54L320.96,343.5L331.31,342.12L341.67,323.32L352.02,310.9L362.37,289.86L372.73,288.65L383.08,291.41L393.43,276.24L403.79,287.96L414.14,326.08L424.49,342.12L434.85,346.95L445.2,351.43L455.56,350.92L465.91,358.33L476.26,357.3L496.97,359.71L507.32,363.68L559.09,364.2L569.44,364.72L590.15,364.54L600.51,364.54L631.57,365.41L641.92,364.03L662.63,365.06L672.98,364.72L693.69,365.58L704.04,365.75L745.45,365.41L755.81,365.75L1025,365.75" style="vector-effect: none; fill: none; stroke: rgb(124, 181, 236); stroke-opacity: 1; stroke-width: 2px; opacity: 1;"/></g><g class="points"/><g class="text"/></g><g class="trace scatter tracea586ce" style="stroke-miterlimit: 2; opacity: 1;"><g class="fills"/><g class="errorbars"/><g class="lines"><path class="js-line" d="M0,365.75L289.9,365.75L300.25,335.74L310.61,158.78L320.96,132.39L331.31,116.7L341.67,117.22L352.02,103.76L362.37,101.35L372.73,92.03L383.08,122.56L393.43,112.39L403.79,138.77L414.14,167.41L424.49,198.45L434.85,214.84L445.2,235.01L455.56,248.3L465.91,253.47L476.26,262.27L486.62,274.86L496.97,280.2L507.32,283.48L517.68,292.79L528.03,300.73L548.74,314.53L559.09,318.32L569.44,324.53L579.8,328.84L590.15,327.63L600.51,337.81L621.21,340.91L631.57,339.02L641.92,345.4L652.27,348.16L662.63,348.33L672.98,349.54L683.33,351.78L693.69,351.26L704.04,353.16L714.39,356.95L735.1,356.44L745.45,358.51L755.81,361.09L766.16,358.85L776.52,360.58L786.87,358.68L828.28,363.51L838.64,361.44L848.99,361.78L859.34,363.16L869.7,364.37L880.05,364.03L900.76,365.41L911.11,363.68L931.82,363.68L942.17,365.06L952.53,365.58L962.88,364.72L973.23,365.41L983.59,364.89L993.94,365.58L1004.29,365.23L1014.65,364.72L1025,365.75" style="vector-effect: none; fill: none; stroke: rgb(67, 67, 72); stroke-opacity: 1; stroke-width: 2px; opacity: 1;"/></g><g class="points"/><g class="text"/></g><g class="trace scatter trace3b7d99" style="stroke-miterlimit: 2; opacity: 1;"><g class="fills"/><g class="errorbars"/><g class="lines"><path class="js-line" d="M0,365.75L289.9,365.75L300.25,363.85L310.61,352.99L320.96,337.64L331.31,334.7L341.67,322.98L352.02,308.49L362.37,284.51L372.73,282.27L383.08,296.07L393.43,279.69L403.79,281.93L414.14,321.94L424.49,330.91L434.85,337.98L445.2,348.33L455.56,349.19L465.91,351.61L476.26,353.16L486.62,353.5L496.97,356.78L507.32,359.2L517.68,359.71L528.03,361.78L548.74,362.65L559.09,360.92L569.44,362.47L579.8,362.99L600.51,365.06L610.86,364.2L631.57,365.58L641.92,364.72L683.33,365.41L693.69,365.58L714.39,365.75L724.75,364.89L735.1,365.75L745.45,365.58L786.87,365.75L797.22,365.23L828.28,365.75L838.64,365.41L869.7,365.58L880.05,365.23L890.4,365.75L900.76,365.23L931.82,365.75L942.17,365.75L1025,365.75" style="vector-effect: none; fill: none; stroke: rgb(144, 237, 125); stroke-opacity: 1; stroke-width: 2px; opacity: 1;"/></g><g class="points"/><g class="text"/></g><g class="trace scatter trace91962a" style="stroke-miterlimit: 2; opacity: 1;"><g class="fills"/><g class="errorbars"/><g class="lines"><path class="js-line" d="M0,365.75L289.9,365.75L300.25,362.65L310.61,332.98L320.96,324.01L331.31,324.53L341.67,303.14L352.02,302.8L362.37,285.2L372.73,285.03L383.08,297.97L393.43,280.89L403.79,290.21L414.14,313.15L424.49,324.01L434.85,331.77L445.2,337.12L465.91,343.85L476.26,347.81L486.62,346.61L496.97,350.57L517.68,351.09L528.03,353.16L538.38,355.75L548.74,357.3L559.09,359.02L569.44,359.37L579.8,359.54L590.15,358.68L600.51,360.58L610.86,361.61L631.57,363.68L641.92,362.47L662.63,363.16L672.98,362.82L693.69,363.51L704.04,363.85L714.39,364.72L724.75,364.54L745.45,364.54L755.81,364.72L776.52,364.72L786.87,365.41L807.58,364.89L817.93,365.75L828.28,365.06L838.64,365.41L880.05,365.75L890.4,365.41L952.53,365.75L962.88,365.58L1025,365.75" style="vector-effect: none; fill: none; stroke: rgb(247, 163, 92); stroke-opacity: 1; stroke-width: 2px; opacity: 1;"/></g><g class="points"/><g class="text"/></g><g class="trace scatter trace6b6d1a" style="stroke-miterlimit: 2; opacity: 1;"><g class="fills"/><g class="errorbars"/><g class="lines"><path class="js-line" d="M0,365.75L289.9,365.75L300.25,364.37L310.61,351.09L320.96,340.22L331.31,338.84L341.67,328.67L352.02,319.7L362.37,284L372.73,288.48L383.08,296.76L393.43,268.47L403.79,284.51L414.14,318.32L424.49,338.15L434.85,345.74L445.2,354.37L455.56,353.5L465.91,360.4L476.26,356.78L486.62,356.09L496.97,360.06L507.32,362.82L517.68,360.23L528.03,363.34L548.74,364.03L559.09,362.47L569.44,364.37L579.8,364.2L590.15,365.23L600.51,364.72L610.86,365.23L621.21,364.89L641.92,365.41L652.27,365.41L1025,365.75" style="vector-effect: none; fill: none; stroke: rgb(128, 133, 233); stroke-opacity: 1; stroke-width: 2px; opacity: 1;"/></g><g class="points"/><g class="text"/></g><g class="trace scatter trace310f19" style="stroke-miterlimit: 2; opacity: 1;"><g class="fills"/><g class="errorbars"/><g class="lines"><path class="js-line" d="M0,365.75L289.9,365.75L300.25,323.84L310.61,70.3L320.96,44.09L331.31,50.64L341.67,41.15L352.02,29.25L362.37,34.43L372.73,19.25L383.08,57.02L393.43,56.33L403.79,78.06L424.49,173.27L434.85,182.93L445.2,192.93L455.56,225.87L465.91,226.91L476.26,241.74L486.62,258.82L496.97,264.34L507.32,265.54L517.68,281.76L528.03,295.38L538.38,301.93L548.74,306.94L559.09,310.56L569.44,309.52L579.8,321.77L590.15,325.22L600.51,324.01L610.86,335.74L621.21,340.22L631.57,337.98L641.92,340.22L672.98,346.26L683.33,347.64L693.69,352.47L704.04,354.88L724.75,355.57L735.1,359.54L745.45,356.95L755.81,357.82L766.16,359.2L776.52,359.37L786.87,361.78L797.22,358.85L807.58,362.47L817.93,360.92L828.28,362.3L838.64,362.3L848.99,363.16L859.34,361.27L869.7,363.51L880.05,363.68L890.4,364.03L900.76,363.51L911.11,364.72L921.46,364.89L942.17,364.37L952.53,365.58L993.94,364.89L1004.29,365.23L1025,365.58" style="vector-effect: none; fill: none; stroke: rgb(241, 92, 128); stroke-opacity: 1; stroke-width: 2px; opacity: 1;"/></g><g class="points"/><g class="text"/></g><g class="trace scatter trace82cd24" style="stroke-miterlimit: 2; opacity: 1;"><g class="fills"/><g class="errorbars"/><g class="lines"><path class="js-line" d="M0,365.75L300.25,365.06L310.61,349.54L320.96,338.5L331.31,334.7L352.02,310.56L362.37,285.55L372.73,271.92L383.08,276.58L393.43,258.82L403.79,261.75L414.14,308.49L424.49,326.94L434.85,336.26L445.2,347.64L455.56,347.81L465.91,356.26L476.26,354.37L486.62,353.85L496.97,358.51L507.32,360.4L517.68,357.99L528.03,359.37L538.38,361.96L548.74,361.61L559.09,361.96L569.44,363.16L579.8,364.03L590.15,363.51L600.51,364.72L610.86,363.68L631.57,365.75L641.92,364.72L662.63,365.75L672.98,365.58L724.75,365.75L735.1,365.58L786.87,365.75L797.22,365.75L1025,365.75" style="vector-effect: none; fill: none; stroke: rgb(228, 211, 84); stroke-opacity: 1; stroke-width: 2px; opacity: 1;"/></g><g class="points"/><g class="text"/></g><g class="trace scatter traceac9b66" style="stroke-miterlimit: 2; opacity: 1;"><g class="fills"/><g class="errorbars"/><g class="lines"><path class="js-line" d="M0,365.75L289.9,365.75L300.25,362.99L310.61,331.08L320.96,317.97L331.31,318.66L341.67,301.42L352.02,308.49L362.37,271.06L372.73,272.44L383.08,286.93L393.43,263.82L403.79,274.17L414.14,304.35L424.49,328.5L434.85,329.01L445.2,338.15L455.56,340.4L465.91,347.64L476.26,345.57L486.62,347.12L496.97,352.99L507.32,353.16L517.68,351.43L528.03,356.61L538.38,359.2L548.74,356.78L559.09,358.85L569.44,359.02L579.8,357.99L590.15,361.96L610.86,362.65L621.21,363.16L631.57,362.82L641.92,363.51L662.63,363.85L672.98,364.89L683.33,363.51L693.69,364.37L766.16,365.23L776.52,365.06L786.87,364.03L797.22,365.58L807.58,364.89L817.93,365.41L869.7,365.58L880.05,364.89L911.11,365.75L921.46,365.75L962.88,365.75L973.23,365.75L1025,365.58" style="vector-effect: none; fill: none; stroke: rgb(43, 144, 143); stroke-opacity: 1; stroke-width: 2px; opacity: 1;"/></g><g class="points"/><g class="text"/></g></g></g></g><g class="zerolinelayer-above"/><path class="xlines-above crisp" d="M0,0" style="fill: none;"/><path class="ylines-above crisp" d="M0,0" style="fill: none;"/><g class="overlines-above"/><g class="xaxislayer-above"><g class="xtick"><text text-anchor="middle" x="0" y="451" transform="translate(158.36,0)" style="font-family: 'Lucida Grande', 'Open Sans', verdana, arial, sans-serif; font-size: 10px; fill: rgb(0, 0, 0); fill-opacity: 1; white-space: pre;">−200 bp</text></g><g class="xtick"><text text-anchor="middle" x="0" y="451" style="font-family: 'Lucida Grande', 'Open Sans', verdana, arial, sans-serif; font-size: 10px; fill: rgb(0, 0, 0); fill-opacity: 1; white-space: pre;" transform="translate(261.89,0)">−150 bp</text></g><g class="xtick"><text text-anchor="middle" x="0" y="451" style="font-family: 'Lucida Grande', 'Open Sans', verdana, arial, sans-serif; font-size: 10px; fill: rgb(0, 0, 0); fill-opacity: 1; white-space: pre;" transform="translate(365.43,0)">−100 bp</text></g><g class="xtick"><text text-anchor="middle" x="0" y="451" style="font-family: 'Lucida Grande', 'Open Sans', verdana, arial, sans-serif; font-size: 10px; fill: rgb(0, 0, 0); fill-opacity: 1; white-space: pre;" transform="translate(468.96,0)">−50 bp</text></g><g class="xtick"><text text-anchor="middle" x="0" y="451" style="font-family: 'Lucida Grande', 'Open Sans', verdana, arial, sans-serif; font-size: 10px; fill: rgb(0, 0, 0); fill-opacity: 1; white-space: pre;" transform="translate(572.5,0)">0 bp</text></g><g class="xtick"><text text-anchor="middle" x="0" y="451" style="font-family: 'Lucida Grande', 'Open Sans', verdana, arial, sans-serif; font-size: 10px; fill: rgb(0, 0, 0); fill-opacity: 1; white-space: pre;" transform="translate(676.04,0)">50 bp</text></g><g class="xtick"><text text-anchor="middle" x="0" y="451" style="font-family: 'Lucida Grande', 'Open Sans', verdana, arial, sans-serif; font-size: 10px; fill: rgb(0, 0, 0); fill-opacity: 1; white-space: pre;" transform="translate(779.57,0)">100 bp</text></g><g class="xtick"><text text-anchor="middle" x="0" y="451" style="font-family: 'Lucida Grande', 'Open Sans', verdana, arial, sans-serif; font-size: 10px; fill: rgb(0, 0, 0); fill-opacity: 1; white-space: pre;" transform="translate(883.11,0)">150 bp</text></g><g class="xtick"><text text-anchor="middle" x="0" y="451" style="font-family: 'Lucida Grande', 'Open Sans', verdana, arial, sans-serif; font-size: 10px; fill: rgb(0, 0, 0); fill-opacity: 1; white-space: pre;" transform="translate(986.64,0)">200 bp</text></g></g><g class="yaxislayer-above"><g class="ytick"><text text-anchor="end" x="54" y="3.5" transform="translate(0,415.75)" style="font-family: 'Lucida Grande', 'Open Sans', verdana, arial, sans-serif; font-size: 10px; fill: rgb(0, 0, 0); fill-opacity: 1; white-space: pre;">0</text></g><g class="ytick"><text text-anchor="end" x="54" y="3.5" style="font-family: 'Lucida Grande', 'Open Sans', verdana, arial, sans-serif; font-size: 10px; fill: rgb(0, 0, 0); fill-opacity: 1; white-space: pre;" transform="translate(0,329.51)">500</text></g><g class="ytick"><text text-anchor="end" x="54" y="3.5" style="font-family: 'Lucida Grande', 'Open Sans', verdana, arial, sans-serif; font-size: 10px; fill: rgb(0, 0, 0); fill-opacity: 1; white-space: pre;" transform="translate(0,243.28)">1000</text></g><g class="ytick"><text text-anchor="end" x="54" y="3.5" style="font-family: 'Lucida Grande', 'Open Sans', verdana, arial, sans-serif; font-size: 10px; fill: rgb(0, 0, 0); fill-opacity: 1; white-space: pre;" transform="translate(0,157.04000000000002)">1500</text></g><g class="ytick"><text text-anchor="end" x="54" y="3.5" style="font-family: 'Lucida Grande', 'Open Sans', verdana, arial, sans-serif; font-size: 10px; fill: rgb(0, 0, 0); fill-opacity: 1; white-space: pre;" transform="translate(0,70.8)">2000</text></g></g><g class="overaxes-above"/></g></g><g class="polarlayer"/><g class="smithlayer"/><g class="ternarylayer"/><g class="geolayer"/><g class="funnelarealayer"/><g class="pielayer"/><g class="iciclelayer"/><g class="treemaplayer"/><g class="sunburstlayer"/><g class="glimages"/><defs id="topdefs-62d19d"><g class="clips"/></defs><g class="layer-above"><g class="imagelayer"/><g class="shapelayer"/></g><g class="infolayer"><g class="g-gtitle"><text class="gtitle" x="550" y="25" text-anchor="middle" dy="0em" style="opacity: 1; font-family: 'Lucida Grande', 'Open Sans', verdana, arial, sans-serif; font-size: 20px; fill: rgb(68, 68, 68); fill-opacity: 1; white-space: pre;"><tspan class="line" dy="0em" x="550" y="25">RSeQC: Inner Distance</tspan><tspan class="line" dy="1.3em" x="550" y="25">​<tspan style="font-size:70%" dy="-0.6em">Counts, 8 lines</tspan><tspan dy="0.42em">​</tspan></tspan></text></g><g class="g-xtitle"><text class="xtitle" x="572.5" y="487" text-anchor="middle" style="opacity: 0.3; font-family: 'Lucida Grande', 'Open Sans', verdana, arial, sans-serif; font-size: 14px; fill: rgb(0, 0, 0); fill-opacity: 1; white-space: pre;">Inner Distance (bp)</text></g><g class="g-ytitle"><text class="ytitle" transform="rotate(-90,22,242.5)" x="22" y="242.5" text-anchor="middle" style="opacity: 0.3; font-family: 'Lucida Grande', 'Open Sans', verdana, arial, sans-serif; font-size: 14px; fill: rgb(0, 0, 0); fill-opacity: 1; white-space: pre;">Counts</text></g></g></svg>