<svg class="main-svg" xmlns="http://www.w3.org/2000/svg" xmlns:xlink="http://www.w3.org/1999/xlink" width="2200" height="1000" style="" viewBox="0 0 1100 500"><rect x="0" y="0" width="1100" height="500" style="fill: rgb(255, 255, 255); fill-opacity: 1;"/><defs id="defs-6d3d33"><g class="clips"><clipPath id="clip6d3d33xyplot" class="plotclip"><rect width="928" height="350"/></clipPath><clipPath class="axesclip" id="clip6d3d33x"><rect x="60" y="0" width="928" height="500"/></clipPath><clipPath class="axesclip" id="clip6d3d33y"><rect x="0" y="50" width="1100" height="350"/></clipPath><clipPath class="axesclip" id="clip6d3d33xy"><rect x="60" y="50" width="928" height="350"/></clipPath></g><g class="gradients"/><g class="patterns"/></defs><g class="bglayer"/><g class="layer-below"><g class="imagelayer"/><g class="shapelayer"/></g><g class="cartesianlayer"><g class="subplot xy"><g class="layer-subplot"><g class="shapelayer"/><g class="imagelayer"/></g><g class="minor-gridlayer"><g class="x"/><g class="y"/></g><g class="gridlayer"><g class="x"><path class="xgrid crisp" transform="translate(121.87,0)" d="M0,50v350" style="stroke: rgb(0, 0, 0); stroke-opacity: 0.05; stroke-width: 1px;"/><path class="xgrid crisp" transform="translate(183.73000000000002,0)" d="M0,50v350" style="stroke: rgb(0, 0, 0); stroke-opacity: 0.05; stroke-width: 1px;"/><path class="xgrid crisp" transform="translate(245.6,0)" d="M0,50v350" style="stroke: rgb(0, 0, 0); stroke-opacity: 0.05; stroke-width: 1px;"/><path class="xgrid crisp" transform="translate(307.47,0)" d="M0,50v350" style="stroke: rgb(0, 0, 0); stroke-opacity: 0.05; stroke-width: 1px;"/><path class="xgrid crisp" transform="translate(369.33,0)" d="M0,50v350" style="stroke: rgb(0, 0, 0); stroke-opacity: 0.05; stroke-width: 1px;"/><path class="xgrid crisp" transform="translate(431.2,0)" d="M0,50v350" style="stroke: rgb(0, 0, 0); stroke-opacity: 0.05; stroke-width: 1px;"/><path class="xgrid crisp" transform="translate(493.07,0)" d="M0,50v350" style="stroke: rgb(0, 0, 0); stroke-opacity: 0.05; stroke-width: 1px;"/><path class="xgrid crisp" transform="translate(554.9300000000001,0)" d="M0,50v350" style="stroke: rgb(0, 0, 0); stroke-opacity: 0.05; stroke-width: 1px;"/><path class="xgrid crisp" transform="translate(616.8,0)" d="M0,50v350" style="stroke: rgb(0, 0, 0); stroke-opacity: 0.05; stroke-width: 1px;"/><path class="xgrid crisp" transform="translate(678.67,0)" d="M0,50v350" style="stroke: rgb(0, 0, 0); stroke-opacity: 0.05; stroke-width: 1px;"/><path class="xgrid crisp" transform="translate(740.53,0)" d="M0,50v350" style="stroke: rgb(0, 0, 0); stroke-opacity: 0.05; stroke-width: 1px;"/><path class="xgrid crisp" transform="translate(802.4,0)" d="M0,50v350" style="stroke: rgb(0, 0, 0); stroke-opacity: 0.05; stroke-width: 1px;"/><path class="xgrid crisp" transform="translate(864.27,0)" d="M0,50v350" style="stroke: rgb(0, 0, 0); stroke-opacity: 0.05; stroke-width: 1px;"/><path class="xgrid crisp" transform="translate(926.13,0)" d="M0,50v350" style="stroke: rgb(0, 0, 0); stroke-opacity: 0.05; stroke-width: 1px;"/></g><g class="y"><path class="ygrid crisp" transform="translate(0,385.24)" d="M60,0h928" style="stroke: rgb(0, 0, 0); stroke-opacity: 0.05; stroke-width: 1px;"/><path class="ygrid crisp" transform="translate(0,367.12)" d="M60,0h928" style="stroke: rgb(0, 0, 0); stroke-opacity: 0.05; stroke-width: 1px;"/><path class="ygrid crisp" transform="translate(0,349)" d="M60,0h928" style="stroke: rgb(0, 0, 0); stroke-opacity: 0.05; stroke-width: 1px;"/><path class="ygrid crisp" transform="translate(0,325.06)" d="M60,0h928" style="stroke: rgb(0, 0, 0); stroke-opacity: 0.05; stroke-width: 1px;"/><path class="ygrid crisp" transform="translate(0,306.94)" d="M60,0h928" style="stroke: rgb(0, 0, 0); stroke-opacity: 0.05; stroke-width: 1px;"/><path class="ygrid crisp" transform="translate(0,288.83000000000004)" d="M60,0h928" style="stroke: rgb(0, 0, 0); stroke-opacity: 0.05; stroke-width: 1px;"/><path class="ygrid crisp" transform="translate(0,264.88)" d="M60,0h928" style="stroke: rgb(0, 0, 0); stroke-opacity: 0.05; stroke-width: 1px;"/><path class="ygrid crisp" transform="translate(0,246.76)" d="M60,0h928" style="stroke: rgb(0, 0, 0); stroke-opacity: 0.05; stroke-width: 1px;"/><path class="ygrid crisp" transform="translate(0,228.65)" d="M60,0h928" style="stroke: rgb(0, 0, 0); stroke-opacity: 0.05; stroke-width: 1px;"/><path class="ygrid crisp" transform="translate(0,204.7)" d="M60,0h928" style="stroke: rgb(0, 0, 0); stroke-opacity: 0.05; stroke-width: 1px;"/><path class="ygrid crisp" transform="translate(0,186.59)" d="M60,0h928" style="stroke: rgb(0, 0, 0); stroke-opacity: 0.05; stroke-width: 1px;"/><path class="ygrid crisp" transform="translate(0,168.47)" d="M60,0h928" style="stroke: rgb(0, 0, 0); stroke-opacity: 0.05; stroke-width: 1px;"/><path class="ygrid crisp" transform="translate(0,144.53)" d="M60,0h928" style="stroke: rgb(0, 0, 0); stroke-opacity: 0.05; stroke-width: 1px;"/><path class="ygrid crisp" transform="translate(0,126.41)" d="M60,0h928" style="stroke: rgb(0, 0, 0); stroke-opacity: 0.05; stroke-width: 1px;"/><path class="ygrid crisp" transform="translate(0,108.28999999999999)" d="M60,0h928" style="stroke: rgb(0, 0, 0); stroke-opacity: 0.05; stroke-width: 1px;"/><path class="ygrid crisp" transform="translate(0,84.35)" d="M60,0h928" style="stroke: rgb(0, 0, 0); stroke-opacity: 0.05; stroke-width: 1px;"/><path class="ygrid crisp" transform="translate(0,66.23)" d="M60,0h928" style="stroke: rgb(0, 0, 0); stroke-opacity: 0.05; stroke-width: 1px;"/></g></g><g class="zerolinelayer"/><g class="layer-between"><g class="shapelayer"/><g class="imagelayer"/></g><path class="xlines-below"/><path class="ylines-below"/><g class="overlines-below"/><g class="xaxislayer-below"/><g class="yaxislayer-below"/><g class="overaxes-below"/><g class="overplot"><g class="xy" transform="translate(60,50)" clip-path="url(#clip6d3d33xyplot)"><g class="scatterlayer mlayer"><g class="trace scatter trace7a085a" style="stroke-miterlimit: 2; opacity: 1;"><g class="fills"/><g class="errorbars"/><g class="lines"><path class="js-line" d="M0,213.1L61.87,266.25L123.73,296.81L185.6,211.41L247.47,288.38L309.33,262.44L371.2,307.4L433.07,203.19L494.93,246.45L556.8,239.28L618.67,196.29L680.53,256.36L742.4,272.75L804.27,164.93L866.13,245.74L928,17.97" style="vector-effect: none; fill: none; stroke: rgb(124, 181, 236); stroke-opacity: 1; stroke-width: 2px; opacity: 1;"/></g><g class="points"/><g class="text"/></g><g class="trace scatter trace2aedd2" style="stroke-miterlimit: 2; opacity: 1;"><g class="fills"/><g class="errorbars"/><g class="lines"><path class="js-line" d="M0,191.99L61.87,201.12L123.73,204.14L185.6,183.21L247.47,205.87L309.33,202.51L371.2,193.51L433.07,199.69L494.93,201.93L618.67,205.99L680.53,199.34L742.4,201.6L804.27,165.35L866.13,202.52L928,19.63" style="vector-effect: none; fill: none; stroke: rgb(67, 67, 72); stroke-opacity: 1; stroke-width: 2px; opacity: 1;"/></g><g class="points"/><g class="text"/></g><g class="trace scatter trace82dbff" style="stroke-miterlimit: 2; opacity: 1;"><g class="fills"/><g class="errorbars"/><g class="lines"><path class="js-line" d="M0,231.57L61.87,276.61L123.73,318.08L185.6,206.13L247.47,304.34L309.33,277.44L371.2,326.3L433.07,219.96L494.93,254.8L556.8,257.43L618.67,332.5L680.53,278.57L742.4,285.38L804.27,184.02L866.13,253.82L928,17.5" style="vector-effect: none; fill: none; stroke: rgb(144, 237, 125); stroke-opacity: 1; stroke-width: 2px; opacity: 1;"/></g><g class="points"/><g class="text"/></g><g class="trace scatter traced7b3fc" style="stroke-miterlimit: 2; opacity: 1;"><g class="fills"/><g class="errorbars"/><g class="lines"><path class="js-line" d="M0,194.96L61.87,229.15L123.73,235.59L185.6,168.23L247.47,229.3L309.33,221.37L371.2,221.29L433.07,185.71L494.93,217.15L556.8,218.11L618.67,230.11L680.53,218.97L742.4,217.16L804.27,152.04L866.13,216.07L928,19.13" style="vector-effect: none; fill: none; stroke: rgb(247, 163, 92); stroke-opacity: 1; stroke-width: 2px; opacity: 1;"/></g><g class="points"/><g class="text"/></g><g class="trace scatter trace48bc7c" style="stroke-miterlimit: 2; opacity: 1;"><g class="fills"/><g class="errorbars"/><g class="lines"><path class="js-line" d="M0,216.5L61.87,269.29L123.73,309.67L185.6,208.13L247.47,291.95L309.33,281.65L371.2,318.14L433.07,194.92L494.93,241.41L556.8,240.24L618.67,284.04L680.53,209.24L742.4,279.8L804.27,165.99L866.13,226.39L928,17.84" style="vector-effect: none; fill: none; stroke: rgb(128, 133, 233); stroke-opacity: 1; stroke-width: 2px; opacity: 1;"/></g><g class="points"/><g class="text"/></g><g class="trace scatter trace82df07" style="stroke-miterlimit: 2; opacity: 1;"><g class="fills"/><g class="errorbars"/><g class="lines"><path class="js-line" d="M0,187.52L61.87,194.85L123.73,198.19L185.6,178.82L247.47,198.53L309.33,197.01L371.2,183.96L433.07,183.08L494.93,196.58L556.8,190.14L618.67,199.55L680.53,186.74L742.4,192.32L804.27,161.34L866.13,194.12L928,20.48" style="vector-effect: none; fill: none; stroke: rgb(241, 92, 128); stroke-opacity: 1; stroke-width: 2px; opacity: 1;"/></g><g class="points"/><g class="text"/></g><g class="trace scatter traceab00c3" style="stroke-miterlimit: 2; opacity: 1;"><g class="fills"/><g class="errorbars"/><g class="lines"><path class="js-line" d="M0,208.47L61.87,259.38L123.73,312.15L185.6,190.98L247.47,285.59L309.33,264.36L371.2,306.66L433.07,193.96L494.93,242.37L556.8,228.95L618.67,312.53L680.53,219.66L742.4,265.08L804.27,162.48L866.13,273.55L928,18.02" style="vector-effect: none; fill: none; stroke: rgb(228, 211, 84); stroke-opacity: 1; stroke-width: 2px; opacity: 1;"/></g><g class="points"/><g class="text"/></g><g class="trace scatter trace1a6c16" style="stroke-miterlimit: 2; opacity: 1;"><g class="fills"/><g class="errorbars"/><g class="lines"><path class="js-line" d="M0,212.99L61.87,248.08L123.73,262.09L185.6,189.98L247.47,256.36L309.33,251.4L371.2,249.01L433.07,193.04L494.93,234.91L556.8,213.81L618.67,253.3L680.53,237.66L742.4,244.39L804.27,168.71L866.13,244.67L928,18.07" style="vector-effect: none; fill: none; stroke: rgb(43, 144, 143); stroke-opacity: 1; stroke-width: 2px; opacity: 1;"/></g><g class="points"/><g class="text"/></g></g></g></g><g class="zerolinelayer-above"/><path class="xlines-above crisp" d="M0,0" style="fill: none;"/><path class="ylines-above crisp" d="M0,0" style="fill: none;"/><g class="overlines-above"/><g class="xaxislayer-above"><g class="xtick"><text text-anchor="start" x="0" y="416" transform="translate(60,0) rotate(29.999999999999996,0,411)" style="font-family: 'Lucida Grande', 'Open Sans', verdana, arial, sans-serif; font-size: 10px; fill: rgb(0, 0, 0); fill-opacity: 1; white-space: pre;">Chr1_pilon_pilon_pilon</text></g><g class="xtick"><text text-anchor="start" x="0" y="416" transform="translate(121.87,0) rotate(29.999999999999996,0,411)" style="font-family: 'Lucida Grande', 'Open Sans', verdana, arial, sans-serif; font-size: 10px; fill: rgb(0, 0, 0); fill-opacity: 1; white-space: pre;">Chr2_pilon_pilon_pilon</text></g><g class="xtick"><text text-anchor="start" x="0" y="416" transform="translate(183.73000000000002,0) rotate(29.999999999999996,0,411)" style="font-family: 'Lucida Grande', 'Open Sans', verdana, arial, sans-serif; font-size: 10px; fill: rgb(0, 0, 0); fill-opacity: 1; white-space: pre;">Chr3_pilon_pilon_pilon</text></g><g class="xtick"><text text-anchor="start" x="0" y="416" transform="translate(245.6,0) rotate(29.999999999999996,0,411)" style="font-family: 'Lucida Grande', 'Open Sans', verdana, arial, sans-serif; font-size: 10px; fill: rgb(0, 0, 0); fill-opacity: 1; white-space: pre;">Chr4_pilon_pilon_pilon</text></g><g class="xtick"><text text-anchor="start" x="0" y="416" transform="translate(307.47,0) rotate(29.999999999999996,0,411)" style="font-family: 'Lucida Grande', 'Open Sans', verdana, arial, sans-serif; font-size: 10px; fill: rgb(0, 0, 0); fill-opacity: 1; white-space: pre;">Chr5_pilon_pilon_pilon</text></g><g class="xtick"><text text-anchor="start" x="0" y="416" transform="translate(369.33,0) rotate(29.999999999999996,0,411)" style="font-family: 'Lucida Grande', 'Open Sans', verdana, arial, sans-serif; font-size: 10px; fill: rgb(0, 0, 0); fill-opacity: 1; white-space: pre;">Chr6_pilon_pilon_pilon</text></g><g class="xtick"><text text-anchor="start" x="0" y="416" transform="translate(431.2,0) rotate(29.999999999999996,0,411)" style="font-family: 'Lucida Grande', 'Open Sans', verdana, arial, sans-serif; font-size: 10px; fill: rgb(0, 0, 0); fill-opacity: 1; white-space: pre;">Chr7_pilon_pilon_pilon</text></g><g class="xtick"><text text-anchor="start" x="0" y="416" transform="translate(493.07,0) rotate(29.999999999999996,0,411)" style="font-family: 'Lucida Grande', 'Open Sans', verdana, arial, sans-serif; font-size: 10px; fill: rgb(0, 0, 0); fill-opacity: 1; white-space: pre;">Chr9_pilon_pilon_pilon</text></g><g class="xtick"><text text-anchor="start" x="0" y="416" transform="translate(554.9300000000001,0) rotate(29.999999999999996,0,411)" style="font-family: 'Lucida Grande', 'Open Sans', verdana, arial, sans-serif; font-size: 10px; fill: rgb(0, 0, 0); fill-opacity: 1; white-space: pre;">Chr10_pilon_pilon_pilon</text></g><g class="xtick"><text text-anchor="start" x="0" y="416" transform="translate(616.8,0) rotate(29.999999999999996,0,411)" style="font-family: 'Lucida Grande', 'Open Sans', verdana, arial, sans-serif; font-size: 10px; fill: rgb(0, 0, 0); fill-opacity: 1; white-space: pre;">Chr11_pilon_pilon_pilon</text></g><g class="xtick"><text text-anchor="start" x="0" y="416" transform="translate(678.67,0) rotate(29.999999999999996,0,411)" style="font-family: 'Lucida Grande', 'Open Sans', verdana, arial, sans-serif; font-size: 10px; fill: rgb(0, 0, 0); fill-opacity: 1; white-space: pre;">Chr12_pilon_pilon_pilon</text></g><g class="xtick"><text text-anchor="start" x="0" y="416" transform="translate(740.53,0) rotate(29.999999999999996,0,411)" style="font-family: 'Lucida Grande', 'Open Sans', verdana, arial, sans-serif; font-size: 10px; fill: rgb(0, 0, 0); fill-opacity: 1; white-space: pre;">Chr15_pilon_pilon_pilon</text></g><g class="xtick"><text text-anchor="start" x="0" y="416" transform="translate(802.4,0) rotate(29.999999999999996,0,411)" style="font-family: 'Lucida Grande', 'Open Sans', verdana, arial, sans-serif; font-size: 10px; fill: rgb(0, 0, 0); fill-opacity: 1; white-space: pre;">Chr16_pilon_pilon_pilon</text></g><g class="xtick"><text text-anchor="start" x="0" y="416" transform="translate(864.27,0) rotate(29.999999999999996,0,411)" style="font-family: 'Lucida Grande', 'Open Sans', verdana, arial, sans-serif; font-size: 10px; fill: rgb(0, 0, 0); fill-opacity: 1; white-space: pre;">Chr17_pilon_pilon_pilon</text></g><g class="xtick"><text text-anchor="start" x="0" y="416" transform="translate(926.13,0) rotate(29.999999999999996,0,411)" style="font-family: 'Lucida Grande', 'Open Sans', verdana, arial, sans-serif; font-size: 10px; fill: rgb(0, 0, 0); fill-opacity: 1; white-space: pre;">Chr21_pilon_pilon_pilon</text></g><g class="xtick"><text text-anchor="start" x="0" y="416" transform="translate(988,0) rotate(29.999999999999996,0,411)" style="font-family: 'Lucida Grande', 'Open Sans', verdana, arial, sans-serif; font-size: 10px; fill: rgb(0, 0, 0); fill-opacity: 1; white-space: pre;">Chr23_pilon_pilon_pilon</text></g></g><g class="yaxislayer-above"><g class="ytick"><text text-anchor="end" x="54" y="2.625" transform="translate(0,385.24)" style="font-family: 'Lucida Grande', 'Open Sans', verdana, arial, sans-serif; font-size: 7.5px; fill: rgb(0, 0, 0); fill-opacity: 1; white-space: pre;">5</text></g><g class="ytick"><text text-anchor="end" x="54" y="3.5" style="font-family: 'Lucida Grande', 'Open Sans', verdana, arial, sans-serif; font-size: 10px; fill: rgb(0, 0, 0); fill-opacity: 1; white-space: pre;" transform="translate(0,367.12)">0.001</text></g><g class="ytick"><text text-anchor="end" x="54" y="2.625" style="font-family: 'Lucida Grande', 'Open Sans', verdana, arial, sans-serif; font-size: 7.5px; fill: rgb(0, 0, 0); fill-opacity: 1; white-space: pre;" transform="translate(0,349)">2</text></g><g class="ytick"><text text-anchor="end" x="54" y="2.625" style="font-family: 'Lucida Grande', 'Open Sans', verdana, arial, sans-serif; font-size: 7.5px; fill: rgb(0, 0, 0); fill-opacity: 1; white-space: pre;" transform="translate(0,325.06)">5</text></g><g class="ytick"><text text-anchor="end" x="54" y="3.5" style="font-family: 'Lucida Grande', 'Open Sans', verdana, arial, sans-serif; font-size: 10px; fill: rgb(0, 0, 0); fill-opacity: 1; white-space: pre;" transform="translate(0,306.94)">0.01</text></g><g class="ytick"><text text-anchor="end" x="54" y="2.625" style="font-family: 'Lucida Grande', 'Open Sans', verdana, arial, sans-serif; font-size: 7.5px; fill: rgb(0, 0, 0); fill-opacity: 1; white-space: pre;" transform="translate(0,288.83000000000004)">2</text></g><g class="ytick"><text text-anchor="end" x="54" y="2.625" style="font-family: 'Lucida Grande', 'Open Sans', verdana, arial, sans-serif; font-size: 7.5px; fill: rgb(0, 0, 0); fill-opacity: 1; white-space: pre;" transform="translate(0,264.88)">5</text></g><g class="ytick"><text text-anchor="end" x="54" y="3.5" style="font-family: 'Lucida Grande', 'Open Sans', verdana, arial, sans-serif; font-size: 10px; fill: rgb(0, 0, 0); fill-opacity: 1; white-space: pre;" transform="translate(0,246.76)">0.1</text></g><g class="ytick"><text text-anchor="end" x="54" y="2.625" style="font-family: 'Lucida Grande', 'Open Sans', verdana, arial, sans-serif; font-size: 7.5px; fill: rgb(0, 0, 0); fill-opacity: 1; white-space: pre;" transform="translate(0,228.65)">2</text></g><g class="ytick"><text text-anchor="end" x="54" y="2.625" style="font-family: 'Lucida Grande', 'Open Sans', verdana, arial, sans-serif; font-size: 7.5px; fill: rgb(0, 0, 0); fill-opacity: 1; white-space: pre;" transform="translate(0,204.7)">5</text></g><g class="ytick"><text text-anchor="end" x="54" y="3.5" style="font-family: 'Lucida Grande', 'Open Sans', verdana, arial, sans-serif; font-size: 10px; fill: rgb(0, 0, 0); fill-opacity: 1; white-space: pre;" transform="translate(0,186.59)">1</text></g><g class="ytick"><text text-anchor="end" x="54" y="2.625" style="font-family: 'Lucida Grande', 'Open Sans', verdana, arial, sans-serif; font-size: 7.5px; fill: rgb(0, 0, 0); fill-opacity: 1; white-space: pre;" transform="translate(0,168.47)">2</text></g><g class="ytick"><text text-anchor="end" x="54" y="2.625" style="font-family: 'Lucida Grande', 'Open Sans', verdana, arial, sans-serif; font-size: 7.5px; fill: rgb(0, 0, 0); fill-opacity: 1; white-space: pre;" transform="translate(0,144.53)">5</text></g><g class="ytick"><text text-anchor="end" x="54" y="3.5" style="font-family: 'Lucida Grande', 'Open Sans', verdana, arial, sans-serif; font-size: 10px; fill: rgb(0, 0, 0); fill-opacity: 1; white-space: pre;" transform="translate(0,126.41)">10</text></g><g class="ytick"><text text-anchor="end" x="54" y="2.625" style="font-family: 'Lucida Grande', 'Open Sans', verdana, arial, sans-serif; font-size: 7.5px; fill: rgb(0, 0, 0); fill-opacity: 1; white-space: pre;" transform="translate(0,108.28999999999999)">2</text></g><g class="ytick"><text text-anchor="end" x="54" y="2.625" style="font-family: 'Lucida Grande', 'Open Sans', verdana, arial, sans-serif; font-size: 7.5px; fill: rgb(0, 0, 0); fill-opacity: 1; white-space: pre;" transform="translate(0,84.35)">5</text></g><g class="ytick"><text text-anchor="end" x="54" y="3.5" style="font-family: 'Lucida Grande', 'Open Sans', verdana, arial, sans-serif; font-size: 10px; fill: rgb(0, 0, 0); fill-opacity: 1; white-space: pre;" transform="translate(0,66.23)">100</text></g></g><g class="overaxes-above"/></g></g><g class="polarlayer"/><g class="smithlayer"/><g class="ternarylayer"/><g class="geolayer"/><g class="funnelarealayer"/><g class="pielayer"/><g class="iciclelayer"/><g class="treemaplayer"/><g class="sunburstlayer"/><g class="glimages"/><defs id="topdefs-6d3d33"><g class="clips"/></defs><g class="layer-above"><g class="imagelayer"/><g class="shapelayer"/></g><g class="infolayer"><g class="g-gtitle"><text class="gtitle" x="550" y="25" text-anchor="middle" dy="0em" style="opacity: 1; font-family: 'Lucida Grande', 'Open Sans', verdana, arial, sans-serif; font-size: 20px; fill: rgb(68, 68, 68); fill-opacity: 1; white-space: pre;"><tspan class="line" dy="0em" x="550" y="25">Samtools: idxstats: Mapped reads per contig</tspan><tspan class="line" dy="1.3em" x="550" y="25">​<tspan style="font-size:70%" dy="-0.6em">Observed over Expected Counts, 8 lines</tspan><tspan dy="0.42em">​</tspan></tspan></text></g><g class="g-xtitle" transform="translate(0,38.685546875)"><text class="xtitle" x="524" y="452" text-anchor="middle" style="opacity: 0.3; font-family: 'Lucida Grande', 'Open Sans', verdana, arial, sans-serif; font-size: 14px; fill: rgb(0, 0, 0); fill-opacity: 1; white-space: pre;">Chromosome name</text></g><g class="g-ytitle"><text class="ytitle" transform="rotate(-90,22,225)" x="22" y="225" text-anchor="middle" style="opacity: 0.3; font-family: 'Lucida Grande', 'Open Sans', verdana, arial, sans-serif; font-size: 14px; fill: rgb(0, 0, 0); fill-opacity: 1; white-space: pre;">log10 ( Observed over expected counts )</text></g></g></svg>