<svg class="main-svg" xmlns="http://www.w3.org/2000/svg" xmlns:xlink="http://www.w3.org/1999/xlink" width="2200" height="1000" style="" viewBox="0 0 1100 500"><rect x="0" y="0" width="1100" height="500" style="fill: rgb(255, 255, 255); fill-opacity: 1;"/><defs id="defs-4cfe4f"><g class="clips"><clipPath id="clip4cfe4fxyplot" class="plotclip"><rect width="928" height="350"/></clipPath><clipPath class="axesclip" id="clip4cfe4fx"><rect x="60" y="0" width="928" height="500"/></clipPath><clipPath class="axesclip" id="clip4cfe4fy"><rect x="0" y="50" width="1100" height="350"/></clipPath><clipPath class="axesclip" id="clip4cfe4fxy"><rect x="60" y="50" width="928" height="350"/></clipPath></g><g class="gradients"/><g class="patterns"/></defs><g class="bglayer"/><g class="layer-below"><g class="imagelayer"/><g class="shapelayer"/></g><g class="cartesianlayer"><g class="subplot xy"><g class="layer-subplot"><g class="shapelayer"/><g class="imagelayer"/></g><g class="minor-gridlayer"><g class="x"/><g class="y"/></g><g class="gridlayer"><g class="x"><path class="xgrid crisp" transform="translate(121.87,0)" d="M0,50v350" style="stroke: rgb(0, 0, 0); stroke-opacity: 0.05; stroke-width: 1px;"/><path class="xgrid crisp" transform="translate(183.73000000000002,0)" d="M0,50v350" style="stroke: rgb(0, 0, 0); stroke-opacity: 0.05; stroke-width: 1px;"/><path class="xgrid crisp" transform="translate(245.6,0)" d="M0,50v350" style="stroke: rgb(0, 0, 0); stroke-opacity: 0.05; stroke-width: 1px;"/><path class="xgrid crisp" transform="translate(307.47,0)" d="M0,50v350" style="stroke: rgb(0, 0, 0); stroke-opacity: 0.05; stroke-width: 1px;"/><path class="xgrid crisp" transform="translate(369.33,0)" d="M0,50v350" style="stroke: rgb(0, 0, 0); stroke-opacity: 0.05; stroke-width: 1px;"/><path class="xgrid crisp" transform="translate(431.2,0)" d="M0,50v350" style="stroke: rgb(0, 0, 0); stroke-opacity: 0.05; stroke-width: 1px;"/><path class="xgrid crisp" transform="translate(493.07,0)" d="M0,50v350" style="stroke: rgb(0, 0, 0); stroke-opacity: 0.05; stroke-width: 1px;"/><path class="xgrid crisp" transform="translate(554.9300000000001,0)" d="M0,50v350" style="stroke: rgb(0, 0, 0); stroke-opacity: 0.05; stroke-width: 1px;"/><path class="xgrid crisp" transform="translate(616.8,0)" d="M0,50v350" style="stroke: rgb(0, 0, 0); stroke-opacity: 0.05; stroke-width: 1px;"/><path class="xgrid crisp" transform="translate(678.67,0)" d="M0,50v350" style="stroke: rgb(0, 0, 0); stroke-opacity: 0.05; stroke-width: 1px;"/><path class="xgrid crisp" transform="translate(740.53,0)" d="M0,50v350" style="stroke: rgb(0, 0, 0); stroke-opacity: 0.05; stroke-width: 1px;"/><path class="xgrid crisp" transform="translate(802.4,0)" d="M0,50v350" style="stroke: rgb(0, 0, 0); stroke-opacity: 0.05; stroke-width: 1px;"/><path class="xgrid crisp" transform="translate(864.27,0)" d="M0,50v350" style="stroke: rgb(0, 0, 0); stroke-opacity: 0.05; stroke-width: 1px;"/><path class="xgrid crisp" transform="translate(926.13,0)" d="M0,50v350" style="stroke: rgb(0, 0, 0); stroke-opacity: 0.05; stroke-width: 1px;"/></g><g class="y"><path class="ygrid crisp" transform="translate(0,318.47)" d="M60,0h928" style="stroke: rgb(0, 0, 0); stroke-opacity: 0.05; stroke-width: 1px;"/><path class="ygrid crisp" transform="translate(0,254.43)" d="M60,0h928" style="stroke: rgb(0, 0, 0); stroke-opacity: 0.05; stroke-width: 1px;"/><path class="ygrid crisp" transform="translate(0,190.4)" d="M60,0h928" style="stroke: rgb(0, 0, 0); stroke-opacity: 0.05; stroke-width: 1px;"/><path class="ygrid crisp" transform="translate(0,126.36)" d="M60,0h928" style="stroke: rgb(0, 0, 0); stroke-opacity: 0.05; stroke-width: 1px;"/><path class="ygrid crisp" transform="translate(0,62.32)" d="M60,0h928" style="stroke: rgb(0, 0, 0); stroke-opacity: 0.05; stroke-width: 1px;"/></g></g><g class="zerolinelayer"><path class="yzl zl crisp" transform="translate(0,382.51)" d="M60,0h928" style="stroke: rgb(0, 0, 0); stroke-opacity: 0.05; stroke-width: 1px;"/></g><g class="layer-between"><g class="shapelayer"/><g class="imagelayer"/></g><path class="xlines-below"/><path class="ylines-below"/><g class="overlines-below"/><g class="xaxislayer-below"/><g class="yaxislayer-below"/><g class="overaxes-below"/><g class="overplot"><g class="xy" transform="translate(60,50)" clip-path="url(#clip4cfe4fxyplot)"><g class="scatterlayer mlayer"><g class="trace scatter traced005b9" style="stroke-miterlimit: 2; opacity: 1;"><g class="fills"/><g class="errorbars"/><g class="lines"><path class="js-line" d="M0,330.79L61.87,332.32L123.73,332.45L185.6,331.35L247.47,332.46L371.2,332.48L433.07,331.49L494.93,332.3L556.8,332.26L618.67,331.34L680.53,332.41L742.4,332.45L804.27,329.31L866.13,332.37L928,23.13" style="vector-effect: none; fill: none; stroke: rgb(124, 181, 236); stroke-opacity: 1; stroke-width: 2px; opacity: 1;"/></g><g class="points"/><g class="text"/></g><g class="trace scatter tracee308b6" style="stroke-miterlimit: 2; opacity: 1;"><g class="fills"/><g class="errorbars"/><g class="lines"><path class="js-line" d="M0,328.65L61.87,330.24L123.73,330.61L185.6,329.09L247.47,331.34L433.07,331.34L494.93,331.37L742.4,331.64L804.27,329.36L866.13,331.79L928,42.18" style="vector-effect: none; fill: none; stroke: rgb(67, 67, 72); stroke-opacity: 1; stroke-width: 2px; opacity: 1;"/></g><g class="points"/><g class="text"/></g><g class="trace scatter trace0bdc9a" style="stroke-miterlimit: 2; opacity: 1;"><g class="fills"/><g class="errorbars"/><g class="lines"><path class="js-line" d="M0,331.66L123.73,332.48L185.6,331.09L247.47,332.48L309.33,332.43L742.4,332.47L804.27,330.97L866.13,332.41L928,17.5" style="vector-effect: none; fill: none; stroke: rgb(144, 237, 125); stroke-opacity: 1; stroke-width: 2px; opacity: 1;"/></g><g class="points"/><g class="text"/></g><g class="trace scatter trace1ac912" style="stroke-miterlimit: 2; opacity: 1;"><g class="fills"/><g class="errorbars"/><g class="lines"><path class="js-line" d="M0,329.07L61.87,331.73L123.73,331.94L185.6,326.45L247.47,332.03L371.2,331.93L433.07,330.52L494.93,331.87L556.8,331.96L742.4,332.03L804.27,327.27L866.13,332.08L928,36.52" style="vector-effect: none; fill: none; stroke: rgb(247, 163, 92); stroke-opacity: 1; stroke-width: 2px; opacity: 1;"/></g><g class="points"/><g class="text"/></g><g class="trace scatter tracea8fc9d" style="stroke-miterlimit: 2; opacity: 1;"><g class="fills"/><g class="errorbars"/><g class="lines"><path class="js-line" d="M0,331L61.87,332.34L123.73,332.47L185.6,331.19L247.47,332.46L371.2,332.49L433.07,331.11L494.93,332.25L556.8,332.27L618.67,332.47L680.53,331.9L742.4,332.46L804.27,329.44L866.13,332.22L928,21.52" style="vector-effect: none; fill: none; stroke: rgb(128, 133, 233); stroke-opacity: 1; stroke-width: 2px; opacity: 1;"/></g><g class="points"/><g class="text"/></g><g class="trace scatter trace3560d2" style="stroke-miterlimit: 2; opacity: 1;"><g class="fills"/><g class="errorbars"/><g class="lines"><path class="js-line" d="M0,327.93L61.87,329.63L123.73,330.13L185.6,328.47L247.47,330.96L433.07,330.31L494.93,331.11L556.8,330.9L618.67,331.48L742.4,331.27L804.27,328.84L866.13,331.52L928,51.45" style="vector-effect: none; fill: none; stroke: rgb(241, 92, 128); stroke-opacity: 1; stroke-width: 2px; opacity: 1;"/></g><g class="points"/><g class="text"/></g><g class="trace scatter trace2fb61b" style="stroke-miterlimit: 2; opacity: 1;"><g class="fills"/><g class="errorbars"/><g class="lines"><path class="js-line" d="M0,330.45L61.87,332.26L123.73,332.48L185.6,329.97L247.47,332.45L371.2,332.48L433.07,331.06L494.93,332.26L556.8,332.14L680.53,332.1L742.4,332.43L804.27,329L866.13,332.46L928,23.69" style="vector-effect: none; fill: none; stroke: rgb(228, 211, 84); stroke-opacity: 1; stroke-width: 2px; opacity: 1;"/></g><g class="points"/><g class="text"/></g><g class="trace scatter trace891ca5" style="stroke-miterlimit: 2; opacity: 1;"><g class="fills"/><g class="errorbars"/><g class="lines"><path class="js-line" d="M0,330.78L61.87,332.13L123.73,332.3L185.6,329.87L247.47,332.34L371.2,332.31L433.07,331.01L494.93,332.18L556.8,331.86L680.53,332.3L742.4,332.34L804.27,329.74L866.13,332.36L928,24.32" style="vector-effect: none; fill: none; stroke: rgb(43, 144, 143); stroke-opacity: 1; stroke-width: 2px; opacity: 1;"/></g><g class="points"/><g class="text"/></g></g></g></g><g class="zerolinelayer-above"/><path class="xlines-above crisp" d="M0,0" style="fill: none;"/><path class="ylines-above crisp" d="M0,0" style="fill: none;"/><g class="overlines-above"/><g class="xaxislayer-above"><g class="xtick"><text text-anchor="start" x="0" y="416" transform="translate(60,0) rotate(29.999999999999996,0,411)" style="font-family: 'Lucida Grande', 'Open Sans', verdana, arial, sans-serif; font-size: 10px; fill: rgb(0, 0, 0); fill-opacity: 1; white-space: pre;">Chr1_pilon_pilon_pilon</text></g><g class="xtick"><text text-anchor="start" x="0" y="416" transform="translate(121.87,0) rotate(29.999999999999996,0,411)" style="font-family: 'Lucida Grande', 'Open Sans', verdana, arial, sans-serif; font-size: 10px; fill: rgb(0, 0, 0); fill-opacity: 1; white-space: pre;">Chr2_pilon_pilon_pilon</text></g><g class="xtick"><text text-anchor="start" x="0" y="416" transform="translate(183.73000000000002,0) rotate(29.999999999999996,0,411)" style="font-family: 'Lucida Grande', 'Open Sans', verdana, arial, sans-serif; font-size: 10px; fill: rgb(0, 0, 0); fill-opacity: 1; white-space: pre;">Chr3_pilon_pilon_pilon</text></g><g class="xtick"><text text-anchor="start" x="0" y="416" transform="translate(245.6,0) rotate(29.999999999999996,0,411)" style="font-family: 'Lucida Grande', 'Open Sans', verdana, arial, sans-serif; font-size: 10px; fill: rgb(0, 0, 0); fill-opacity: 1; white-space: pre;">Chr4_pilon_pilon_pilon</text></g><g class="xtick"><text text-anchor="start" x="0" y="416" transform="translate(307.47,0) rotate(29.999999999999996,0,411)" style="font-family: 'Lucida Grande', 'Open Sans', verdana, arial, sans-serif; font-size: 10px; fill: rgb(0, 0, 0); fill-opacity: 1; white-space: pre;">Chr5_pilon_pilon_pilon</text></g><g class="xtick"><text text-anchor="start" x="0" y="416" transform="translate(369.33,0) rotate(29.999999999999996,0,411)" style="font-family: 'Lucida Grande', 'Open Sans', verdana, arial, sans-serif; font-size: 10px; fill: rgb(0, 0, 0); fill-opacity: 1; white-space: pre;">Chr6_pilon_pilon_pilon</text></g><g class="xtick"><text text-anchor="start" x="0" y="416" transform="translate(431.2,0) rotate(29.999999999999996,0,411)" style="font-family: 'Lucida Grande', 'Open Sans', verdana, arial, sans-serif; font-size: 10px; fill: rgb(0, 0, 0); fill-opacity: 1; white-space: pre;">Chr7_pilon_pilon_pilon</text></g><g class="xtick"><text text-anchor="start" x="0" y="416" transform="translate(493.07,0) rotate(29.999999999999996,0,411)" style="font-family: 'Lucida Grande', 'Open Sans', verdana, arial, sans-serif; font-size: 10px; fill: rgb(0, 0, 0); fill-opacity: 1; white-space: pre;">Chr9_pilon_pilon_pilon</text></g><g class="xtick"><text text-anchor="start" x="0" y="416" transform="translate(554.9300000000001,0) rotate(29.999999999999996,0,411)" style="font-family: 'Lucida Grande', 'Open Sans', verdana, arial, sans-serif; font-size: 10px; fill: rgb(0, 0, 0); fill-opacity: 1; white-space: pre;">Chr10_pilon_pilon_pilon</text></g><g class="xtick"><text text-anchor="start" x="0" y="416" transform="translate(616.8,0) rotate(29.999999999999996,0,411)" style="font-family: 'Lucida Grande', 'Open Sans', verdana, arial, sans-serif; font-size: 10px; fill: rgb(0, 0, 0); fill-opacity: 1; white-space: pre;">Chr11_pilon_pilon_pilon</text></g><g class="xtick"><text text-anchor="start" x="0" y="416" transform="translate(678.67,0) rotate(29.999999999999996,0,411)" style="font-family: 'Lucida Grande', 'Open Sans', verdana, arial, sans-serif; font-size: 10px; fill: rgb(0, 0, 0); fill-opacity: 1; white-space: pre;">Chr12_pilon_pilon_pilon</text></g><g class="xtick"><text text-anchor="start" x="0" y="416" transform="translate(740.53,0) rotate(29.999999999999996,0,411)" style="font-family: 'Lucida Grande', 'Open Sans', verdana, arial, sans-serif; font-size: 10px; fill: rgb(0, 0, 0); fill-opacity: 1; white-space: pre;">Chr15_pilon_pilon_pilon</text></g><g class="xtick"><text text-anchor="start" x="0" y="416" transform="translate(802.4,0) rotate(29.999999999999996,0,411)" style="font-family: 'Lucida Grande', 'Open Sans', verdana, arial, sans-serif; font-size: 10px; fill: rgb(0, 0, 0); fill-opacity: 1; white-space: pre;">Chr16_pilon_pilon_pilon</text></g><g class="xtick"><text text-anchor="start" x="0" y="416" transform="translate(864.27,0) rotate(29.999999999999996,0,411)" style="font-family: 'Lucida Grande', 'Open Sans', verdana, arial, sans-serif; font-size: 10px; fill: rgb(0, 0, 0); fill-opacity: 1; white-space: pre;">Chr17_pilon_pilon_pilon</text></g><g class="xtick"><text text-anchor="start" x="0" y="416" transform="translate(926.13,0) rotate(29.999999999999996,0,411)" style="font-family: 'Lucida Grande', 'Open Sans', verdana, arial, sans-serif; font-size: 10px; fill: rgb(0, 0, 0); fill-opacity: 1; white-space: pre;">Chr21_pilon_pilon_pilon</text></g><g class="xtick"><text text-anchor="start" x="0" y="416" transform="translate(988,0) rotate(29.999999999999996,0,411)" style="font-family: 'Lucida Grande', 'Open Sans', verdana, arial, sans-serif; font-size: 10px; fill: rgb(0, 0, 0); fill-opacity: 1; white-space: pre;">Chr23_pilon_pilon_pilon</text></g></g><g class="yaxislayer-above"><g class="ytick"><text text-anchor="end" x="54" y="3.5" transform="translate(0,382.51)" style="font-family: 'Lucida Grande', 'Open Sans', verdana, arial, sans-serif; font-size: 10px; fill: rgb(0, 0, 0); fill-opacity: 1; white-space: pre;">0</text></g><g class="ytick"><text text-anchor="end" x="54" y="3.5" style="font-family: 'Lucida Grande', 'Open Sans', verdana, arial, sans-serif; font-size: 10px; fill: rgb(0, 0, 0); fill-opacity: 1; white-space: pre;" transform="translate(0,318.47)">0.2</text></g><g class="ytick"><text text-anchor="end" x="54" y="3.5" style="font-family: 'Lucida Grande', 'Open Sans', verdana, arial, sans-serif; font-size: 10px; fill: rgb(0, 0, 0); fill-opacity: 1; white-space: pre;" transform="translate(0,254.43)">0.4</text></g><g class="ytick"><text text-anchor="end" x="54" y="3.5" style="font-family: 'Lucida Grande', 'Open Sans', verdana, arial, sans-serif; font-size: 10px; fill: rgb(0, 0, 0); fill-opacity: 1; white-space: pre;" transform="translate(0,190.4)">0.6</text></g><g class="ytick"><text text-anchor="end" x="54" y="3.5" style="font-family: 'Lucida Grande', 'Open Sans', verdana, arial, sans-serif; font-size: 10px; fill: rgb(0, 0, 0); fill-opacity: 1; white-space: pre;" transform="translate(0,126.36)">0.8</text></g><g class="ytick"><text text-anchor="end" x="54" y="3.5" style="font-family: 'Lucida Grande', 'Open Sans', verdana, arial, sans-serif; font-size: 10px; fill: rgb(0, 0, 0); fill-opacity: 1; white-space: pre;" transform="translate(0,62.32)">1</text></g></g><g class="overaxes-above"/></g></g><g class="polarlayer"/><g class="smithlayer"/><g class="ternarylayer"/><g class="geolayer"/><g class="funnelarealayer"/><g class="pielayer"/><g class="iciclelayer"/><g class="treemaplayer"/><g class="sunburstlayer"/><g class="glimages"/><defs id="topdefs-4cfe4f"><g class="clips"/></defs><g class="layer-above"><g class="imagelayer"/><g class="shapelayer"/></g><g class="infolayer"><g class="g-gtitle"><text class="gtitle" x="550" y="25" text-anchor="middle" dy="0em" style="opacity: 1; font-family: 'Lucida Grande', 'Open Sans', verdana, arial, sans-serif; font-size: 20px; fill: rgb(68, 68, 68); fill-opacity: 1; white-space: pre;"><tspan class="line" dy="0em" x="550" y="25">Samtools: idxstats: Mapped reads per contig</tspan><tspan class="line" dy="1.3em" x="550" y="25">​<tspan style="font-size:70%" dy="-0.6em">Normalised Counts, 8 lines</tspan><tspan dy="0.42em">​</tspan></tspan></text></g><g class="g-xtitle" transform="translate(0,38.685546875)"><text class="xtitle" x="524" y="452" text-anchor="middle" style="opacity: 0.3; font-family: 'Lucida Grande', 'Open Sans', verdana, arial, sans-serif; font-size: 14px; fill: rgb(0, 0, 0); fill-opacity: 1; white-space: pre;">Chromosome name</text></g><g class="g-ytitle"><text class="ytitle" transform="rotate(-90,22,225)" x="22" y="225" text-anchor="middle" style="opacity: 0.3; font-family: 'Lucida Grande', 'Open Sans', verdana, arial, sans-serif; font-size: 14px; fill: rgb(0, 0, 0); fill-opacity: 1; white-space: pre;">Fraction of total count</text></g></g></svg>