<svg class="main-svg" xmlns="http://www.w3.org/2000/svg" xmlns:xlink="http://www.w3.org/1999/xlink" width="2200" height="1000" style="" viewBox="0 0 1100 500"><rect x="0" y="0" width="1100" height="500" style="fill: rgb(255, 255, 255); fill-opacity: 1;"/><defs id="defs-57a066"><g class="clips"><clipPath id="clip57a066xyplot" class="plotclip"><rect width="928" height="350"/></clipPath><clipPath class="axesclip" id="clip57a066x"><rect x="60" y="0" width="928" height="500"/></clipPath><clipPath class="axesclip" id="clip57a066y"><rect x="0" y="50" width="1100" height="350"/></clipPath><clipPath class="axesclip" id="clip57a066xy"><rect x="60" y="50" width="928" height="350"/></clipPath></g><g class="gradients"/><g class="patterns"/></defs><g class="bglayer"/><g class="layer-below"><g class="imagelayer"/><g class="shapelayer"/></g><g class="cartesianlayer"><g class="subplot xy"><g class="layer-subplot"><g class="shapelayer"/><g class="imagelayer"/></g><g class="minor-gridlayer"><g class="x"/><g class="y"/></g><g class="gridlayer"><g class="x"><path class="xgrid crisp" transform="translate(121.87,0)" d="M0,50v350" style="stroke: rgb(0, 0, 0); stroke-opacity: 0.05; stroke-width: 1px;"/><path class="xgrid crisp" transform="translate(183.73000000000002,0)" d="M0,50v350" style="stroke: rgb(0, 0, 0); stroke-opacity: 0.05; stroke-width: 1px;"/><path class="xgrid crisp" transform="translate(245.6,0)" d="M0,50v350" style="stroke: rgb(0, 0, 0); stroke-opacity: 0.05; stroke-width: 1px;"/><path class="xgrid crisp" transform="translate(307.47,0)" d="M0,50v350" style="stroke: rgb(0, 0, 0); stroke-opacity: 0.05; stroke-width: 1px;"/><path class="xgrid crisp" transform="translate(369.33,0)" d="M0,50v350" style="stroke: rgb(0, 0, 0); stroke-opacity: 0.05; stroke-width: 1px;"/><path class="xgrid crisp" transform="translate(431.2,0)" d="M0,50v350" style="stroke: rgb(0, 0, 0); stroke-opacity: 0.05; stroke-width: 1px;"/><path class="xgrid crisp" transform="translate(493.07,0)" d="M0,50v350" style="stroke: rgb(0, 0, 0); stroke-opacity: 0.05; stroke-width: 1px;"/><path class="xgrid crisp" transform="translate(554.9300000000001,0)" d="M0,50v350" style="stroke: rgb(0, 0, 0); stroke-opacity: 0.05; stroke-width: 1px;"/><path class="xgrid crisp" transform="translate(616.8,0)" d="M0,50v350" style="stroke: rgb(0, 0, 0); stroke-opacity: 0.05; stroke-width: 1px;"/><path class="xgrid crisp" transform="translate(678.67,0)" d="M0,50v350" style="stroke: rgb(0, 0, 0); stroke-opacity: 0.05; stroke-width: 1px;"/><path class="xgrid crisp" transform="translate(740.53,0)" d="M0,50v350" style="stroke: rgb(0, 0, 0); stroke-opacity: 0.05; stroke-width: 1px;"/><path class="xgrid crisp" transform="translate(802.4,0)" d="M0,50v350" style="stroke: rgb(0, 0, 0); stroke-opacity: 0.05; stroke-width: 1px;"/><path class="xgrid crisp" transform="translate(864.27,0)" d="M0,50v350" style="stroke: rgb(0, 0, 0); stroke-opacity: 0.05; stroke-width: 1px;"/><path class="xgrid crisp" transform="translate(926.13,0)" d="M0,50v350" style="stroke: rgb(0, 0, 0); stroke-opacity: 0.05; stroke-width: 1px;"/></g><g class="y"><path class="ygrid crisp" transform="translate(0,382.18)" d="M60,0h928" style="stroke: rgb(0, 0, 0); stroke-opacity: 0.05; stroke-width: 1px;"/><path class="ygrid crisp" transform="translate(0,355.49)" d="M60,0h928" style="stroke: rgb(0, 0, 0); stroke-opacity: 0.05; stroke-width: 1px;"/><path class="ygrid crisp" transform="translate(0,335.3)" d="M60,0h928" style="stroke: rgb(0, 0, 0); stroke-opacity: 0.05; stroke-width: 1px;"/><path class="ygrid crisp" transform="translate(0,315.11)" d="M60,0h928" style="stroke: rgb(0, 0, 0); stroke-opacity: 0.05; stroke-width: 1px;"/><path class="ygrid crisp" transform="translate(0,288.41999999999996)" d="M60,0h928" style="stroke: rgb(0, 0, 0); stroke-opacity: 0.05; stroke-width: 1px;"/><path class="ygrid crisp" transform="translate(0,268.23)" d="M60,0h928" style="stroke: rgb(0, 0, 0); stroke-opacity: 0.05; stroke-width: 1px;"/><path class="ygrid crisp" transform="translate(0,248.04)" d="M60,0h928" style="stroke: rgb(0, 0, 0); stroke-opacity: 0.05; stroke-width: 1px;"/><path class="ygrid crisp" transform="translate(0,221.35)" d="M60,0h928" style="stroke: rgb(0, 0, 0); stroke-opacity: 0.05; stroke-width: 1px;"/><path class="ygrid crisp" transform="translate(0,201.16)" d="M60,0h928" style="stroke: rgb(0, 0, 0); stroke-opacity: 0.05; stroke-width: 1px;"/><path class="ygrid crisp" transform="translate(0,180.97)" d="M60,0h928" style="stroke: rgb(0, 0, 0); stroke-opacity: 0.05; stroke-width: 1px;"/><path class="ygrid crisp" transform="translate(0,154.28)" d="M60,0h928" style="stroke: rgb(0, 0, 0); stroke-opacity: 0.05; stroke-width: 1px;"/><path class="ygrid crisp" transform="translate(0,134.09)" d="M60,0h928" style="stroke: rgb(0, 0, 0); stroke-opacity: 0.05; stroke-width: 1px;"/><path class="ygrid crisp" transform="translate(0,113.9)" d="M60,0h928" style="stroke: rgb(0, 0, 0); stroke-opacity: 0.05; stroke-width: 1px;"/><path class="ygrid crisp" transform="translate(0,87.22)" d="M60,0h928" style="stroke: rgb(0, 0, 0); stroke-opacity: 0.05; stroke-width: 1px;"/><path class="ygrid crisp" transform="translate(0,67.03)" d="M60,0h928" style="stroke: rgb(0, 0, 0); stroke-opacity: 0.05; stroke-width: 1px;"/></g></g><g class="zerolinelayer"/><g class="layer-between"><g class="shapelayer"/><g class="imagelayer"/></g><path class="xlines-below"/><path class="ylines-below"/><g class="overlines-below"/><g class="xaxislayer-below"/><g class="yaxislayer-below"/><g class="overaxes-below"/><g class="overplot"><g class="xy" transform="translate(60,50)" clip-path="url(#clip57a066xyplot)"><g class="scatterlayer mlayer"><g class="trace scatter trace114428" style="stroke-miterlimit: 2; opacity: 1;"><g class="fills"/><g class="errorbars"/><g class="lines"><path class="js-line" d="M0,169.29L61.87,233.82L123.73,269.76L185.6,180.75L247.47,272.41L309.33,243.84L371.2,297.09L433.07,184.57L494.93,230.84L556.8,226.09L618.67,180.69L680.53,252.22L742.4,268.52L804.27,151.22L866.13,243.07L928,18.03" style="vector-effect: none; fill: none; stroke: rgb(124, 181, 236); stroke-opacity: 1; stroke-width: 2px; opacity: 1;"/></g><g class="points"/><g class="text"/></g><g class="trace scatter trace45f3f4" style="stroke-miterlimit: 2; opacity: 1;"><g class="fills"/><g class="errorbars"/><g class="lines"><path class="js-line" d="M0,145.77L61.87,161.23L123.73,166.49L185.6,149.32L247.47,180.46L309.33,177.05L371.2,170.17L433.07,180.67L494.93,181.23L556.8,186.82L618.67,191.5L680.53,188.67L742.4,189.22L804.27,151.69L866.13,194.91L928,19.88" style="vector-effect: none; fill: none; stroke: rgb(67, 67, 72); stroke-opacity: 1; stroke-width: 2px; opacity: 1;"/></g><g class="points"/><g class="text"/></g><g class="trace scatter trace11359c" style="stroke-miterlimit: 2; opacity: 1;"><g class="fills"/><g class="errorbars"/><g class="lines"><path class="js-line" d="M0,189.88L61.87,245.37L123.73,293.48L185.6,174.86L247.47,290.2L309.33,260.56L371.2,318.16L433.07,203.25L494.93,240.15L556.8,246.32L618.67,332.5L680.53,276.98L742.4,282.6L804.27,172.5L866.13,252.07L928,17.5" style="vector-effect: none; fill: none; stroke: rgb(144, 237, 125); stroke-opacity: 1; stroke-width: 2px; opacity: 1;"/></g><g class="points"/><g class="text"/></g><g class="trace scatter trace7ef320" style="stroke-miterlimit: 2; opacity: 1;"><g class="fills"/><g class="errorbars"/><g class="lines"><path class="js-line" d="M0,149.07L61.87,192.48L123.73,201.53L185.6,132.62L247.47,206.57L309.33,198.07L371.2,201.13L433.07,165.08L494.93,198.19L556.8,202.5L618.67,218.38L680.53,210.55L742.4,206.57L804.27,136.86L866.13,210L928,19.31" style="vector-effect: none; fill: none; stroke: rgb(247, 163, 92); stroke-opacity: 1; stroke-width: 2px; opacity: 1;"/></g><g class="points"/><g class="text"/></g><g class="trace scatter trace920666" style="stroke-miterlimit: 2; opacity: 1;"><g class="fills"/><g class="errorbars"/><g class="lines"><path class="js-line" d="M0,173.08L61.87,237.22L123.73,284.1L185.6,177.09L247.47,276.39L309.33,265.26L371.2,309.07L433.07,175.35L494.93,225.23L556.8,227.16L618.67,278.49L680.53,199.71L742.4,276.39L804.27,152.4L866.13,221.5L928,17.87" style="vector-effect: none; fill: none; stroke: rgb(128, 133, 233); stroke-opacity: 1; stroke-width: 2px; opacity: 1;"/></g><g class="points"/><g class="text"/></g><g class="trace scatter trace7b8b49" style="stroke-miterlimit: 2; opacity: 1;"><g class="fills"/><g class="errorbars"/><g class="lines"><path class="js-line" d="M0,140.78L61.87,154.25L123.73,159.86L185.6,144.42L247.47,172.28L309.33,170.92L371.2,159.52L433.07,162.15L494.93,175.26L556.8,171.32L618.67,184.32L680.53,174.63L742.4,178.88L804.27,147.22L866.13,185.54L928,20.82" style="vector-effect: none; fill: none; stroke: rgb(241, 92, 128); stroke-opacity: 1; stroke-width: 2px; opacity: 1;"/></g><g class="points"/><g class="text"/></g><g class="trace scatter trace15e27c" style="stroke-miterlimit: 2; opacity: 1;"><g class="fills"/><g class="errorbars"/><g class="lines"><path class="js-line" d="M0,164.13L61.87,226.17L123.73,286.87L185.6,157.98L247.47,269.3L309.33,245.99L371.2,296.27L433.07,174.28L494.93,226.3L556.8,214.57L618.67,310.24L680.53,211.32L742.4,259.98L804.27,148.49L866.13,274.07L928,18.08" style="vector-effect: none; fill: none; stroke: rgb(228, 211, 84); stroke-opacity: 1; stroke-width: 2px; opacity: 1;"/></g><g class="points"/><g class="text"/></g><g class="trace scatter tracef2b92f" style="stroke-miterlimit: 2; opacity: 1;"><g class="fills"/><g class="errorbars"/><g class="lines"><path class="js-line" d="M0,169.17L61.87,213.57L123.73,231.07L185.6,156.87L247.47,236.72L309.33,231.54L371.2,232.02L433.07,173.25L494.93,217.99L556.8,197.7L618.67,244.23L680.53,231.38L742.4,236.91L804.27,155.44L866.13,241.88L928,18.14" style="vector-effect: none; fill: none; stroke: rgb(43, 144, 143); stroke-opacity: 1; stroke-width: 2px; opacity: 1;"/></g><g class="points"/><g class="text"/></g></g></g></g><g class="zerolinelayer-above"/><path class="xlines-above crisp" d="M0,0" style="fill: none;"/><path class="ylines-above crisp" d="M0,0" style="fill: none;"/><g class="overlines-above"/><g class="xaxislayer-above"><g class="xtick"><text text-anchor="start" x="0" y="416" transform="translate(60,0) rotate(29.999999999999996,0,411)" style="font-family: 'Lucida Grande', 'Open Sans', verdana, arial, sans-serif; font-size: 10px; fill: rgb(0, 0, 0); fill-opacity: 1; white-space: pre;">Chr1_pilon_pilon_pilon</text></g><g class="xtick"><text text-anchor="start" x="0" y="416" transform="translate(121.87,0) rotate(29.999999999999996,0,411)" style="font-family: 'Lucida Grande', 'Open Sans', verdana, arial, sans-serif; font-size: 10px; fill: rgb(0, 0, 0); fill-opacity: 1; white-space: pre;">Chr2_pilon_pilon_pilon</text></g><g class="xtick"><text text-anchor="start" x="0" y="416" transform="translate(183.73000000000002,0) rotate(29.999999999999996,0,411)" style="font-family: 'Lucida Grande', 'Open Sans', verdana, arial, sans-serif; font-size: 10px; fill: rgb(0, 0, 0); fill-opacity: 1; white-space: pre;">Chr3_pilon_pilon_pilon</text></g><g class="xtick"><text text-anchor="start" x="0" y="416" transform="translate(245.6,0) rotate(29.999999999999996,0,411)" style="font-family: 'Lucida Grande', 'Open Sans', verdana, arial, sans-serif; font-size: 10px; fill: rgb(0, 0, 0); fill-opacity: 1; white-space: pre;">Chr4_pilon_pilon_pilon</text></g><g class="xtick"><text text-anchor="start" x="0" y="416" transform="translate(307.47,0) rotate(29.999999999999996,0,411)" style="font-family: 'Lucida Grande', 'Open Sans', verdana, arial, sans-serif; font-size: 10px; fill: rgb(0, 0, 0); fill-opacity: 1; white-space: pre;">Chr5_pilon_pilon_pilon</text></g><g class="xtick"><text text-anchor="start" x="0" y="416" transform="translate(369.33,0) rotate(29.999999999999996,0,411)" style="font-family: 'Lucida Grande', 'Open Sans', verdana, arial, sans-serif; font-size: 10px; fill: rgb(0, 0, 0); fill-opacity: 1; white-space: pre;">Chr6_pilon_pilon_pilon</text></g><g class="xtick"><text text-anchor="start" x="0" y="416" transform="translate(431.2,0) rotate(29.999999999999996,0,411)" style="font-family: 'Lucida Grande', 'Open Sans', verdana, arial, sans-serif; font-size: 10px; fill: rgb(0, 0, 0); fill-opacity: 1; white-space: pre;">Chr7_pilon_pilon_pilon</text></g><g class="xtick"><text text-anchor="start" x="0" y="416" transform="translate(493.07,0) rotate(29.999999999999996,0,411)" style="font-family: 'Lucida Grande', 'Open Sans', verdana, arial, sans-serif; font-size: 10px; fill: rgb(0, 0, 0); fill-opacity: 1; white-space: pre;">Chr9_pilon_pilon_pilon</text></g><g class="xtick"><text text-anchor="start" x="0" y="416" transform="translate(554.9300000000001,0) rotate(29.999999999999996,0,411)" style="font-family: 'Lucida Grande', 'Open Sans', verdana, arial, sans-serif; font-size: 10px; fill: rgb(0, 0, 0); fill-opacity: 1; white-space: pre;">Chr10_pilon_pilon_pilon</text></g><g class="xtick"><text text-anchor="start" x="0" y="416" transform="translate(616.8,0) rotate(29.999999999999996,0,411)" style="font-family: 'Lucida Grande', 'Open Sans', verdana, arial, sans-serif; font-size: 10px; fill: rgb(0, 0, 0); fill-opacity: 1; white-space: pre;">Chr11_pilon_pilon_pilon</text></g><g class="xtick"><text text-anchor="start" x="0" y="416" transform="translate(678.67,0) rotate(29.999999999999996,0,411)" style="font-family: 'Lucida Grande', 'Open Sans', verdana, arial, sans-serif; font-size: 10px; fill: rgb(0, 0, 0); fill-opacity: 1; white-space: pre;">Chr12_pilon_pilon_pilon</text></g><g class="xtick"><text text-anchor="start" x="0" y="416" transform="translate(740.53,0) rotate(29.999999999999996,0,411)" style="font-family: 'Lucida Grande', 'Open Sans', verdana, arial, sans-serif; font-size: 10px; fill: rgb(0, 0, 0); fill-opacity: 1; white-space: pre;">Chr15_pilon_pilon_pilon</text></g><g class="xtick"><text text-anchor="start" x="0" y="416" transform="translate(802.4,0) rotate(29.999999999999996,0,411)" style="font-family: 'Lucida Grande', 'Open Sans', verdana, arial, sans-serif; font-size: 10px; fill: rgb(0, 0, 0); fill-opacity: 1; white-space: pre;">Chr16_pilon_pilon_pilon</text></g><g class="xtick"><text text-anchor="start" x="0" y="416" transform="translate(864.27,0) rotate(29.999999999999996,0,411)" style="font-family: 'Lucida Grande', 'Open Sans', verdana, arial, sans-serif; font-size: 10px; fill: rgb(0, 0, 0); fill-opacity: 1; white-space: pre;">Chr17_pilon_pilon_pilon</text></g><g class="xtick"><text text-anchor="start" x="0" y="416" transform="translate(926.13,0) rotate(29.999999999999996,0,411)" style="font-family: 'Lucida Grande', 'Open Sans', verdana, arial, sans-serif; font-size: 10px; fill: rgb(0, 0, 0); fill-opacity: 1; white-space: pre;">Chr21_pilon_pilon_pilon</text></g><g class="xtick"><text text-anchor="start" x="0" y="416" transform="translate(988,0) rotate(29.999999999999996,0,411)" style="font-family: 'Lucida Grande', 'Open Sans', verdana, arial, sans-serif; font-size: 10px; fill: rgb(0, 0, 0); fill-opacity: 1; white-space: pre;">Chr23_pilon_pilon_pilon</text></g></g><g class="yaxislayer-above"><g class="ytick"><text text-anchor="end" x="54" y="2.625" transform="translate(0,382.18)" style="font-family: 'Lucida Grande', 'Open Sans', verdana, arial, sans-serif; font-size: 7.5px; fill: rgb(0, 0, 0); fill-opacity: 1; white-space: pre;">2</text></g><g class="ytick"><text text-anchor="end" x="54" y="2.625" style="font-family: 'Lucida Grande', 'Open Sans', verdana, arial, sans-serif; font-size: 7.5px; fill: rgb(0, 0, 0); fill-opacity: 1; white-space: pre;" transform="translate(0,355.49)">5</text></g><g class="ytick"><text text-anchor="end" x="54" y="3.5" style="font-family: 'Lucida Grande', 'Open Sans', verdana, arial, sans-serif; font-size: 10px; fill: rgb(0, 0, 0); fill-opacity: 1; white-space: pre;" transform="translate(0,335.3)">100μ</text></g><g class="ytick"><text text-anchor="end" x="54" y="2.625" style="font-family: 'Lucida Grande', 'Open Sans', verdana, arial, sans-serif; font-size: 7.5px; fill: rgb(0, 0, 0); fill-opacity: 1; white-space: pre;" transform="translate(0,315.11)">2</text></g><g class="ytick"><text text-anchor="end" x="54" y="2.625" style="font-family: 'Lucida Grande', 'Open Sans', verdana, arial, sans-serif; font-size: 7.5px; fill: rgb(0, 0, 0); fill-opacity: 1; white-space: pre;" transform="translate(0,288.41999999999996)">5</text></g><g class="ytick"><text text-anchor="end" x="54" y="3.5" style="font-family: 'Lucida Grande', 'Open Sans', verdana, arial, sans-serif; font-size: 10px; fill: rgb(0, 0, 0); fill-opacity: 1; white-space: pre;" transform="translate(0,268.23)">0.001</text></g><g class="ytick"><text text-anchor="end" x="54" y="2.625" style="font-family: 'Lucida Grande', 'Open Sans', verdana, arial, sans-serif; font-size: 7.5px; fill: rgb(0, 0, 0); fill-opacity: 1; white-space: pre;" transform="translate(0,248.04)">2</text></g><g class="ytick"><text text-anchor="end" x="54" y="2.625" style="font-family: 'Lucida Grande', 'Open Sans', verdana, arial, sans-serif; font-size: 7.5px; fill: rgb(0, 0, 0); fill-opacity: 1; white-space: pre;" transform="translate(0,221.35)">5</text></g><g class="ytick"><text text-anchor="end" x="54" y="3.5" style="font-family: 'Lucida Grande', 'Open Sans', verdana, arial, sans-serif; font-size: 10px; fill: rgb(0, 0, 0); fill-opacity: 1; white-space: pre;" transform="translate(0,201.16)">0.01</text></g><g class="ytick"><text text-anchor="end" x="54" y="2.625" style="font-family: 'Lucida Grande', 'Open Sans', verdana, arial, sans-serif; font-size: 7.5px; fill: rgb(0, 0, 0); fill-opacity: 1; white-space: pre;" transform="translate(0,180.97)">2</text></g><g class="ytick"><text text-anchor="end" x="54" y="2.625" style="font-family: 'Lucida Grande', 'Open Sans', verdana, arial, sans-serif; font-size: 7.5px; fill: rgb(0, 0, 0); fill-opacity: 1; white-space: pre;" transform="translate(0,154.28)">5</text></g><g class="ytick"><text text-anchor="end" x="54" y="3.5" style="font-family: 'Lucida Grande', 'Open Sans', verdana, arial, sans-serif; font-size: 10px; fill: rgb(0, 0, 0); fill-opacity: 1; white-space: pre;" transform="translate(0,134.09)">0.1</text></g><g class="ytick"><text text-anchor="end" x="54" y="2.625" style="font-family: 'Lucida Grande', 'Open Sans', verdana, arial, sans-serif; font-size: 7.5px; fill: rgb(0, 0, 0); fill-opacity: 1; white-space: pre;" transform="translate(0,113.9)">2</text></g><g class="ytick"><text text-anchor="end" x="54" y="2.625" style="font-family: 'Lucida Grande', 'Open Sans', verdana, arial, sans-serif; font-size: 7.5px; fill: rgb(0, 0, 0); fill-opacity: 1; white-space: pre;" transform="translate(0,87.22)">5</text></g><g class="ytick"><text text-anchor="end" x="54" y="3.5" style="font-family: 'Lucida Grande', 'Open Sans', verdana, arial, sans-serif; font-size: 10px; fill: rgb(0, 0, 0); fill-opacity: 1; white-space: pre;" transform="translate(0,67.03)">1</text></g></g><g class="overaxes-above"/></g></g><g class="polarlayer"/><g class="smithlayer"/><g class="ternarylayer"/><g class="geolayer"/><g class="funnelarealayer"/><g class="pielayer"/><g class="iciclelayer"/><g class="treemaplayer"/><g class="sunburstlayer"/><g class="glimages"/><defs id="topdefs-57a066"><g class="clips"/></defs><g class="layer-above"><g class="imagelayer"/><g class="shapelayer"/></g><g class="infolayer"><g class="g-gtitle"><text class="gtitle" x="550" y="25" text-anchor="middle" dy="0em" style="opacity: 1; font-family: 'Lucida Grande', 'Open Sans', verdana, arial, sans-serif; font-size: 20px; fill: rgb(68, 68, 68); fill-opacity: 1; white-space: pre;"><tspan class="line" dy="0em" x="550" y="25">Samtools: idxstats: Mapped reads per contig</tspan><tspan class="line" dy="1.3em" x="550" y="25">​<tspan style="font-size:70%" dy="-0.6em">Normalised Counts, 8 lines</tspan><tspan dy="0.42em">​</tspan></tspan></text></g><g class="g-xtitle" transform="translate(0,38.685546875)"><text class="xtitle" x="524" y="452" text-anchor="middle" style="opacity: 0.3; font-family: 'Lucida Grande', 'Open Sans', verdana, arial, sans-serif; font-size: 14px; fill: rgb(0, 0, 0); fill-opacity: 1; white-space: pre;">Chromosome name</text></g><g class="g-ytitle"><text class="ytitle" transform="rotate(-90,22,225)" x="22" y="225" text-anchor="middle" style="opacity: 0.3; font-family: 'Lucida Grande', 'Open Sans', verdana, arial, sans-serif; font-size: 14px; fill: rgb(0, 0, 0); fill-opacity: 1; white-space: pre;">Fraction of total count</text></g></g></svg>